<svg width="94" height="31" viewBox="0 0 94 31" fill="none" xmlns="http://www.w3.org/2000/svg">
<g clip-path="url(#clip0)">
<path d="M17.7742 0.445312C16.4546 0.445312 15.6859 1.45976 15.6859 2.913V3.852V13.0659V14.0315C15.6859 15.4524 16.4546 16.482 17.7742 16.482C19.0688 16.482 19.8718 15.4524 19.8718 14.0315V13.0659V3.852V2.913C19.8718 1.45976 19.0687 0.445312 17.7742 0.445312Z" fill="#1756C2"/>
<path d="M27.5881 4.84844H26.6042V4.23857C26.6042 3.55429 27.004 3.26604 28.0617 3.38579C29.1874 3.49014 29.4404 2.77592 29.4404 2.20532C29.4404 1.76396 29.3108 1.53986 28.9694 1.14469C28.2401 0.423624 26.3946 0.445008 26.3946 0.445008C26.3946 0.445008 24.7217 0.368026 23.5874 1.26614C22.4575 2.14031 22.5562 3.73204 22.5562 3.73204V4.84818H22.3752C21.6245 4.84818 20.8273 5.31435 20.8273 6.27063C20.8273 7.23384 21.7316 7.67529 22.4575 7.67529H22.5561V14.311C22.5561 15.4522 23.2579 16.4818 24.6418 16.4818C26.0541 16.4818 26.604 15.4846 26.604 14.3753V7.67529H27.5879C28.1318 7.67529 29.2121 7.41098 29.2121 6.32649C29.2121 5.20059 28.3601 4.84818 27.5879 4.84818" fill="#1756C2"/>
<path d="M39.3927 4.48096C38.7158 4.48096 38.1744 4.78461 37.82 5.24478C37.1688 4.79401 36.311 4.48096 35.3107 4.48096C31.0483 4.48096 29.1599 7.67561 29.1599 10.7601C29.1599 14.0624 31.4541 16.6173 35.3107 16.6173C36.2244 16.6173 37.1046 16.3136 37.8149 15.8475C38.1623 16.3196 38.7071 16.6173 39.3927 16.6173C40.7183 16.6173 41.4741 15.5986 41.4741 14.1608V6.94599C41.4741 5.53287 40.7183 4.48096 39.3927 4.48096ZM33.2998 10.6007C33.2998 7.9731 34.5788 7.50719 35.4375 7.50719C35.4718 7.50719 35.5147 7.50719 35.5448 7.50719C36.5321 7.58417 37.3096 8.24022 37.3096 10.7145C37.3096 13.149 36.4671 13.6366 35.5935 13.6852C35.542 13.6852 35.5163 13.6852 35.4614 13.6852C34.4807 13.6852 33.2994 13.219 33.2994 10.6007" fill="#1756C2"/>
<path d="M14.0706 13.3233C13.8535 12.6733 10.3315 2.66224 10.1565 2.19C9.96264 1.71528 9.78418 1.37143 9.35864 1.0748C8.65512 0.542767 7.14865 0.574415 7.14865 0.574415C7.14865 0.574415 5.66252 0.540201 4.94613 1.0748C4.52745 1.3716 4.349 1.71545 4.16454 2.19C3.98609 2.66216 0.464213 12.6734 0.221414 13.3233C0.0240858 13.9589 -0.146645 14.7373 0.221414 15.3719C0.625507 15.9664 1.29196 16.4821 2.15334 16.4821C3.02682 16.4821 3.80163 16.104 4.13975 15.0436C4.4692 13.9589 4.64165 13.4286 4.64165 13.4286H7.14865H9.66922C9.66922 13.4286 9.83309 13.9589 10.1651 15.0436C10.4971 16.1042 11.2907 16.4821 12.1404 16.4821C13.0341 16.4821 13.7172 15.9663 14.0707 15.3719C14.4534 14.7372 14.305 13.9589 14.0707 13.3233H14.0706ZM5.58865 9.98054L7.14865 4.90335L8.71338 9.98054H5.58865Z" fill="#1756C2"/>
<path d="M88.5213 28.5384H0V30.4434H88.5213C91.2377 30.4434 93.5129 28.4527 93.9281 25.874C92.7108 27.4965 90.7298 28.5384 88.5213 28.5384Z" fill="#EFCF00"/>
<path d="M93.9959 21.7684V20.2416H5.49095C2.46943 20.2416 0 22.7056 0 25.7207V27.2476H88.5213C91.5482 27.2476 93.9959 24.7798 93.9959 21.7684Z" fill="#D60F27"/>
<path d="M59.5624 4.35743C57.3229 4.35743 55.1455 7.34688 54.3735 8.50349C54.4078 8.24004 54.4653 7.83802 54.5888 7.37853C54.7518 6.61727 54.8934 5.53884 54.3735 4.90332C54.0689 4.53551 53.6202 4.3576 53.0178 4.3576C50.9443 4.3576 48.8955 6.9949 48.0196 8.28546C48.1234 7.90825 48.2469 7.4361 48.3302 7.16332C48.4657 6.52865 48.7334 5.53901 48.3044 4.96233C48.0488 4.60651 47.6275 4.44656 47.0305 4.44656C46.055 4.44656 44.9697 4.90332 44.9242 4.90332L44.7029 5.00254L44.9053 5.12143C44.9053 5.12143 45.2039 5.41909 44.974 6.99465C44.5802 9.7641 43.6734 13.0658 43.3199 14.3755C43.1166 15.0435 43.1475 15.589 43.4152 15.9509C43.6974 16.3195 44.2113 16.5308 44.8525 16.5308C45.7463 16.5308 46.5589 16.2331 46.6043 16.1904L46.7364 16.1561L46.6318 16.0219C46.6318 16.0133 46.1651 15.3222 46.7802 13.9794C48.8529 9.38253 50.5288 7.55208 50.9969 7.23979C51.1076 7.18847 51.172 7.12689 51.2517 7.12689C51.3032 7.12689 51.329 7.1611 51.329 7.18676C51.3804 7.21242 51.389 7.32533 51.3804 7.42882C51.2114 9.02654 50.5345 11.6946 50.0989 13.4788C50.0054 13.8868 49.905 14.2187 49.8518 14.4975C49.6923 15.181 49.7454 15.7112 50.0054 16.0636C50.2645 16.3553 50.6832 16.5238 51.2759 16.5238C52.2052 16.5238 53.0269 16.1833 53.0605 16.1774L53.2295 16.1089L53.1034 15.9952C53.1034 15.9524 52.6547 15.369 53.2844 13.9475C54.8164 10.4116 56.8858 7.64882 57.4239 7.24689C57.6058 7.11944 57.6985 7.10319 57.7534 7.10319C57.7705 7.10319 57.7791 7.10319 57.8134 7.15451C57.8563 7.19728 57.8735 7.34868 57.8563 7.53172C57.8477 7.60015 57.7877 7.81998 57.7396 8.14758C57.4325 9.37141 56.8877 11.9016 56.5891 13.662C56.4107 14.7133 56.4973 15.5009 56.8877 15.9492C57.2043 16.311 57.7002 16.5223 58.3026 16.5223C59.3544 16.5223 60.3265 15.8688 60.3693 15.8449L60.5228 15.7405L60.3821 15.6456C60.3821 15.6456 59.6374 14.9459 60.0029 12.8828C60.262 11.4996 60.5966 9.90874 60.8488 8.75214C60.969 8.17221 61.0462 7.69065 61.1105 7.4272L61.1277 7.3237C61.2624 6.68903 61.4657 5.53012 60.9149 4.87321C60.6232 4.49343 60.1831 4.34888 59.5714 4.34888" fill="#D60F27"/>
<path d="M72.6486 4.48096C72.0128 4.48096 71.4955 4.65032 71.1419 4.99246C70.8828 4.83336 70 4.35779 68.8411 4.35779C68.1796 4.35779 67.2073 4.48096 66.1161 5.17037C64.9046 5.9188 63.8828 7.1145 63.0498 8.75181C61.1648 12.4162 62.0683 15.0924 62.5419 15.7493C62.9546 16.3199 63.5259 16.5773 64.3503 16.5773C65.5162 16.5773 67.0665 16.1206 69.4312 12.4162C69.3625 12.938 69.2844 13.6709 69.2844 14.2961C69.2844 16.3139 70.7103 16.5311 71.2981 16.5311C72.8208 16.5311 73.352 15.8229 73.3562 15.799L73.4162 15.722L73.3562 15.645C73.339 15.6193 72.6467 14.9145 73.1022 11.1613C73.5415 7.58588 74.7863 5.12093 74.7863 5.09074L74.8464 4.99152L74.7408 4.92309C74.6979 4.90598 73.671 4.48173 72.65 4.48173L72.6486 4.48096ZM66.0699 13.8298C65.7593 13.8298 65.5937 13.2995 65.5937 12.7443C65.5937 12.143 65.8949 8.68133 67.3646 6.90579C67.6906 6.56023 68.0784 6.34212 68.4655 6.34212C69.4067 6.34212 70.2869 7.3469 70.5048 7.60547C69.3637 9.91748 67.7611 12.3125 66.6207 13.486C66.4113 13.7195 66.2089 13.8299 66.0699 13.8299" fill="#D60F27"/>
<path d="M84.333 4.35742C82.6866 4.35742 80.7098 7.0741 79.8733 8.3342C80.0114 7.78935 80.2147 6.986 80.3709 6.24612C80.479 5.69185 80.4052 5.25905 80.1898 4.96823C79.9067 4.65004 79.44 4.48068 78.7873 4.48068C77.853 4.48068 76.7246 4.88782 76.6844 4.90322L76.5205 4.97165L76.6655 5.09482C76.6655 5.11193 76.9701 5.54217 76.7822 7.05374C76.5205 8.70038 75.4695 12.806 75.0261 14.468C74.8228 15.136 74.8725 15.6234 75.1188 15.9698C75.4937 16.4762 76.2229 16.5344 76.7247 16.5344C77.5783 16.5344 78.4278 16.2367 78.4647 16.1939L78.6277 16.1597L78.5299 16.0254C78.5238 16.0169 78.1232 15.3805 78.5899 14.1513C79.8475 10.9866 81.2453 9.13806 82.0843 8.50348C82.2782 8.36833 82.4755 8.28536 82.6694 8.28536C83.1301 8.28536 83.4227 8.80114 83.4227 8.80114L83.4913 8.9303L83.5934 8.82595C84.0327 8.39057 84.8168 7.46654 85.1025 6.63283C85.2999 6.1333 85.5555 5.24451 85.1712 4.72881C85.0116 4.47135 84.7259 4.35759 84.3321 4.35759" fill="#D60F27"/>
<path d="M93.8391 5.84505C93.3775 6.00415 92.2431 6.1085 90.7204 6.1085C90.5489 6.1085 90.4073 6.1085 90.3121 6.1085C90.3807 5.71589 90.6561 4.60642 90.9547 3.55451C91.1425 2.91984 91.1211 2.39884 90.8526 2.06175C90.5883 1.73928 90.1551 1.59473 89.4969 1.59473C88.5738 1.59473 87.2451 2.00615 87.1933 2.0301L86.996 2.08997L87.1659 2.24394C87.6755 2.76399 87.123 5.27017 86.8853 6.20173C86.8596 6.25305 85.5632 11.2244 85.5632 13.6003C85.5632 15.5933 86.658 16.5812 88.7555 16.5812C89.7337 16.5812 91.1605 16.3178 92.1196 15.489C92.5383 15.128 92.7227 14.6123 92.612 14.0665C92.552 13.6748 92.3572 13.3677 92.3572 13.3523L92.2886 13.2077L92.1659 13.3215C92.1488 13.3215 91.7172 13.7449 90.8548 14.0357C90.5296 14.1307 90.274 14.1957 90.0097 14.1957C89.7326 14.1957 89.4992 14.0819 89.2805 13.898C88.7949 13.401 89.108 11.6262 89.2118 11.0556C89.3748 10.1542 89.7738 8.47679 89.8604 8.05682C90.0114 8.05682 90.328 8.05074 90.7339 8.05074C91.0822 8.05074 91.3799 8.05682 91.6716 8.05682C93.4767 8.09103 93.9821 6.69253 93.9999 5.95359V5.76884L93.8391 5.84505Z" fill="#D60F27"/>
</g>
<defs>
<clipPath id="clip0">
<rect width="94" height="30" fill="white" transform="translate(0 0.443359)"/>
</clipPath>
</defs>
</svg>
