
<svg width="217" height="31" viewBox="0 0 217 31" fill="none" xmlns="http://www.w3.org/2000/svg">
<g clip-path="url(#clip0)">
<path d="M53.0433 10.3889C53.1481 9.78763 53.1481 9.17196 53.0433 8.57071C52.7212 6.71616 51.3358 5.20707 48.7238 5.16162L45.1367 5.08435L38.9199 4.98889L36.0167 10.7934L37.3139 10.6889L33.8106 26.598H43.8351C44.2708 26.5974 44.7054 26.5517 45.1322 26.4616C49.8445 25.498 54.4684 19.6434 49.8312 14.9798C50.6714 14.5181 51.3977 13.8643 51.9545 13.0685C52.5113 12.2726 52.8838 11.356 53.0433 10.3889ZM45.1367 21.2071C44.9043 21.386 44.6237 21.4861 44.3336 21.4934H40.7289L41.9158 16.7116H44.616C44.7877 16.7096 44.9591 16.7249 45.1278 16.7571C47.281 17.1798 46.5221 20.2571 45.1367 21.2071ZM46.0191 13.4798H42.6217L43.6277 9.22525H46.6192C48.2119 9.24344 48.009 13.498 46.0235 13.498L46.0191 13.4798Z" fill="#005CAA"/>
<path d="M88.6851 26.807L86.8761 5.28882H77.2752L74.4734 10.6934H75.4794L70.5642 21.6615L68.3582 26.5797H74.9764L76.3751 22.6252H81.5991V26.807H88.6851ZM79.7725 18.3706H77.9635L79.7725 14.6297L81.5815 10.8888V18.3706H79.7725Z" fill="#005CAA"/>
<path d="M59.1235 16.2888C59.4897 12.8934 65.905 9.96612 70.2554 13.1798L70.5466 12.457L72.7527 7.05249L70.5466 5.7843L68.2567 4.45703L67.864 5.69339C65.1947 5.90249 58.1572 3.42067 53.8289 14.5343C53.4369 15.5565 53.1716 16.6255 53.0391 17.7161C52.9514 18.509 52.9514 19.3096 53.0391 20.1025C53.5509 24.3116 56.9615 27.9207 65.7594 26.9207L68.0493 20.5843C61.3869 22.7161 58.7749 19.8343 59.1235 16.2888Z" fill="#005CAA"/>
<path d="M25.8379 3.17063L25.8114 3.13427H25.7717C22.1251 1.42275 18.1744 0.506595 14.1676 0.443359C10.2021 0.490404 6.29161 1.40613 2.69596 3.12972L2.64743 3.17063L2.62096 3.22518C2.59889 3.257 0.000119171 8.14336 0.000119171 15.3934C-0.0378265 19.6357 0.85824 23.8318 2.62096 27.6661L2.64743 27.7161L2.70037 27.7434C6.34766 29.4586 10.3 30.3779 14.3088 30.4434C18.2744 30.3965 22.1849 29.4807 25.7805 27.757H25.807L25.829 27.7343C25.9526 27.6025 28.8073 24.4479 28.8073 14.9297C28.7984 7.157 25.9614 3.34336 25.8379 3.17063ZM25.5643 27.4025C22.0341 29.0849 18.1982 29.9788 14.3088 30.0252C10.385 29.97 6.51373 29.0866 2.93422 27.4297C1.22541 23.6632 0.35559 19.5508 0.388391 15.3934C0.346974 11.2666 1.21914 7.18444 2.93863 3.457C6.4619 1.78294 10.288 0.892385 14.1676 0.843359C18.0994 0.903765 21.9772 1.7965 25.5599 3.46609C26.1403 4.33546 26.6131 5.27607 26.9674 6.26609C27.9634 9.02809 28.454 11.9563 28.4146 14.9025C28.4102 23.8297 25.8202 27.1161 25.5643 27.4161V27.4025Z" fill="#005CAA"/>
<path d="M14.4012 3.14333C14.4012 3.14333 9.73749 3.05242 9.73749 7.51606C9.73749 11.9797 14.035 11.6661 14.035 17.0615V23.1706H14.763V17.0797C14.763 11.6661 19.0604 11.9751 19.0604 7.53424C19.0604 3.09333 14.4012 3.14333 14.4012 3.14333Z" fill="#005CAA"/>
<path d="M7.87586 17.8071C10.1923 18.4344 13.1705 19.8571 13.1705 23.1662H13.5146V17.748C13.5146 15.3208 11.388 10.5571 8.34356 10.5571C5.29915 10.5571 4.50937 13.3389 4.50937 14.5071C4.53143 16.0844 5.48887 17.1571 7.87586 17.8071Z" fill="#005CAA"/>
<path d="M9.21252 21.5933C11.2201 21.1387 12.1554 22.216 12.3275 23.166H12.6452C12.8173 21.2751 11.0921 18.9615 8.0477 18.4569C5.0033 17.9524 4.85328 16.8978 4.85328 16.8978C3.36638 19.6978 4.60179 22.6433 9.21252 21.5933Z" fill="#005CAA"/>
<path d="M20.768 17.8071C23.155 17.1617 24.1124 16.0844 24.1124 14.5071C24.1124 13.3389 23.3227 10.5571 20.2783 10.5571C17.2338 10.5571 15.1072 15.3208 15.1072 17.748V23.1708H15.4425C15.4425 19.8526 18.4472 18.4344 20.768 17.8071Z" fill="#005CAA"/>
<path d="M20.596 18.4569C17.5516 18.9615 15.8265 21.2751 15.9985 23.166H16.325C16.4971 22.216 17.4325 21.1387 19.44 21.5933C24.042 22.6433 25.2774 19.6978 23.8258 16.8978C23.8258 16.8978 23.6404 17.9524 20.596 18.4569Z" fill="#005CAA"/>
<path d="M7.66378 26.4342L8.08293 26.5888L7.93292 27.0433C7.87993 27.0663 7.82272 27.0772 7.76526 27.0751C7.67744 27.0696 7.59105 27.0497 7.50935 27.0161C7.44515 26.9942 7.3867 26.9574 7.3385 26.9085C7.2903 26.8596 7.25365 26.8 7.23138 26.7342C7.18055 26.5872 7.18055 26.4267 7.23138 26.2797L7.39463 25.8251C7.43958 25.6761 7.53309 25.5477 7.65936 25.4615C7.71482 25.4239 7.77822 25.4006 7.84425 25.3934C7.91028 25.3863 7.977 25.3956 8.03881 25.4206C8.1462 25.4529 8.23767 25.526 8.29472 25.6251C8.31574 25.6746 8.32659 25.728 8.32659 25.782C8.32659 25.8359 8.31574 25.8893 8.29472 25.9388L8.70505 26.0888C8.75718 25.9897 8.78449 25.8788 8.78449 25.7661C8.78449 25.6533 8.75718 25.5424 8.70505 25.4433C8.58062 25.2395 8.38725 25.0906 8.16235 25.0251C8.04796 24.978 7.92527 24.9561 7.80216 24.9608C7.67906 24.9655 7.55827 24.9967 7.44758 25.0524C7.33567 25.1104 7.23621 25.191 7.15511 25.2894C7.07401 25.3878 7.01292 25.502 6.97548 25.6251L6.81222 26.0797C6.76194 26.1987 6.73599 26.3271 6.73599 26.457C6.73599 26.5868 6.76194 26.7152 6.81222 26.8342C6.8674 26.9514 6.94514 27.0557 7.04072 27.1409C7.13629 27.2261 7.2477 27.2903 7.36816 27.3297C7.5445 27.4026 7.73451 27.4336 7.92409 27.4206C8.05987 27.4093 8.19125 27.3657 8.30795 27.2933L8.60798 26.4297L7.75202 26.1161L7.66378 26.4342Z" fill="#005CAA"/>
<path d="M9.91848 25.5299L9.13311 25.3799L8.69189 27.7162L9.13311 27.8026L9.30078 26.8662L9.66257 26.9344C9.71123 26.9399 9.75827 26.9557 9.80078 26.9807C9.84328 27.0057 9.88034 27.0395 9.90966 27.0799C9.93557 27.1228 9.95282 27.1707 9.9604 27.2207C9.96798 27.2707 9.96573 27.3217 9.95378 27.3708L9.92289 27.5344C9.90981 27.611 9.90243 27.6885 9.90083 27.7662C9.89357 27.8325 9.91091 27.899 9.94937 27.9526L10.4171 28.0435V28.0117C10.3777 27.9615 10.3559 27.899 10.3553 27.8344C10.3471 27.765 10.3471 27.6948 10.3553 27.6253L10.3862 27.4526C10.4116 27.3298 10.4024 27.202 10.3597 27.0844C10.3096 26.9691 10.2201 26.8769 10.1082 26.8253C10.2231 26.8016 10.3297 26.7467 10.4171 26.6662C10.4962 26.5885 10.5488 26.4864 10.5671 26.3753C10.589 26.2797 10.5889 26.1802 10.5667 26.0846C10.5445 25.9891 10.5008 25.9003 10.4391 25.8253C10.3004 25.6724 10.1181 25.569 9.91848 25.5299ZM10.1479 26.3117C10.1428 26.3576 10.1279 26.4018 10.1042 26.4411C10.0806 26.4804 10.0488 26.5138 10.0111 26.539C9.91733 26.584 9.81113 26.5937 9.71111 26.5662L9.38902 26.5026L9.51256 25.8208L9.84347 25.8844C9.94549 25.8956 10.0391 25.9479 10.1038 26.0299C10.1302 26.0709 10.1478 26.1173 10.1554 26.1659C10.163 26.2145 10.1605 26.2642 10.1479 26.3117Z" fill="#005CAA"/>
<path d="M12.2042 27.3844C12.2035 27.4512 12.1894 27.5172 12.1629 27.5782C12.1363 27.6392 12.0978 27.6939 12.0498 27.7389C12.0008 27.778 11.9448 27.8066 11.8849 27.823C11.825 27.8394 11.7626 27.8433 11.7012 27.8344C11.6401 27.833 11.5799 27.8186 11.5244 27.792C11.469 27.7654 11.4195 27.7272 11.3791 27.6798C11.3401 27.6273 11.3118 27.5673 11.2959 27.5032C11.28 27.4392 11.2768 27.3725 11.2865 27.3071L11.41 25.7571L10.9688 25.7162L10.8232 27.2616C10.808 27.3791 10.8188 27.4985 10.8547 27.6111C10.8906 27.7237 10.9507 27.8264 11.0306 27.9116C11.2045 28.0837 11.4337 28.184 11.6747 28.1935C11.9135 28.2237 12.1548 28.1639 12.3542 28.0253C12.4468 27.9552 12.5226 27.8643 12.5761 27.7596C12.6296 27.6549 12.6594 27.539 12.6631 27.4207L12.7954 25.8707L12.3542 25.8298L12.2042 27.3844Z" fill="#005CAA"/>
<path d="M13.8938 25.8979H13.0114V28.2751H13.4526V27.4115H13.8938C14.1195 27.4271 14.3428 27.3558 14.5204 27.2115C14.5927 27.1406 14.6503 27.0553 14.6897 26.9607C14.7291 26.8662 14.7494 26.7644 14.7494 26.6615C14.7494 26.5586 14.7291 26.4568 14.6897 26.3623C14.6503 26.2677 14.5927 26.1824 14.5204 26.1115C14.3449 25.9619 14.1213 25.8857 13.8938 25.8979ZM14.1806 26.9388C14.1412 26.9766 14.0946 27.0054 14.0436 27.0235C13.9927 27.0415 13.9387 27.0482 13.885 27.0433H13.4438V26.2433H13.885C13.9386 26.24 13.9923 26.2484 14.0425 26.2679C14.0927 26.2875 14.1383 26.3179 14.1762 26.357C14.2434 26.4358 14.2782 26.5385 14.2733 26.6433C14.2778 26.7453 14.2429 26.845 14.1762 26.9206L14.1806 26.9388Z" fill="#005CAA"/>
<path d="M17.9971 26.9661C17.906 26.8676 17.7806 26.8104 17.6486 26.807C17.7412 26.7612 17.8174 26.6864 17.8665 26.5934C17.9156 26.5004 17.935 26.3939 17.9221 26.2889C17.917 26.195 17.8887 26.1041 17.8401 26.0246C17.7915 25.9451 17.7241 25.8796 17.6441 25.8343C17.4424 25.7353 17.2161 25.702 16.9956 25.7389L16.2455 25.8207L16.4882 28.1843L17.3706 28.0889C17.5911 28.0798 17.8023 27.995 17.9706 27.848C18.0374 27.7784 18.087 27.6935 18.1154 27.6002C18.1438 27.5069 18.1501 27.4079 18.1339 27.3116C18.1267 27.184 18.0786 27.0625 17.9971 26.9661ZM16.7661 26.1343L17.0573 26.1025C17.1623 26.0829 17.2707 26.0988 17.3662 26.148C17.4033 26.1735 17.434 26.2079 17.4555 26.2483C17.477 26.2886 17.4887 26.3337 17.4897 26.3798C17.4967 26.4225 17.4935 26.4663 17.4804 26.5075C17.4674 26.5486 17.4448 26.5859 17.4147 26.6161C17.3362 26.683 17.2385 26.7213 17.1367 26.7252L16.8279 26.757L16.7661 26.1343ZM17.6486 27.6116C17.5739 27.6797 17.479 27.7198 17.3794 27.7252L16.9382 27.7707L16.8676 27.0889L17.3088 27.0434C17.4116 27.0242 17.5177 27.047 17.6044 27.107C17.6412 27.1382 17.6712 27.1769 17.6925 27.2208C17.7137 27.2646 17.7258 27.3126 17.728 27.3616C17.7297 27.4097 17.7202 27.4575 17.7002 27.501C17.6803 27.5445 17.6504 27.5825 17.6133 27.6116H17.6486Z" fill="#005CAA"/>
<path d="M20.1106 26.807L19.6694 26.8979C19.7027 27.0178 19.6901 27.1464 19.6341 27.257C19.6013 27.3044 19.5592 27.3443 19.5106 27.3741C19.462 27.4038 19.4078 27.4228 19.3517 27.4297C19.2874 27.4458 19.2202 27.4451 19.1562 27.4276C19.0923 27.4101 19.0336 27.3765 18.9855 27.3297C18.8766 27.2177 18.8055 27.0728 18.7825 26.9161L18.6943 26.4615C18.6594 26.3103 18.6702 26.1517 18.7251 26.007C18.7495 25.9462 18.7887 25.8928 18.839 25.8522C18.8892 25.8116 18.9488 25.7851 19.0119 25.7752C19.0693 25.7584 19.1294 25.7538 19.1885 25.7616C19.2477 25.7694 19.3047 25.7895 19.3561 25.8206C19.4032 25.8585 19.4423 25.9058 19.4712 25.9597C19.5 26.0136 19.5179 26.073 19.5238 26.1342L19.965 26.0433C19.9522 25.9324 19.9149 25.8261 19.856 25.7323C19.7971 25.6385 19.7182 25.5599 19.6252 25.5024C19.4127 25.3908 19.1678 25.3633 18.9369 25.4252C18.8166 25.4451 18.7019 25.4916 18.6007 25.5614C18.4994 25.6313 18.4139 25.7228 18.3501 25.8297C18.2208 26.054 18.1812 26.3213 18.2398 26.5752L18.3281 27.0297C18.3476 27.158 18.3916 27.2811 18.4575 27.3919C18.5234 27.5026 18.6098 27.5989 18.7119 27.6752C18.8143 27.7482 18.9305 27.7982 19.0529 27.8217C19.1754 27.8452 19.3012 27.8417 19.4223 27.8115C19.6528 27.7786 19.8625 27.6568 20.0091 27.4706C20.072 27.3804 20.1146 27.2769 20.1336 27.1676C20.1527 27.0582 20.1479 26.9459 20.1194 26.8388L20.1106 26.807Z" fill="#005CAA"/>
<path d="M20.4637 25.0434L20.4902 27.5525L20.9314 27.3888V26.8525L21.6374 26.5979L21.9507 27.0298L22.3919 26.8661L20.9138 24.8798L20.4637 25.0434ZM20.905 26.4616L20.8785 25.5843L21.3859 26.2889L20.905 26.4616Z" fill="#005CAA"/>
<path d="M101.079 26.1933C101.053 26.2881 101.011 26.3774 100.955 26.457C100.892 26.5333 100.807 26.5873 100.712 26.6115C100.568 26.6514 100.42 26.6742 100.271 26.6797C100.077 26.6797 99.8241 26.6797 99.5123 26.6797H98.8726C98.6961 26.6797 98.549 26.6721 98.4314 26.657C98.3282 26.648 98.2262 26.6282 98.1269 26.5979C98.0564 26.5767 97.9894 26.5445 97.9284 26.5024C97.8768 26.4663 97.8344 26.418 97.8048 26.3615C97.772 26.2946 97.7454 26.2246 97.7254 26.1524L94.1251 15.107C94.0625 14.9286 94.0167 14.7444 93.9883 14.557C93.9763 14.5023 93.9786 14.4453 93.9949 14.3919C94.0112 14.3384 94.0408 14.2903 94.0809 14.2524C94.1983 14.1706 94.3364 14.1264 94.478 14.1251C94.6663 14.11 94.9281 14.1024 95.2634 14.1024C95.5576 14.1024 95.7811 14.1024 95.9341 14.1024C96.0614 14.1087 96.1874 14.1316 96.3091 14.1706C96.3849 14.1942 96.4494 14.246 96.49 14.3161C96.5292 14.3932 96.5617 14.4739 96.5871 14.557L99.53 24.1661L102.42 14.6206C102.439 14.5287 102.47 14.44 102.513 14.357C102.557 14.2836 102.624 14.2276 102.702 14.1979C102.827 14.1522 102.958 14.1262 103.091 14.1206C103.258 14.1206 103.489 14.1206 103.783 14.1206C104.006 14.1172 104.228 14.1263 104.45 14.1479C104.572 14.1508 104.688 14.2011 104.776 14.2888C104.807 14.3336 104.829 14.3849 104.839 14.439C104.848 14.4932 104.847 14.549 104.833 14.6024C104.799 14.7864 104.75 14.9672 104.688 15.1433L101.079 26.1933Z" fill="#005CAA"/>
<path d="M108.769 14.8116C108.788 14.9913 108.772 15.1731 108.722 15.3463C108.672 15.5195 108.589 15.6808 108.478 15.8207C108.148 16.0006 107.78 16.0947 107.406 16.0947C107.032 16.0947 106.664 16.0006 106.334 15.8207C106.228 15.6852 106.15 15.5294 106.103 15.3625C106.056 15.1956 106.041 15.0207 106.06 14.848C106.023 14.4844 106.126 14.1203 106.347 13.8344C106.676 13.6513 107.045 13.5555 107.419 13.5555C107.793 13.5555 108.162 13.6513 108.491 13.8344C108.598 13.9703 108.678 14.1266 108.725 14.2943C108.773 14.4621 108.788 14.6379 108.769 14.8116ZM108.593 26.3116C108.594 26.3729 108.573 26.4325 108.535 26.4798C108.484 26.5364 108.418 26.5773 108.346 26.598C108.228 26.6361 108.107 26.6605 107.984 26.6707C107.834 26.6859 107.644 26.6935 107.415 26.6935C107.185 26.6935 106.996 26.6859 106.846 26.6707C106.723 26.6606 106.601 26.6362 106.484 26.598C106.411 26.5773 106.346 26.5364 106.294 26.4798C106.257 26.4323 106.236 26.3729 106.237 26.3116V17.7389C106.236 17.6777 106.257 17.6182 106.294 17.5707C106.346 17.512 106.411 17.4682 106.484 17.4434C106.601 17.4021 106.722 17.3746 106.846 17.3616C107.224 17.3239 107.605 17.3239 107.984 17.3616C108.107 17.3747 108.229 17.4021 108.346 17.4434C108.419 17.4682 108.484 17.512 108.535 17.5707C108.573 17.6182 108.593 17.6777 108.593 17.7389V26.3116Z" fill="#005CAA"/>
<path d="M116.296 18.5207C116.296 18.7525 116.296 18.9434 116.296 19.0888C116.288 19.2057 116.269 19.3214 116.239 19.4343C116.224 19.5006 116.19 19.5607 116.142 19.607C116.097 19.6411 116.043 19.6587 115.988 19.657C115.93 19.656 115.874 19.6452 115.82 19.6252L115.599 19.5343L115.343 19.4616C115.242 19.439 115.138 19.4283 115.035 19.4297C114.9 19.4306 114.766 19.4584 114.642 19.5116C114.495 19.576 114.359 19.6617 114.236 19.7661C114.074 19.9014 113.926 20.0538 113.795 20.2207C113.618 20.4485 113.455 20.6868 113.305 20.9343V26.3116C113.306 26.3728 113.285 26.4324 113.248 26.4797C113.196 26.5363 113.13 26.5772 113.058 26.5979C112.94 26.6361 112.819 26.6604 112.696 26.6707C112.546 26.6858 112.356 26.6934 112.127 26.6934C111.897 26.6934 111.708 26.6858 111.558 26.6707C111.435 26.6605 111.313 26.6361 111.196 26.5979C111.123 26.5772 111.058 26.5363 111.006 26.4797C110.969 26.4322 110.948 26.3728 110.949 26.3116V17.7161C110.948 17.6563 110.965 17.5976 110.997 17.5479C111.04 17.4904 111.098 17.4475 111.165 17.4252C111.266 17.388 111.371 17.3635 111.478 17.3525C111.638 17.3352 111.799 17.3276 111.959 17.3297C112.124 17.3276 112.289 17.3352 112.453 17.3525C112.558 17.3621 112.66 17.3865 112.758 17.4252C112.82 17.4499 112.873 17.4925 112.912 17.5479C112.941 17.5986 112.955 17.6572 112.952 17.7161V18.7843C113.138 18.5036 113.345 18.2377 113.57 17.9888C113.736 17.8042 113.921 17.6382 114.121 17.4934C114.281 17.3788 114.459 17.2927 114.646 17.2388C114.813 17.1935 114.985 17.1706 115.158 17.1707H115.418C115.516 17.1815 115.614 17.1982 115.71 17.2207C115.798 17.2399 115.885 17.2658 115.97 17.2979C116.029 17.3178 116.084 17.3486 116.133 17.3888C116.165 17.4176 116.191 17.4533 116.208 17.4934C116.228 17.5448 116.243 17.5981 116.252 17.6525C116.267 17.7533 116.276 17.855 116.279 17.957C116.291 18.0994 116.296 18.2873 116.296 18.5207Z" fill="#005CAA"/>
<path d="M122.659 25.4434C122.664 25.6614 122.646 25.8793 122.606 26.0934C122.587 26.2096 122.54 26.319 122.469 26.4116C122.398 26.4827 122.314 26.5383 122.222 26.5752C122.098 26.6293 121.969 26.6719 121.838 26.7025C121.681 26.7396 121.522 26.7669 121.362 26.7843C121.189 26.8031 121.015 26.8122 120.841 26.8116C120.429 26.8202 120.019 26.7588 119.628 26.6298C119.302 26.5194 119.009 26.3254 118.776 26.0661C118.541 25.7907 118.371 25.4622 118.282 25.107C118.169 24.6621 118.115 24.2033 118.123 23.7434V19.357H117.143C117.024 19.357 116.936 19.2798 116.874 19.1298C116.799 18.8861 116.768 18.6304 116.782 18.3752C116.78 18.2234 116.788 18.0716 116.804 17.9207C116.813 17.8163 116.837 17.7138 116.874 17.6161C116.897 17.5528 116.937 17.4976 116.989 17.457C117.037 17.4237 117.094 17.4063 117.152 17.407H118.145V15.4752C118.145 15.4134 118.163 15.3531 118.198 15.3025C118.246 15.2407 118.31 15.1948 118.383 15.1707C118.502 15.1293 118.625 15.1033 118.749 15.0934C118.902 15.0783 119.091 15.0707 119.314 15.0707C119.538 15.0707 119.729 15.0783 119.888 15.0934C120.011 15.1029 120.133 15.1289 120.25 15.1707C120.321 15.1974 120.385 15.2428 120.435 15.3025C120.472 15.3519 120.492 15.4127 120.492 15.4752V17.3934H122.306C122.364 17.3929 122.421 17.4104 122.469 17.4434C122.521 17.4841 122.561 17.5393 122.584 17.6025C122.621 17.7002 122.644 17.8027 122.654 17.907C122.67 18.058 122.678 18.2098 122.676 18.3616C122.69 18.6168 122.659 18.8725 122.584 19.1161C122.522 19.2661 122.429 19.3434 122.315 19.3434H120.492V23.3798C120.47 23.745 120.544 24.1097 120.708 24.4343C120.795 24.5574 120.912 24.6546 121.046 24.7161C121.181 24.7776 121.33 24.8011 121.476 24.7843C121.589 24.7861 121.701 24.7755 121.812 24.7525C121.901 24.7327 121.99 24.7069 122.076 24.6752L122.275 24.598C122.321 24.5778 122.37 24.567 122.42 24.5661C122.458 24.5662 122.495 24.5773 122.526 24.598C122.568 24.6321 122.596 24.6805 122.606 24.7343C122.629 24.8239 122.647 24.915 122.659 25.007C122.668 25.1523 122.668 25.2981 122.659 25.4434Z" fill="#005CAA"/>
<path d="M132.291 26.3114C132.291 26.3712 132.274 26.4299 132.242 26.4796C132.2 26.5349 132.143 26.5761 132.079 26.5978C131.979 26.6355 131.875 26.6599 131.77 26.6705C131.61 26.6877 131.45 26.6953 131.289 26.6932C131.123 26.6956 130.956 26.688 130.79 26.6705C130.686 26.6604 130.584 26.6359 130.486 26.5978C130.423 26.5753 130.368 26.5342 130.327 26.4796C130.295 26.4299 130.278 26.3712 130.279 26.3114V25.316C129.877 25.7807 129.401 26.1712 128.871 26.4705C128.415 26.7222 127.906 26.8549 127.389 26.8569C126.893 26.8721 126.4 26.7727 125.946 26.566C125.573 26.3867 125.248 26.115 125.002 25.775C124.755 25.4285 124.58 25.0342 124.485 24.616C124.373 24.0769 124.321 23.5263 124.331 22.975V17.716C124.33 17.6554 124.349 17.5964 124.384 17.5478C124.433 17.4889 124.497 17.4462 124.569 17.425C124.688 17.3869 124.811 17.3625 124.935 17.3523C125.088 17.3372 125.277 17.3296 125.5 17.3296C125.724 17.3296 125.913 17.3372 126.069 17.3523C126.192 17.3628 126.314 17.3872 126.431 17.425C126.504 17.4472 126.57 17.4897 126.621 17.5478C126.659 17.5951 126.679 17.6547 126.678 17.716V22.575C126.667 22.9272 126.696 23.2795 126.762 23.625C126.81 23.8441 126.897 24.0522 127.018 24.2387C127.131 24.4065 127.282 24.5425 127.459 24.6341C127.653 24.7314 127.866 24.7797 128.081 24.775C128.402 24.7605 128.711 24.6429 128.964 24.4387C129.325 24.1546 129.649 23.8248 129.93 23.4569V17.716C129.929 17.6554 129.948 17.5964 129.983 17.5478C130.032 17.4889 130.096 17.4462 130.168 17.425C130.286 17.3871 130.407 17.3627 130.53 17.3523C130.68 17.3372 130.87 17.3296 131.099 17.3296C131.329 17.3296 131.518 17.3372 131.668 17.3523C131.788 17.3627 131.907 17.3871 132.021 17.425C132.093 17.4478 132.157 17.4902 132.207 17.5478C132.245 17.5951 132.265 17.6547 132.264 17.716L132.291 26.3114Z" fill="#005CAA"/>
<path d="M141.759 26.3523C141.761 26.3929 141.754 26.4334 141.737 26.4705C141.721 26.5076 141.697 26.5403 141.666 26.5659C141.578 26.627 141.477 26.6645 141.371 26.675C141.173 26.701 140.974 26.7116 140.775 26.7068C140.57 26.7123 140.365 26.7017 140.162 26.675C140.064 26.6653 139.971 26.6275 139.893 26.5659C139.865 26.5382 139.844 26.5048 139.831 26.468C139.817 26.4311 139.811 26.3917 139.813 26.3523V25.6705C139.481 26.0414 139.083 26.3424 138.64 26.5568C138.18 26.7734 137.68 26.882 137.175 26.875C136.763 26.8794 136.352 26.8196 135.957 26.6978C135.61 26.5824 135.289 26.397 135.013 26.1523C134.74 25.9156 134.524 25.6168 134.382 25.2796C134.218 24.902 134.132 24.4933 134.13 24.0796C134.119 23.6269 134.218 23.1786 134.417 22.775C134.617 22.3988 134.911 22.0848 135.269 21.8659C135.703 21.6023 136.18 21.4206 136.676 21.3296C137.321 21.2065 137.975 21.1487 138.631 21.1568H139.443V20.6205C139.446 20.3816 139.42 20.1432 139.363 19.9114C139.318 19.7238 139.228 19.5506 139.103 19.4068C138.97 19.2642 138.802 19.1607 138.618 19.1068C138.372 19.0372 138.118 19.005 137.863 19.0114C137.509 19.0072 137.155 19.0531 136.813 19.1478C136.534 19.2273 136.261 19.3276 135.997 19.4478C135.758 19.5568 135.56 19.6568 135.401 19.7478C135.284 19.824 135.151 19.8707 135.013 19.8841C134.947 19.8843 134.882 19.8601 134.832 19.8159C134.773 19.7644 134.728 19.6988 134.7 19.625C134.661 19.5257 134.634 19.4219 134.62 19.3159C134.601 19.182 134.592 19.0467 134.594 18.9114C134.591 18.7584 134.608 18.6057 134.642 18.4568C134.674 18.3386 134.735 18.2307 134.819 18.1432C134.949 18.0173 135.098 17.913 135.26 17.8341C135.508 17.7093 135.764 17.6044 136.028 17.5205C136.341 17.419 136.661 17.3401 136.985 17.2841C137.899 17.1319 138.833 17.1674 139.734 17.3887C140.156 17.4966 140.549 17.7034 140.881 17.9932C141.187 18.2778 141.412 18.6421 141.534 19.0478C141.681 19.5439 141.751 20.0609 141.741 20.5796L141.759 26.3523ZM139.451 22.675H138.569C138.243 22.6698 137.918 22.6987 137.598 22.7614C137.367 22.8046 137.145 22.8925 136.945 23.0205C136.788 23.1232 136.66 23.2676 136.575 23.4387C136.495 23.6149 136.456 23.8078 136.46 24.0023C136.452 24.1595 136.478 24.3167 136.535 24.4627C136.592 24.6087 136.679 24.7401 136.791 24.8478C137.049 25.0672 137.379 25.1777 137.713 25.1568C138.035 25.16 138.351 25.0702 138.626 24.8978C138.944 24.6895 139.229 24.4336 139.474 24.1387L139.451 22.675Z" fill="#005CAA"/>
<path d="M146.458 26.3116C146.459 26.3728 146.438 26.4324 146.401 26.4797C146.349 26.5363 146.283 26.5772 146.211 26.5979C146.093 26.636 145.972 26.6604 145.849 26.6706C145.699 26.6858 145.509 26.6934 145.28 26.6934C145.05 26.6934 144.864 26.6858 144.72 26.6706C144.597 26.6605 144.475 26.6361 144.358 26.5979C144.285 26.5772 144.22 26.5363 144.168 26.4797C144.13 26.4322 144.11 26.3728 144.111 26.3116V13.6252C144.111 13.5627 144.131 13.5019 144.168 13.4525C144.219 13.3921 144.284 13.3466 144.358 13.3206C144.475 13.2791 144.596 13.2516 144.72 13.2388C145.098 13.2005 145.479 13.2005 145.858 13.2388C145.981 13.2517 146.103 13.2791 146.22 13.3206C146.293 13.3466 146.358 13.3921 146.409 13.4525C146.447 13.5019 146.467 13.5627 146.467 13.6252L146.458 26.3116Z" fill="#005CAA"/>
<path d="M163.18 25.6934C163.242 25.8723 163.289 26.0563 163.321 26.2434C163.334 26.2966 163.334 26.3522 163.321 26.4054C163.308 26.4585 163.282 26.5075 163.246 26.5479C163.141 26.6302 163.012 26.6749 162.88 26.6752C162.706 26.6903 162.467 26.6979 162.161 26.6979C161.855 26.6979 161.608 26.6979 161.419 26.6979C161.282 26.694 161.146 26.6742 161.014 26.6388C160.938 26.6212 160.871 26.5799 160.819 26.5206C160.778 26.4599 160.746 26.3922 160.727 26.3206L159.915 23.8161H155.37L154.603 26.2525C154.582 26.3331 154.549 26.4098 154.506 26.4797C154.457 26.5475 154.389 26.5982 154.311 26.6252C154.187 26.6673 154.058 26.6918 153.928 26.6979C153.763 26.6979 153.547 26.6979 153.279 26.6979C153.054 26.7013 152.828 26.6922 152.604 26.6706C152.479 26.6673 152.36 26.6172 152.269 26.5297C152.236 26.4857 152.213 26.4347 152.202 26.3805C152.19 26.3263 152.19 26.2702 152.202 26.2161C152.234 26.0318 152.281 25.8508 152.344 25.6752L156.072 14.6206C156.103 14.5262 156.147 14.4373 156.204 14.357C156.266 14.2813 156.349 14.2273 156.443 14.2025C156.586 14.1618 156.735 14.1389 156.884 14.1343C157.078 14.1343 157.334 14.1343 157.651 14.1343C158.019 14.1343 158.313 14.1343 158.534 14.1343C158.705 14.1379 158.875 14.1608 159.041 14.2025C159.142 14.2255 159.234 14.2813 159.302 14.3616C159.363 14.4497 159.409 14.5481 159.438 14.6525L163.18 25.6934ZM157.629 16.557L155.909 21.8525H159.341L157.629 16.557Z" fill="#005CAA"/>
<path d="M171.043 24.9434C171.043 25.11 171.043 25.2494 171.043 25.3615C171.036 25.4576 171.025 25.5532 171.007 25.6479C170.995 25.712 170.976 25.7745 170.95 25.8343C170.912 25.9029 170.863 25.9644 170.805 26.0161C170.687 26.12 170.558 26.21 170.421 26.2843C170.223 26.3986 170.017 26.4944 169.803 26.5706C169.557 26.6589 169.305 26.7273 169.048 26.7752C168.772 26.827 168.491 26.8529 168.21 26.8524C167.627 26.8634 167.047 26.7584 166.503 26.5434C166.021 26.3486 165.593 26.0367 165.254 25.6343C164.902 25.2055 164.642 24.7052 164.491 24.1661C164.311 23.5221 164.225 22.8543 164.235 22.1843C164.22 21.4292 164.326 20.6767 164.548 19.957C164.732 19.3801 165.032 18.8501 165.43 18.4024C165.798 17.9985 166.251 17.6874 166.754 17.4934C167.292 17.2891 167.862 17.1875 168.435 17.1934C168.681 17.1935 168.926 17.2163 169.168 17.2615C169.397 17.3033 169.623 17.3641 169.843 17.4434C170.036 17.5133 170.224 17.5999 170.403 17.7025C170.529 17.7707 170.646 17.8546 170.752 17.9524C170.807 18.0056 170.855 18.0651 170.897 18.1297C170.929 18.1877 170.951 18.2507 170.963 18.3161C170.981 18.4107 170.992 18.5064 170.999 18.6024C170.999 18.7146 170.999 18.8509 170.999 19.0115C171.014 19.2773 170.982 19.5436 170.906 19.7979C170.844 19.9494 170.763 20.0252 170.663 20.0252C170.54 20.0184 170.422 19.9705 170.328 19.8888C170.21 19.7979 170.063 19.6979 169.887 19.5888C169.705 19.4685 169.511 19.3679 169.309 19.2888C169.052 19.1924 168.779 19.1462 168.506 19.1524C168.231 19.1389 167.957 19.1987 167.711 19.3261C167.466 19.4536 167.256 19.6442 167.103 19.8797C166.739 20.525 166.57 21.2671 166.617 22.0115C166.613 22.4227 166.654 22.8329 166.741 23.2343C166.807 23.5503 166.93 23.8509 167.103 24.1206C167.253 24.3513 167.46 24.5364 167.703 24.657C167.966 24.7806 168.252 24.8412 168.541 24.8343C168.827 24.8415 169.112 24.7905 169.379 24.6843C169.594 24.5955 169.8 24.4843 169.993 24.3524C170.166 24.2312 170.313 24.1206 170.434 24.0206C170.515 23.9381 170.621 23.8854 170.734 23.8706C170.785 23.8691 170.836 23.8869 170.875 23.9206C170.921 23.9694 170.952 24.0311 170.963 24.0979C170.989 24.207 171.007 24.3179 171.016 24.4297C171.034 24.56 171.043 24.7312 171.043 24.9434Z" fill="#005CAA"/>
<path d="M179.055 24.9434C179.055 25.1101 179.055 25.2494 179.055 25.3616C179.049 25.4577 179.037 25.5533 179.02 25.6479C179.007 25.7121 178.988 25.7746 178.962 25.8343C178.924 25.9029 178.875 25.9644 178.817 26.0161C178.699 26.1201 178.57 26.21 178.433 26.2843C178.236 26.3986 178.029 26.4944 177.815 26.5707C177.569 26.6589 177.317 26.7273 177.061 26.7752C176.784 26.8271 176.504 26.8529 176.222 26.8525C175.639 26.8634 175.06 26.7585 174.515 26.5434C174.034 26.3486 173.605 26.0367 173.266 25.6343C172.919 25.2029 172.663 24.7012 172.516 24.1616C172.336 23.5176 172.25 22.8497 172.26 22.1797C172.245 21.4246 172.351 20.6721 172.574 19.9525C172.757 19.3755 173.058 18.8456 173.456 18.3979C173.823 17.994 174.276 17.6829 174.78 17.4888C175.318 17.2846 175.887 17.1829 176.461 17.1888C176.706 17.1889 176.952 17.2118 177.193 17.257C177.423 17.2987 177.648 17.3595 177.868 17.4388C178.062 17.5087 178.249 17.5954 178.429 17.6979C178.554 17.7662 178.671 17.8501 178.777 17.9479C178.832 18.0011 178.881 18.0606 178.923 18.1252C178.955 18.1832 178.977 18.2461 178.989 18.3116C179.006 18.4062 179.018 18.5018 179.024 18.5979C179.024 18.7101 179.024 18.8464 179.024 19.007C179.039 19.2727 179.008 19.5391 178.932 19.7934C178.87 19.9449 178.789 20.0207 178.689 20.0207C178.566 20.0138 178.448 19.966 178.354 19.8843C178.236 19.7934 178.089 19.6934 177.912 19.5843C177.73 19.4639 177.537 19.3634 177.334 19.2843C177.077 19.1879 176.805 19.1417 176.531 19.1479C176.256 19.1344 175.983 19.1942 175.737 19.3216C175.491 19.449 175.282 19.6397 175.128 19.8752C174.765 20.5204 174.596 21.2625 174.643 22.007C174.638 22.4181 174.68 22.8284 174.766 23.2298C174.833 23.5458 174.955 23.8464 175.128 24.1161C175.278 24.3468 175.486 24.5319 175.728 24.6525C175.991 24.7761 176.278 24.8367 176.567 24.8298C176.853 24.837 177.138 24.786 177.405 24.6797C177.62 24.591 177.825 24.4798 178.018 24.3479C178.192 24.2267 178.339 24.1161 178.459 24.0161C178.541 23.9336 178.646 23.8809 178.759 23.8661C178.811 23.8646 178.861 23.8823 178.901 23.9161C178.947 23.9648 178.977 24.0266 178.989 24.0934C179.015 24.2024 179.032 24.3134 179.042 24.4252C179.051 24.5585 179.055 24.7313 179.055 24.9434Z" fill="#005CAA"/>
<path d="M189.093 21.9299C189.1 22.6091 189.005 23.2853 188.81 23.9344C188.638 24.5107 188.347 25.0423 187.959 25.4935C187.565 25.9393 187.075 26.2848 186.529 26.5026C185.887 26.7523 185.204 26.8727 184.517 26.8571C183.858 26.8713 183.202 26.7636 182.58 26.5389C182.063 26.3512 181.595 26.0396 181.217 25.6299C180.843 25.2022 180.568 24.6923 180.414 24.1389C180.231 23.4816 180.143 22.8 180.154 22.1162C180.147 21.4352 180.243 20.7572 180.44 20.1071C180.615 19.5305 180.906 18.9989 181.296 18.548C181.69 18.1052 182.178 17.7615 182.722 17.5435C183.361 17.2923 184.041 17.1703 184.725 17.1844C185.386 17.17 186.045 17.2762 186.67 17.498C187.188 17.6837 187.654 17.9956 188.029 18.4071C188.406 18.8347 188.683 19.3444 188.841 19.898C189.021 20.5589 189.106 21.2435 189.093 21.9299ZM186.67 22.0253C186.674 21.6321 186.641 21.2395 186.573 20.8526C186.516 20.5318 186.404 20.224 186.242 19.9435C186.092 19.6846 185.877 19.4713 185.62 19.3253C185.319 19.1671 184.983 19.0904 184.645 19.1026C184.329 19.0946 184.015 19.1614 183.728 19.298C183.467 19.4287 183.245 19.6279 183.083 19.8753C182.905 20.1524 182.776 20.4604 182.704 20.7844C182.615 21.1838 182.572 21.5927 182.576 22.0026C182.568 22.394 182.598 22.7853 182.664 23.1708C182.724 23.4908 182.836 23.7982 182.995 24.0799C183.144 24.3381 183.359 24.549 183.617 24.6889C183.918 24.843 184.252 24.918 184.588 24.9071C184.907 24.9157 185.224 24.8489 185.514 24.7117C185.785 24.5909 186.02 24.3979 186.194 24.1526C186.373 23.8765 186.5 23.5681 186.569 23.2435C186.648 22.8427 186.682 22.434 186.67 22.0253Z" fill="#005CAA"/>
<path d="M198.861 26.3114C198.862 26.3712 198.845 26.4299 198.813 26.4796C198.771 26.5349 198.714 26.5761 198.65 26.5978C198.55 26.6355 198.446 26.6599 198.341 26.6705C198.181 26.6877 198.02 26.6953 197.86 26.6932C197.693 26.6956 197.527 26.688 197.361 26.6705C197.257 26.6604 197.155 26.6359 197.057 26.5978C196.994 26.5753 196.938 26.5342 196.898 26.4796C196.866 26.4299 196.849 26.3712 196.849 26.3114V25.316C196.453 25.7807 195.983 26.1727 195.46 26.475C195.004 26.7268 194.494 26.8595 193.977 26.8614C193.481 26.8766 192.988 26.7772 192.534 26.5705C192.161 26.3913 191.837 26.1195 191.59 25.7796C191.334 25.4353 191.15 25.0409 191.047 24.6205C190.935 24.0815 190.883 23.5309 190.893 22.9796V17.716C190.892 17.6554 190.911 17.5964 190.946 17.5478C190.995 17.4889 191.059 17.4462 191.131 17.425C191.25 17.3869 191.373 17.3625 191.497 17.3523C191.65 17.3372 191.839 17.3296 192.062 17.3296C192.286 17.3296 192.475 17.3372 192.631 17.3523C192.754 17.3628 192.876 17.3872 192.993 17.425C193.066 17.4472 193.132 17.4897 193.183 17.5478C193.226 17.5931 193.251 17.6529 193.253 17.716V22.575C193.244 22.9211 193.272 23.2672 193.337 23.6069C193.385 23.8259 193.472 24.034 193.593 24.2205C193.706 24.3883 193.858 24.5243 194.034 24.616C194.228 24.7132 194.441 24.7615 194.657 24.7569C194.978 24.7423 195.286 24.6247 195.539 24.4205C195.9 24.1365 196.225 23.8066 196.505 23.4387V17.716C196.505 17.6554 196.523 17.5964 196.558 17.5478C196.607 17.4889 196.671 17.4462 196.744 17.425C196.861 17.3871 196.982 17.3627 197.105 17.3523C197.255 17.3372 197.445 17.3296 197.674 17.3296C197.904 17.3296 198.094 17.3372 198.244 17.3523C198.364 17.3627 198.482 17.3871 198.597 17.425C198.668 17.4478 198.732 17.4902 198.782 17.5478C198.82 17.5951 198.84 17.6547 198.839 17.716L198.861 26.3114Z" fill="#005CAA"/>
<path d="M209.19 26.3117C209.191 26.3729 209.171 26.4325 209.133 26.4798C209.083 26.5359 209.019 26.5768 208.948 26.598C208.83 26.6368 208.709 26.6612 208.586 26.6708C208.433 26.6859 208.245 26.6935 208.021 26.6935C207.798 26.6935 207.607 26.6859 207.448 26.6708C207.325 26.6612 207.203 26.6368 207.086 26.598C207.015 26.5768 206.951 26.5359 206.901 26.4798C206.863 26.4325 206.842 26.3729 206.843 26.3117V21.4071C206.852 21.0774 206.822 20.7478 206.755 20.4253C206.705 20.207 206.618 19.9994 206.499 19.8117C206.388 19.6426 206.236 19.5064 206.058 19.4162C205.864 19.3191 205.651 19.2708 205.436 19.2753C205.106 19.2854 204.788 19.4032 204.527 19.6117C204.167 19.8923 203.846 20.2226 203.574 20.5935V26.3117C203.575 26.3729 203.554 26.4325 203.516 26.4798C203.465 26.5364 203.399 26.5773 203.327 26.598C203.209 26.6362 203.088 26.6605 202.965 26.6708C202.815 26.6859 202.625 26.6935 202.396 26.6935C202.166 26.6935 201.977 26.6859 201.827 26.6708C201.704 26.6606 201.582 26.6362 201.465 26.598C201.392 26.5773 201.327 26.5364 201.275 26.4798C201.238 26.4323 201.217 26.3729 201.218 26.3117V17.7162C201.217 17.6564 201.234 17.5977 201.266 17.548C201.309 17.4905 201.367 17.4476 201.434 17.4253C201.535 17.388 201.64 17.3636 201.747 17.3526C201.907 17.3353 202.067 17.3277 202.228 17.3298C202.393 17.3277 202.558 17.3353 202.722 17.3526C202.826 17.3622 202.929 17.3866 203.027 17.4253C203.089 17.45 203.142 17.4926 203.181 17.548C203.213 17.5977 203.23 17.6564 203.23 17.7162V18.7071C203.631 18.2424 204.107 17.8519 204.637 17.5526C205.096 17.3001 205.608 17.1674 206.128 17.1662C206.622 17.1516 207.112 17.251 207.562 17.4571C207.935 17.6359 208.259 17.9059 208.507 18.2435C208.754 18.5896 208.932 18.9839 209.027 19.4026C209.142 19.9275 209.195 20.4646 209.186 21.0026L209.19 26.3117Z" fill="#005CAA"/>
<path d="M216.259 25.4434C216.264 25.6614 216.246 25.8793 216.206 26.0934C216.187 26.2096 216.14 26.319 216.069 26.4116C215.998 26.4827 215.914 26.5383 215.822 26.5752C215.698 26.6293 215.57 26.6719 215.438 26.7025C215.281 26.7396 215.122 26.7669 214.962 26.7843C214.789 26.8031 214.615 26.8122 214.441 26.8116C214.03 26.8202 213.62 26.7588 213.228 26.6298C212.902 26.5194 212.609 26.3254 212.376 26.0661C212.141 25.7907 211.972 25.4622 211.882 25.107C211.769 24.6621 211.716 24.2033 211.723 23.7434V19.357H210.722C210.602 19.357 210.514 19.2798 210.452 19.1298C210.377 18.8861 210.346 18.6304 210.36 18.3752C210.358 18.2234 210.366 18.0716 210.382 17.9207C210.391 17.8163 210.415 17.7138 210.452 17.6161C210.475 17.5528 210.515 17.4976 210.567 17.457C210.615 17.4237 210.672 17.4063 210.73 17.407H211.723V15.4752C211.723 15.4134 211.742 15.3531 211.776 15.3025C211.824 15.2407 211.888 15.1948 211.961 15.1707C212.08 15.1293 212.203 15.1033 212.328 15.0934C212.481 15.0783 212.669 15.0707 212.892 15.0707C213.116 15.0707 213.307 15.0783 213.466 15.0934C213.589 15.1029 213.711 15.1289 213.828 15.1707C213.9 15.1974 213.963 15.2428 214.013 15.3025C214.05 15.3519 214.07 15.4127 214.07 15.4752V17.3934H215.884C215.942 17.3929 215.999 17.4104 216.047 17.4434C216.099 17.4841 216.139 17.5393 216.162 17.6025C216.199 17.7002 216.223 17.8027 216.232 17.907C216.248 18.058 216.256 18.2098 216.254 18.3616C216.268 18.6168 216.237 18.8725 216.162 19.1161C216.1 19.2661 216.007 19.3434 215.893 19.3434H214.07V23.3798C214.048 23.745 214.122 24.1097 214.287 24.4343C214.373 24.5574 214.49 24.6546 214.625 24.7161C214.759 24.7776 214.908 24.8011 215.054 24.7843C215.167 24.7861 215.279 24.7755 215.39 24.7525C215.479 24.7327 215.568 24.7069 215.654 24.6752L215.853 24.598C215.899 24.5778 215.948 24.567 215.999 24.5661C216.036 24.5662 216.073 24.5773 216.104 24.598C216.146 24.6321 216.174 24.6805 216.184 24.7343C216.207 24.8239 216.225 24.915 216.237 25.007C216.253 25.1518 216.261 25.2976 216.259 25.4434Z" fill="#005CAA"/>
</g>
<defs>
<clipPath id="clip0">
<rect width="217" height="30" fill="white" transform="translate(0 0.443359)"/>
</clipPath>
</defs>
</svg>
