<svg width="103" height="31" viewBox="0 0 103 31" fill="none" xmlns="http://www.w3.org/2000/svg">
<g clip-path="url(#clip0)">
<path fill-rule="evenodd" clip-rule="evenodd" d="M0 10.8979L8.70487 21.807L0 28.9889V10.8979Z" fill="#F15A23"/>
<path fill-rule="evenodd" clip-rule="evenodd" d="M3.50916 28.9888L10.0264 23.5343L14.5384 28.9888H3.50916Z" fill="#F15A23"/>
<path fill-rule="evenodd" clip-rule="evenodd" d="M0 5.03427L2.27876 7.8979L11.5761 19.4888L14.5841 17.0797C14.5841 17.0797 12.0774 14.1252 10.3912 10.8525C7.10973 4.44336 9.43407 0.443359 9.43407 0.443359H0V5.03427Z" fill="#F15A23"/>
<path fill-rule="evenodd" clip-rule="evenodd" d="M12.8979 21.3071L15.9515 18.7616C15.9515 18.7616 18.8683 22.6252 22.2864 23.5343C26.7528 24.7161 28.7126 21.8071 28.7126 21.8071V28.9889H18.9595L21.1471 27.0798C21.1471 27.0798 20.0077 27.8525 17.182 25.898C15.5413 24.7616 12.8979 21.3071 12.8979 21.3071Z" fill="#F15A23"/>
<path fill-rule="evenodd" clip-rule="evenodd" d="M13.2171 0.443359C13.2171 0.443359 12.2144 1.76154 12.9436 5.03427C13.6728 8.53427 16.6808 12.2161 16.6352 12.1252C16.6352 12.1252 16.8175 8.44336 18.9595 6.307C23.5626 1.71609 28.7582 4.44336 28.7582 4.44336V0.443359H13.2171Z" fill="#F15A23"/>
<path fill-rule="evenodd" clip-rule="evenodd" d="M28.7579 9.30701C28.7579 9.30701 25.8411 6.80701 23.3344 6.80701C20.0986 6.80701 18.3212 9.57973 18.3212 11.6252C18.3212 14.5797 19.734 16.2161 21.1468 17.6252C23.1977 19.6706 25.6588 21.8525 28.7579 20.0797C28.7579 16.7161 28.7579 9.30701 28.7579 9.30701Z" fill="#F15A23"/>
<path fill-rule="evenodd" clip-rule="evenodd" d="M61.8457 0.761597H68.682C68.682 0.761597 74.7435 9.94341 77.7515 13.7161C80.7139 17.4889 83.9497 21.8071 83.9497 21.8071C83.9497 21.8071 83.9497 9.30705 83.9497 2.80705C83.9497 1.98887 81.8077 0.761597 81.8077 0.761597H89.6922C89.6922 0.761597 87.0944 1.80705 87.0944 2.80705C87.0944 10.898 87.0944 30.4434 87.0944 30.4434C87.0944 30.4434 84.5878 29.0798 81.7621 25.8071C78.5718 22.1252 67.3148 7.30705 67.3148 7.30705C67.3148 7.30705 67.3148 21.3071 67.3148 26.5343C67.3148 27.5343 69.4568 28.9889 69.4568 28.9889H61.8002C61.8002 28.9889 63.8966 27.4889 63.8966 26.5343C63.8966 19.5343 63.8966 9.30705 63.8966 2.80705C63.9422 1.94341 61.8457 0.761597 61.8457 0.761597Z" fill="#005E6A"/>
<path fill-rule="evenodd" clip-rule="evenodd" d="M94.1586 0.761597H102.955C102.955 0.761597 100.585 1.89796 100.585 2.80705C100.585 9.30705 100.585 20.0798 100.585 26.5343C100.585 27.5798 102.955 28.9889 102.955 28.9889H94.1586C94.1586 28.9889 96.3462 27.4889 96.3462 26.5343C96.3462 18.8071 96.3462 9.30705 96.3462 2.80705C96.3462 1.89796 94.1586 0.761597 94.1586 0.761597Z" fill="#005E6A"/>
<path fill-rule="evenodd" clip-rule="evenodd" d="M35.9586 0.761597C35.9586 0.761597 38.2374 1.89796 38.2374 2.80705C38.2374 9.30705 38.2374 18.7616 38.2374 26.5343C38.2374 27.5343 35.9586 28.9889 35.9586 28.9889C35.9586 28.9889 47.3524 28.9889 48.9931 28.9889C49.8135 28.9889 58.9285 27.4889 58.9285 20.4889C58.9285 13.4889 51.8188 12.8071 51.8188 12.8071C51.8188 12.8071 56.1484 11.6252 56.1484 6.80705C56.1484 1.62523 49.8135 0.761597 48.9931 0.761597C47.3069 0.761597 35.9586 0.761597 35.9586 0.761597ZM42.8861 12.3525V3.53432C42.8861 3.53432 46.6688 3.53432 48.1728 3.53432C48.9931 3.53432 51.8188 4.48887 51.8188 7.98887C51.8188 10.898 48.9476 12.3525 48.1728 12.3525C46.3498 12.3525 42.8861 12.3525 42.8861 12.3525ZM42.8861 14.6707C42.8861 14.6707 48.1728 14.6707 48.9931 14.6707C49.8135 14.6707 54.5989 15.898 54.5989 20.0798C54.5989 24.3071 49.8135 25.8071 48.9931 25.8071C48.1728 25.8071 42.8861 25.8071 42.8861 25.8071V14.6707Z" fill="#005E6A"/>
</g>
<defs>
<clipPath id="clip0">
<rect width="103" height="30" fill="white" transform="translate(0 0.443359)"/>
</clipPath>
</defs>
</svg>
