
<svg width="82" height="31" viewBox="0 0 82 31" fill="none" xmlns="http://www.w3.org/2000/svg">
<g clip-path="url(#clip0)">
<path d="M0 20.2479V0.443385H7.97273C9.12757 0.418489 10.2826 0.48384 11.4273 0.638839C12.1922 0.755652 12.9209 1.04411 13.5585 1.48258C14.1961 1.92105 14.7262 2.49816 15.1091 3.17066C15.5286 3.89704 15.7452 4.72279 15.7364 5.56157C15.7396 6.38536 15.5326 7.19636 15.1349 7.9178C14.7372 8.63925 14.162 9.24726 13.4636 9.68429C14.3445 10.0131 15.1181 10.5776 15.7 11.3161C16.3683 12.1993 16.7205 13.2815 16.7 14.3888C16.6964 15.3183 16.4786 16.2344 16.0636 17.0661C15.6635 17.8994 15.0582 18.6173 14.3045 19.1525C13.4907 19.6967 12.5526 20.0266 11.5773 20.1116C10.9136 20.1843 9.37273 20.2297 6.85909 20.2434H0V20.2479ZM7.76364 16.457C8.63473 16.4887 9.50696 16.4537 10.3727 16.3525C10.8607 16.28 11.3079 16.0387 11.6364 15.6707C11.9667 15.2609 12.1291 14.741 12.0909 14.2161C12.1073 13.75 11.9769 13.2905 11.7182 12.9025C11.4527 12.5336 11.0746 12.2609 10.6409 12.1252C10.1409 11.9525 9.01364 11.8661 7.28182 11.8661H4.44091V16.457H7.76364ZM6.71364 8.10248C8.21364 8.10248 9.15 8.07975 9.50454 8.03884C10.0287 7.99911 10.5238 7.78278 10.9091 7.4252C11.0767 7.25261 11.2069 7.04723 11.2913 6.82196C11.3758 6.59668 11.4128 6.35637 11.4 6.11611C11.423 5.65535 11.2721 5.20276 10.9773 4.84793C10.634 4.49997 10.1743 4.29114 9.68636 4.26157C9.31818 4.22066 8.20909 4.19793 6.4 4.19793H4.44091V8.10248H6.71364Z" fill="#00529C"/>
<path d="M32.573 20.2479L29.6776 15.9388C29.0632 14.9662 28.3892 14.0326 27.6594 13.1434C27.367 12.8195 27.0027 12.5688 26.5957 12.4115C25.9882 12.2513 25.3598 12.1839 24.7321 12.2115H24.2185V20.2479H19.7821V0.443359H28.2367C30.3503 0.443359 31.8503 0.620632 32.8185 0.979723C33.8076 1.34629 34.6449 2.03466 35.1957 2.93427C35.7893 3.8881 36.0955 4.99278 36.0776 6.11609C36.1192 7.49856 35.6314 8.84476 34.7139 9.87972C33.8349 10.7896 32.6912 11.3988 31.4457 11.6206C32.0042 11.989 32.5196 12.419 32.9821 12.9025C33.8202 13.8969 34.5715 14.9614 35.2276 16.0843L37.8412 20.257L32.573 20.2479ZM26.8185 8.58881C29.0912 8.58881 29.9276 8.46609 30.2276 8.36609C30.6146 8.24249 30.949 7.99285 31.1776 7.657C31.424 7.26797 31.5446 6.81247 31.523 6.35245C31.5504 5.84834 31.3883 5.35221 31.0685 4.96154C30.727 4.59137 30.2642 4.35591 29.7639 4.2979C29.5639 4.27063 28.9094 4.23427 26.973 4.23427H24.2185V8.57518L26.8185 8.58881Z" fill="#00529C"/>
<path d="M43.8635 0.443359H39.4271V20.2479H43.8635V0.443359Z" fill="#00529C"/>
<path d="M52.3636 20.2479L45.2817 0.443359H50.0863L54.759 14.1115L59.2817 0.443359H63.9954L56.8999 20.2479H52.3636Z" fill="#00529C"/>
<path d="M76.8861 20.2479L75.2088 15.8979H67.8906L66.2997 20.2706H61.5815L69.2952 0.443359H73.7815L81.7134 20.2479H76.8861ZM73.7543 12.0661L71.4815 5.99336L69.2861 12.0797L73.7543 12.0661Z" fill="#00529C"/>
<path d="M0.0316162 23.1706H2.90434C3.32981 23.1632 3.75523 23.1875 4.17707 23.2434C4.44559 23.2861 4.70155 23.3869 4.92707 23.5388C5.15277 23.6954 5.34068 23.9004 5.47707 24.1388C5.62733 24.3933 5.70441 24.6843 5.6998 24.9797C5.70035 25.3093 5.60533 25.632 5.42623 25.9088C5.24713 26.1855 4.99164 26.4043 4.69071 26.5388C5.08935 26.6414 5.44364 26.8712 5.6998 27.1934C5.93426 27.5046 6.0575 27.8856 6.0498 28.2752C6.05031 28.6068 5.97244 28.9339 5.82253 29.2297C5.68187 29.526 5.46743 29.7811 5.1998 29.9706C4.90857 30.1626 4.57444 30.2797 4.22707 30.3115C3.98616 30.3115 3.40434 30.3524 2.47707 30.357H0.0316162V23.1706ZM1.48162 24.3524V26.0115H2.43162C2.9998 26.0115 3.34071 26.0115 3.48616 26.0115C3.71449 25.9914 3.92848 25.8917 4.09071 25.7297C4.16235 25.6559 4.21823 25.5682 4.25495 25.4721C4.29168 25.376 4.30848 25.2734 4.30434 25.1706C4.30466 24.9683 4.22832 24.7734 4.09071 24.6252C3.94519 24.4759 3.74889 24.3866 3.54071 24.3752C3.3998 24.3752 2.98616 24.3752 2.30434 24.3752L1.48162 24.3524ZM1.48162 27.207V29.1297H2.84525C3.17182 29.1389 3.4986 29.1222 3.82253 29.0797C4.02648 29.0492 4.21316 28.9478 4.3498 28.7934C4.48979 28.6171 4.55943 28.3952 4.54525 28.1706C4.5526 27.9756 4.49854 27.7833 4.39071 27.6206C4.27902 27.4648 4.11937 27.3499 3.93616 27.2934C3.51384 27.2021 3.08132 27.167 2.6498 27.1888L1.48162 27.207Z" fill="#F27024"/>
<path d="M6.90894 30.3388V23.1706H9.96348C10.5279 23.1452 11.0928 23.2112 11.6362 23.366C11.9844 23.494 12.2791 23.7359 12.4726 24.0524C12.6844 24.393 12.7933 24.7877 12.7862 25.1888C12.8084 25.6742 12.646 26.15 12.3317 26.5206C11.9493 26.8987 11.4451 27.1291 10.9089 27.1706C11.1959 27.3316 11.4577 27.5338 11.6862 27.7706C11.9946 28.1358 12.2714 28.5266 12.5135 28.9388L13.3908 30.3388H11.6362L10.5862 28.7751C10.3545 28.4062 10.0994 28.0524 9.82257 27.716C9.69835 27.5798 9.54212 27.4767 9.36803 27.416C9.1296 27.3523 8.88268 27.3262 8.63621 27.3388H8.36348V30.3388H6.90894ZM8.36348 26.1933H9.43621C9.87294 26.2155 10.3108 26.1865 10.7408 26.1069C10.9055 26.0528 11.0477 25.9457 11.1453 25.8024C11.2495 25.6419 11.3004 25.4526 11.2908 25.2615C11.3002 25.0494 11.2323 24.841 11.0998 24.6751C10.9562 24.5208 10.7634 24.4211 10.5544 24.3933C10.4362 24.3933 10.0998 24.3933 9.4953 24.3933H8.36348V26.1933Z" fill="#F27024"/>
<path d="M13.7406 30.3388V23.1707H15.1906V30.3388H13.7406Z" fill="#F27024"/>
<path d="M22.5318 29.0797L22.6727 29.5797H22.7272L22.8682 29.0797L25.0182 23.1707H25.65L22.9909 30.307H22.4091L19.7545 23.1707H20.3909L22.5318 29.0797Z" fill="#00529C"/>
<path d="M26.818 23.5161H26.2452V22.7161H26.818V23.5161ZM26.818 30.3342H26.2452V25.0342H26.818V30.3342Z" fill="#00529C"/>
<path d="M30.4996 25.5433L30.0815 25.5115C29.7499 25.4992 29.4258 25.611 29.1724 25.8252C28.9223 26.0529 28.7465 26.3507 28.6678 26.6797V30.3161H28.0769V25.0342H28.5951L28.6678 25.9206V25.9797C28.8041 25.6746 29.0171 25.4099 29.286 25.2115C29.5529 25.0275 29.871 24.9321 30.1951 24.9388C30.2646 24.9319 30.3347 24.9319 30.4042 24.9388C30.4582 24.9461 30.5114 24.9583 30.5633 24.9752L30.4996 25.5433Z" fill="#00529C"/>
<path d="M32.1316 23.6797V25.0434H33.2997V25.5252H32.1316V28.9797C32.1065 29.2415 32.1741 29.5037 32.3225 29.7207C32.3849 29.7924 32.4627 29.8493 32.55 29.887C32.6373 29.9248 32.732 29.9425 32.827 29.9388C32.8951 29.9435 32.9635 29.9435 33.0316 29.9388L33.2725 29.8979L33.3588 30.3525C33.2668 30.3978 33.1689 30.4299 33.0679 30.4479C32.9544 30.4571 32.8403 30.4556 32.727 30.4434C32.5644 30.4523 32.4018 30.4251 32.251 30.3638C32.1001 30.3025 31.9646 30.2086 31.8543 30.0888C31.6208 29.7651 31.5111 29.3684 31.5452 28.9707V25.5161H30.6361V25.0343H31.5452V23.6707L32.1316 23.6797Z" fill="#00529C"/>
<path d="M37.5455 29.4798C37.3884 29.776 37.1524 30.0229 36.8637 30.1934C36.5529 30.3668 36.2012 30.4532 35.8455 30.4434C35.5999 30.453 35.3554 30.4068 35.1303 30.3084C34.9051 30.21 34.7052 30.0619 34.5455 29.8752C34.1963 29.3568 34.0359 28.7342 34.0909 28.1116V25.0343H34.6818V28.1207C34.6308 28.614 34.7426 29.1104 35 29.5343C35.1109 29.6745 35.2539 29.786 35.4168 29.8596C35.5797 29.9331 35.7579 29.9665 35.9364 29.957C36.3121 29.9755 36.6836 29.8719 36.9955 29.6616C37.2622 29.4563 37.4564 29.1712 37.55 28.8479V25.0343H38.1364V30.3388H37.5955L37.5455 29.4798Z" fill="#00529C"/>
<path d="M42.6496 30.3388C42.6132 30.154 42.586 30.0025 42.5678 29.8843C42.551 29.7471 42.5434 29.6089 42.5451 29.4707C42.3498 29.7682 42.0845 30.0133 41.7723 30.1843C41.4247 30.3759 41.0329 30.473 40.636 30.4661C40.4171 30.48 40.1977 30.4506 39.9902 30.3797C39.7828 30.3087 39.5913 30.1975 39.4269 30.0525C39.2811 29.9047 39.1678 29.7281 39.0942 29.5339C39.0206 29.3398 38.9884 29.1325 38.9996 28.9252C38.9987 28.6967 39.0553 28.4716 39.1641 28.2707C39.2729 28.0697 39.4305 27.8994 39.6223 27.7752C40.1004 27.4571 40.6667 27.298 41.2405 27.3207H42.5451V26.6525C42.5557 26.4835 42.5286 26.3142 42.4657 26.1569C42.4028 25.9997 42.3057 25.8584 42.1814 25.7434C41.8909 25.5207 41.5281 25.4138 41.1632 25.4434C40.8145 25.426 40.4707 25.5305 40.1905 25.7388C40.0755 25.824 39.9823 25.935 39.9183 26.063C39.8543 26.1909 39.8214 26.3322 39.8223 26.4752H39.2769V26.4479C39.27 26.2442 39.3133 26.042 39.4029 25.8589C39.4924 25.6759 39.6255 25.5176 39.7905 25.3979C40.2011 25.1051 40.693 24.9476 41.1973 24.9476C41.7017 24.9476 42.1935 25.1051 42.6042 25.3979C42.7849 25.5567 42.9269 25.7548 43.0191 25.977C43.1113 26.1992 43.1513 26.4396 43.136 26.6797V29.2843C43.135 29.4666 43.1456 29.6488 43.1678 29.8297C43.189 30.0064 43.224 30.1812 43.2723 30.3525L42.6496 30.3388ZM40.6996 29.9252C41.1137 29.9346 41.5214 29.8224 41.8723 29.6025C42.1831 29.4101 42.4201 29.1187 42.5451 28.7752V27.7616H41.236C40.8155 27.7444 40.4009 27.864 40.0541 28.1025C39.9162 28.1913 39.8025 28.3129 39.7231 28.4565C39.6438 28.6001 39.6013 28.7612 39.5996 28.9252C39.5942 29.0598 39.6179 29.194 39.6688 29.3187C39.7198 29.4433 39.7969 29.5556 39.8951 29.6479C40.1179 29.8398 40.4058 29.9391 40.6996 29.9252Z" fill="#00529C"/>
<path d="M44.9998 30.3388H44.3907V22.7161H44.9998V30.3388Z" fill="#00529C"/>
<path d="M52.1682 28.3524H49.0364L48.3182 30.3388H47.7273L50.35 23.2024H50.9091L53.5091 30.3388H52.9046L52.1682 28.3524ZM49.2227 27.8251H51.9773L50.6137 24.0433H50.5864L49.2227 27.8251Z" fill="#00529C"/>
<path d="M56.0225 29.9479C56.3838 29.9537 56.7363 29.8367 57.0225 29.6161C57.1652 29.5117 57.281 29.3748 57.36 29.2167C57.4391 29.0585 57.4792 28.8838 57.477 28.707H57.9998V28.7343C58.0072 28.971 57.9584 29.2061 57.8573 29.4203C57.7561 29.6344 57.6055 29.8215 57.4179 29.9661C57.0371 30.2887 56.5534 30.4644 56.0543 30.4615C55.74 30.4762 55.4266 30.4163 55.1399 30.2867C54.8531 30.1572 54.6011 29.9616 54.4043 29.7161C53.9949 29.1677 53.7863 28.4953 53.8134 27.8115V27.6024C53.7848 26.9198 53.9936 26.2484 54.4043 25.7024C54.5999 25.4567 54.8511 25.2609 55.1372 25.1313C55.4232 25.0017 55.736 24.942 56.0498 24.957C56.5576 24.9415 57.0531 25.1148 57.4407 25.4433C57.6283 25.6152 57.7751 25.8268 57.8703 26.0628C57.9654 26.2988 58.0066 26.553 57.9907 26.807V26.8343H57.4543C57.4621 26.6444 57.4288 26.4552 57.3566 26.2794C57.2844 26.1037 57.1751 25.9456 57.0361 25.8161C56.7574 25.5648 56.3931 25.4298 56.0179 25.4388C55.7755 25.4238 55.5334 25.4726 55.3157 25.5803C55.098 25.6879 54.9123 25.8507 54.777 26.0524C54.492 26.5111 54.3511 27.0447 54.3725 27.5843V27.7933C54.35 28.3373 54.4909 28.8756 54.777 29.3388C54.9139 29.5397 55.1007 29.7015 55.3191 29.8083C55.5374 29.9151 55.7799 29.9632 56.0225 29.9479Z" fill="#00529C"/>
<path d="M60.8179 29.9479C61.1792 29.9537 61.5318 29.8367 61.8179 29.6161C61.9565 29.5093 62.0678 29.3713 62.1429 29.2133C62.2179 29.0553 62.2545 28.8818 62.2497 28.707H62.7725V28.7343C62.78 28.971 62.7311 29.2061 62.63 29.4203C62.5288 29.6344 62.3782 29.8215 62.1906 29.9661C61.8098 30.2887 61.3261 30.4644 60.827 30.4615C60.5127 30.4762 60.1993 30.4163 59.9126 30.2867C59.6258 30.1572 59.3738 29.9616 59.177 29.7161C58.7676 29.1677 58.559 28.4953 58.5861 27.8115V27.6024C58.5575 26.9198 58.7663 26.2484 59.177 25.7024C59.3726 25.4567 59.6238 25.2609 59.9099 25.1313C60.1959 25.0017 60.5087 24.942 60.8225 24.957C61.338 24.9358 61.8427 25.1095 62.2361 25.4433C62.4237 25.6152 62.5705 25.8268 62.6657 26.0628C62.7609 26.2988 62.802 26.553 62.7861 26.807V26.8343H62.2725C62.2802 26.6444 62.2469 26.4552 62.1747 26.2794C62.1025 26.1037 61.9932 25.9456 61.8543 25.8161C61.5756 25.5648 61.2112 25.4298 60.8361 25.4388C60.5937 25.4238 60.3516 25.4726 60.1339 25.5803C59.9162 25.6879 59.7304 25.8507 59.5952 26.0524C59.3102 26.5111 59.1693 27.0447 59.1906 27.5843V27.7933C59.1682 28.3373 59.3091 28.8756 59.5952 29.3388C59.73 29.5363 59.9132 29.696 60.1272 29.8026C60.3413 29.9092 60.5791 29.9592 60.8179 29.9479Z" fill="#00529C"/>
<path d="M63.3454 27.6116C63.3167 26.9138 63.5447 26.2298 63.9863 25.6888C64.2027 25.4528 64.4657 25.2644 64.7587 25.1354C65.0518 25.0065 65.3685 24.9399 65.6886 24.9399C66.0088 24.9399 66.3254 25.0065 66.6185 25.1354C66.9115 25.2644 67.1746 25.4528 67.3909 25.6888C67.8356 26.2283 68.0655 26.913 68.0363 27.6116V27.7707C68.0658 28.4699 67.8377 29.1556 67.3954 29.6979C67.178 29.9329 66.9143 30.1203 66.621 30.2485C66.3276 30.3767 66.011 30.4428 65.6909 30.4428C65.3708 30.4428 65.0541 30.3767 64.7608 30.2485C64.4675 30.1203 64.2038 29.9329 63.9863 29.6979C63.544 29.1556 63.316 28.4699 63.3454 27.7707V27.6116ZM63.9318 27.7707C63.9086 28.3233 64.0684 28.8681 64.3863 29.3207C64.5399 29.5163 64.7358 29.6745 64.9595 29.7833C65.1831 29.8921 65.4286 29.9486 65.6772 29.9486C65.9259 29.9486 66.1714 29.8921 66.395 29.7833C66.6186 29.6745 66.8146 29.5163 66.9682 29.3207C67.2861 28.8681 67.4458 28.3233 67.4227 27.7707V27.6116C67.4438 27.062 67.2841 26.5208 66.9682 26.0707C66.822 25.8694 66.6287 25.7069 66.4053 25.5976C66.1818 25.4882 65.935 25.4353 65.6863 25.4434C65.4362 25.433 65.1875 25.4854 64.9628 25.5957C64.7381 25.7061 64.5446 25.8709 64.4 26.0752C64.084 26.5253 63.9243 27.0666 63.9454 27.6161L63.9318 27.7707Z" fill="#00529C"/>
<path d="M72.359 29.4798C72.2019 29.776 71.9659 30.0229 71.6772 30.1934C71.3665 30.3668 71.0147 30.4532 70.659 30.4434C70.4113 30.4551 70.1641 30.41 69.9364 30.3115C69.7087 30.213 69.5066 30.0638 69.3454 29.8752C68.9883 29.3597 68.8197 28.7368 68.8681 28.1116V25.0343H69.459V28.1207C69.4171 28.6079 69.5335 29.0957 69.7909 29.5116C69.9018 29.6518 70.0447 29.7633 70.2076 29.8368C70.3705 29.9104 70.5487 29.9438 70.7272 29.9343C71.1016 29.9535 71.4719 29.8497 71.7818 29.6388C72.0499 29.434 72.2458 29.149 72.3409 28.8252V25.0343H72.9272V30.3388H72.409L72.359 29.4798Z" fill="#00529C"/>
<path d="M74.6272 25.0342L74.6817 25.9433C74.8399 25.6274 75.0855 25.3635 75.3893 25.183C75.693 25.0025 76.0422 24.913 76.3954 24.9251C76.6438 24.9083 76.8929 24.9483 77.1236 25.042C77.3544 25.1357 77.5608 25.2807 77.7272 25.466C78.0674 25.944 78.2283 26.5266 78.1817 27.1115V30.3388H77.5954V27.116C77.64 26.6588 77.519 26.2007 77.2544 25.8251C77.1299 25.696 76.9789 25.5954 76.8117 25.5303C76.6446 25.4651 76.4653 25.437 76.2863 25.4479C75.9229 25.4317 75.5651 25.5408 75.2726 25.757C75.0106 25.9723 74.8177 26.26 74.7181 26.5842V30.3388H74.0908V25.0342H74.6272Z" fill="#00529C"/>
<path d="M80.2405 23.6797V25.0434H81.4041V25.5252H80.2405V28.9797C80.2168 29.2407 80.2825 29.502 80.4269 29.7207C80.4893 29.7924 80.5671 29.8493 80.6544 29.887C80.7417 29.9248 80.8364 29.9425 80.9314 29.9388C81.001 29.9435 81.0709 29.9435 81.1405 29.9388L81.3769 29.8979L81.4632 30.3525C81.3715 30.3985 81.2735 30.4306 81.1723 30.4479C81.0586 30.4713 80.9429 30.4834 80.8269 30.4843C80.6649 30.4938 80.5028 30.4669 80.3526 30.4055C80.2023 30.3442 80.0677 30.2499 79.9587 30.1297C79.7217 29.8075 79.6102 29.41 79.6451 29.0116V25.557H78.736V25.0343H79.6451V23.6707L80.2405 23.6797Z" fill="#00529C"/>
</g>
<defs>
<clipPath id="clip0">
<rect width="81.8864" height="30" fill="white" transform="translate(0 0.443359)"/>
</clipPath>
</defs>
</svg>
