<svg width="169" height="27" viewBox="0 0 169 27" fill="none" xmlns="http://www.w3.org/2000/svg">
<g clip-path="url(#clip0)">
<path d="M49.1838 21.4837C47.9731 22.0002 46.6626 22.2541 45.3423 22.2282C44.0935 22.2407 42.8533 22.0242 41.6858 21.59C40.5982 21.1914 39.6066 20.5769 38.7732 19.7851C37.9397 18.9933 37.2824 18.0413 36.8426 16.9888C36.3652 15.8481 36.1272 14.6249 36.1427 13.3921C36.1246 12.144 36.3669 10.9054 36.8547 9.75215C37.3025 8.69946 37.9729 7.75159 38.8217 6.97093C39.6744 6.19675 40.677 5.59796 41.7702 5.21003C44.0988 4.38263 46.6501 4.38263 48.9787 5.21003C50.0677 5.57671 51.0446 6.20679 51.8186 7.04184L49.0028 9.79942C48.617 9.28036 48.0902 8.87773 47.4823 8.6373C46.8701 8.38243 46.2126 8.24855 45.5474 8.24336C44.8561 8.23399 44.1706 8.36825 43.5361 8.6373C42.9479 8.89004 42.4183 9.25728 41.9794 9.71669C41.5369 10.1865 41.1926 10.7365 40.9657 11.3358C40.7173 11.9897 40.5933 12.6826 40.5997 13.3803C40.5928 14.0909 40.7168 14.7968 40.9657 15.4643C41.1876 16.0632 41.528 16.6134 41.9673 17.0834C42.3975 17.5351 42.9196 17.8934 43.4999 18.1352C44.1168 18.3972 44.7825 18.5314 45.4549 18.5291C46.201 18.5466 46.94 18.3843 47.607 18.0564C48.1895 17.7656 48.6938 17.3445 49.0792 16.8273L51.9554 19.4785C51.188 20.3327 50.243 21.0164 49.1838 21.4837Z" fill="#76111C"/>
<path d="M53.5001 21.7791V5.03271H57.6554V21.7791H53.5001Z" fill="#76111C"/>
<path d="M76.4048 21.7791L76.5014 9.92938H76.429L72.0041 21.7791H69.1039L64.7635 9.92938H64.6911L64.7876 21.7791H60.8978V5.03271H66.7748L70.6686 15.7715H70.7652L74.4901 5.03271H80.4515V21.7791H76.4048Z" fill="#76111C"/>
<path d="M97.0322 16.906C97.0594 17.7101 96.8678 18.5068 96.4771 19.2145C96.1181 19.8245 95.6128 20.3397 95.0048 20.7154C94.3622 21.1061 93.654 21.3822 92.9131 21.5309C92.12 21.6981 91.3108 21.7813 90.4996 21.7791H83.7014V5.03271H90.5076C91.1831 5.03592 91.8567 5.1032 92.5189 5.23362C93.1825 5.35708 93.8202 5.58879 94.4055 5.91908C94.9664 6.23992 95.4387 6.69028 95.7812 7.2309C96.1585 7.86997 96.3426 8.60087 96.3122 9.33847C96.345 10.1725 96.071 10.9903 95.5398 11.643C95.0109 12.2592 94.313 12.7144 93.5285 12.9548V13.0021C94.0049 13.0792 94.4663 13.2281 94.8962 13.4433C95.7392 13.8573 96.3998 14.5574 96.7546 15.413C96.9464 15.888 97.0407 16.3953 97.0322 16.906ZM92.3459 9.89787C92.3624 9.65073 92.3092 9.40391 92.1922 9.18437C92.0751 8.96483 91.8987 8.78102 91.6822 8.65302C91.073 8.3554 90.3947 8.21956 89.7152 8.25908H87.6918V11.7139H89.9163C90.5518 11.7478 91.1817 11.5822 91.7144 11.2412C91.9238 11.085 92.0909 10.8808 92.2011 10.6466C92.3112 10.4124 92.3609 10.1553 92.3459 9.89787ZM92.9211 16.5279C92.9479 16.2365 92.8857 15.944 92.7424 15.6873C92.5992 15.4306 92.3814 15.2214 92.1166 15.086C91.4499 14.7936 90.7224 14.6587 89.9927 14.6921H87.6918V18.5212H90.0128C90.3484 18.5201 90.6834 18.4924 91.0144 18.4385C91.3421 18.3891 91.6598 18.2894 91.9557 18.143C92.2622 17.9981 92.5177 17.7671 92.6897 17.4795C92.8616 17.1918 92.9422 16.8605 92.9211 16.5279Z" fill="#76111C"/>
<path d="M105.793 5.03271H110.89C111.547 5.03407 112.202 5.10139 112.845 5.23362C113.475 5.35552 114.077 5.58773 114.623 5.91908C115.152 6.24813 115.591 6.69838 115.902 7.2309C116.254 7.87003 116.424 8.58944 116.397 9.31484C116.413 10.155 116.12 10.9728 115.572 11.6194C115.006 12.2827 114.225 12.7371 113.36 12.9076V12.9548C114.399 13.0553 115.37 13.5065 116.107 14.2312C116.482 14.6196 116.773 15.0787 116.961 15.5805C117.149 16.0824 117.231 16.6165 117.201 17.1503C117.212 17.8069 117.063 18.4565 116.765 19.0451C116.468 19.6337 116.031 20.1442 115.492 20.5342C114.886 20.9637 114.204 21.2802 113.481 21.4679C112.617 21.6985 111.725 21.8099 110.83 21.7988H105.793V5.03271ZM107.531 12.3639H111.023C111.449 12.363 111.874 12.3155 112.29 12.2221C112.707 12.1315 113.104 11.9673 113.46 11.7376C113.818 11.5066 114.113 11.1944 114.321 10.8276C114.551 10.398 114.663 9.91762 114.647 9.43302C114.662 8.95855 114.55 8.48848 114.321 8.06999C114.105 7.70177 113.801 7.38972 113.436 7.15999C113.038 6.91246 112.596 6.74011 112.133 6.65181C111.604 6.54581 111.064 6.49432 110.524 6.49817H107.503L107.531 12.3639ZM107.531 20.3136H110.769C111.368 20.3162 111.965 20.2581 112.551 20.1403C113.081 20.0376 113.589 19.8457 114.052 19.573C114.471 19.3213 114.822 18.9756 115.078 18.5645C115.351 18.1103 115.49 17.5907 115.48 17.0636C115.513 16.5911 115.426 16.1178 115.226 15.6866C115.026 15.2553 114.719 14.8797 114.333 14.5936C113.565 14.046 112.483 13.7782 111.083 13.7782H107.531V20.3136Z" fill="#76111C"/>
<path d="M120.753 21.7791H118.842L126.236 5.03271H127.917L135.263 21.7791H133.328L131.453 17.3827H122.604L120.753 21.7791ZM123.263 15.807H130.801L127.032 6.92362L123.263 15.807Z" fill="#76111C"/>
<path d="M149.639 19.2973H149.688V5.03271H151.429V21.7791H149.237L139.301 7.37272H139.253V21.7791H137.515V5.03271H139.687L149.639 19.2973Z" fill="#76111C"/>
<path d="M157.443 12.553H157.467L165.605 5.03271H168.095L159.47 12.6239L168.578 21.7791H166.015L157.467 12.8603H157.443V21.7791H155.705V5.03271H157.443V12.553Z" fill="#76111C"/>
<path d="M28.5362 0.443359H0.088623V26.3685H28.5362V0.443359Z" fill="#76111C"/>
<path d="M25.4347 13.4039H10.5754L3.18591 5.07605H18.0453L25.4347 13.4039Z" fill="white"/>
<path d="M25.4347 13.4039H10.5754L3.18591 21.7357H18.0453L25.4347 13.4039Z" fill="#EB2428"/>
</g>
<defs>
<clipPath id="clip0">
<rect width="169" height="26" fill="white" transform="translate(0 0.443359)"/>
</clipPath>
</defs>
</svg>
