<?xml version="1.0" standalone="no"?>
<!DOCTYPE svg PUBLIC "-//W3C//DTD SVG 20010904//EN"
 "http://www.w3.org/TR/2001/REC-SVG-20010904/DTD/svg10.dtd">
<svg version="1.0" xmlns="http://www.w3.org/2000/svg"
 width="660.000000pt" height="120.000000pt" viewBox="0 0 660.000000 120.000000"
 preserveAspectRatio="xMidYMid meet">
<metadata>
Created by potrace 1.10, written by Peter Selinger 2001-2011
</metadata>
<g transform="translate(0.000000,120.000000) scale(0.100000,-0.100000)"
fill="#000000" stroke="none">
<path d="M840 1140 c-6 -11 -36 -31 -68 -45 -31 -15 -64 -30 -72 -34 -21 -11
-25 -74 -6 -91 9 -7 16 -18 16 -24 1 -22 38 -54 66 -58 l29 -3 -4 -78 c-3 -63
0 -82 14 -97 16 -17 16 -19 -4 -29 -11 -6 -31 -11 -45 -11 -32 0 -56 -10 -56
-23 0 -27 46 -106 62 -107 22 0 53 -56 37 -66 -6 -3 -9 -29 -7 -63 l3 -56 -55
-3 c-66 -3 -83 -20 -74 -72 11 -57 55 -104 113 -120 55 -15 59 -20 36 -44 -23
-23 -18 -36 15 -36 21 0 34 8 47 28 30 47 42 51 124 45 48 -4 89 -1 112 6 33
11 37 16 37 46 0 20 6 38 16 43 9 5 18 31 23 66 7 49 5 58 -10 67 -14 7 -24 3
-44 -17 -24 -24 -25 -27 -11 -50 9 -13 16 -31 16 -41 -1 -17 -1 -17 -14 -1
-13 18 -69 20 -94 5 -21 -14 -254 -13 -279 1 -13 7 -23 17 -23 22 0 16 112 23
209 12 98 -10 121 -5 121 24 0 11 -18 14 -74 14 l-74 0 -4 70 c-3 64 -1 73 21
92 21 18 25 19 33 4 13 -23 71 -22 66 2 -2 9 -13 18 -26 20 -35 5 -26 20 16
24 32 3 37 7 40 30 2 14 10 32 18 38 17 15 18 52 2 68 -18 18 -43 15 -63 -8
-40 -44 -107 -12 -110 53 -1 17 -5 53 -10 80 -12 75 -4 79 135 71 l117 -7 6
29 c2 16 10 43 17 60 18 43 9 60 -50 88 -47 23 -56 24 -117 14 -60 -9 -68 -8
-80 8 -7 10 -13 25 -13 34 0 40 -61 55 -80 20z m253 -107 c26 -15 -27 -26
-151 -30 -104 -3 -142 -1 -147 8 -5 7 0 18 11 26 15 12 44 13 149 8 72 -4 134
-10 138 -12z"/>
<path d="M1380 1120 c-15 -23 -36 -43 -50 -46 -47 -12 -52 -23 -45 -88 9 -77
18 -94 52 -98 25 -3 28 -7 31 -48 2 -24 8 -48 15 -52 8 -5 7 -10 -1 -21 -12
-14 -10 -179 4 -275 3 -23 1 -55 -4 -70 -7 -17 -8 -75 -4 -165 6 -122 5 -142
-11 -173 -10 -20 -16 -42 -13 -50 7 -18 40 -18 56 1 7 8 18 15 24 15 7 0 22
11 35 23 24 26 24 42 2 287 -13 140 -13 267 -1 275 12 7 13 49 2 73 -5 9 -19
36 -31 60 -23 44 -21 82 4 82 8 0 17 -12 20 -27 4 -16 10 -36 16 -45 5 -10 9
-28 9 -40 0 -12 7 -30 17 -40 18 -20 20 -101 3 -106 -16 -6 -12 -39 6 -46 12
-5 15 -14 10 -39 -8 -42 6 -66 28 -48 14 12 16 10 16 -17 0 -17 5 -34 11 -37
7 -5 4 -13 -7 -26 -16 -17 -16 -20 0 -44 14 -22 15 -32 7 -57 -15 -42 -14 -46
9 -53 22 -7 42 -64 29 -80 -5 -5 -9 -24 -9 -41 0 -24 5 -34 20 -39 23 -7 40 1
40 19 0 8 7 19 15 26 8 7 15 19 15 27 0 8 11 29 25 47 28 37 31 76 15 215 -8
70 -10 138 -9 316 0 11 -1 55 -4 98 -2 42 0 77 4 77 16 0 28 71 17 96 -9 19
-8 41 1 89 15 73 11 85 -27 85 -20 0 -40 -13 -70 -45 -47 -50 -46 -40 -22
-220 5 -44 14 -125 19 -180 5 -55 12 -135 16 -179 7 -73 7 -78 -11 -74 -16 3
-19 11 -16 46 2 31 -1 42 -12 42 -17 0 -26 21 -26 63 -1 18 -7 43 -15 57 -8
14 -14 43 -15 65 0 22 -7 63 -16 90 -9 28 -16 60 -15 73 0 13 -5 35 -13 50 -9
18 -12 44 -9 75 5 43 4 47 -16 47 -15 0 -21 -6 -21 -23 0 -13 -5 -28 -12 -35
-18 -18 -68 -15 -75 4 -7 18 15 36 35 29 25 -9 42 7 42 42 0 81 -50 99 -90 33z
m310 -395 c0 -19 -4 -35 -10 -35 -5 0 -10 16 -10 35 0 19 5 35 10 35 6 0 10
-16 10 -35z"/>
<path d="M2595 1131 c-9 -19 -26 -33 -43 -37 -62 -14 -90 -26 -111 -48 -23
-24 -23 -24 -3 -35 14 -7 18 -17 15 -32 -6 -20 13 -67 32 -81 5 -4 22 -8 36
-8 36 0 48 -31 47 -118 -1 -57 3 -75 16 -85 14 -10 16 -25 14 -77 -3 -70 -18
-82 -31 -28 -10 41 -11 57 -2 84 5 17 2 23 -19 28 -27 7 -96 -16 -96 -32 0
-11 47 -101 63 -120 6 -7 20 -11 32 -8 l22 6 -2 -234 c-1 -173 -5 -238 -14
-250 -20 -24 -4 -56 28 -56 20 0 31 7 39 24 6 14 25 35 41 47 29 21 30 26 26
73 -12 111 -12 367 0 382 11 16 74 22 94 10 5 -4 7 -36 4 -80 -5 -65 -3 -78
15 -101 22 -27 20 -55 -4 -55 -25 0 -15 -37 22 -82 61 -73 77 -75 134 -17 39
39 41 45 38 93 l-3 51 -44 3 -43 3 6 68 c6 54 3 76 -10 105 -17 34 -17 38 -1
71 9 18 28 42 42 51 25 16 25 18 25 146 l0 130 -34 30 c-29 26 -34 36 -29 59
4 22 2 29 -10 29 -9 0 -20 -7 -24 -15 -7 -12 -40 -15 -175 -17 -114 -2 -170 1
-178 8 -23 23 15 29 173 27 158 -2 158 -2 155 20 -3 20 -9 22 -53 20 -27 0
-61 -3 -75 -5 -23 -3 -25 0 -25 37 0 39 -1 40 -37 43 -32 3 -39 -1 -53 -27z
m198 -257 c44 -35 47 -39 47 -84 0 -35 -4 -50 -16 -54 -15 -6 -15 -8 0 -24 22
-25 3 -43 -35 -32 -18 5 -40 4 -60 -3 -28 -11 -33 -10 -50 12 -13 15 -17 30
-12 40 10 21 9 91 -1 113 -10 21 33 68 62 68 10 0 40 -16 65 -36z"/>
<path d="M3333 1152 c-7 -4 -21 -28 -32 -52 -18 -40 -24 -45 -53 -45 -37 0
-36 9 -22 -142 6 -68 5 -74 -20 -104 -32 -37 -35 -63 -6 -54 16 5 20 2 20 -19
0 -19 -5 -26 -20 -26 -11 0 -37 -7 -56 -15 -31 -13 -35 -18 -30 -40 5 -18 1
-27 -14 -35 -14 -7 -20 -21 -20 -45 0 -33 1 -34 47 -37 60 -4 68 -27 24 -70
-38 -37 -45 -58 -32 -103 8 -30 6 -42 -11 -71 -18 -30 -19 -39 -8 -58 17 -33
9 -59 -20 -66 -21 -5 -25 -12 -28 -47 -2 -33 1 -44 16 -52 21 -11 82 3 82 19
0 4 11 10 24 14 21 5 24 14 35 88 6 46 16 133 21 194 5 67 15 124 24 143 19
36 14 35 59 16 30 -12 36 -20 42 -57 4 -24 12 -60 18 -81 8 -28 7 -41 -1 -49
-15 -15 -15 -63 0 -91 6 -12 24 -35 40 -51 15 -17 28 -33 28 -37 0 -9 39 -19
55 -13 11 5 54 84 69 127 9 27 -11 57 -39 57 -29 0 -48 30 -40 62 3 14 -3 40
-15 63 l-20 40 30 25 c25 21 30 32 30 66 0 36 -5 45 -35 68 -23 18 -35 35 -35
51 0 13 -9 47 -20 75 -11 28 -20 74 -20 103 0 29 -5 79 -11 112 -6 33 -12 78
-12 100 -2 40 -18 54 -44 37z m-5 -420 c2 -21 12 -38 28 -48 17 -12 24 -25 24
-50 0 -39 -12 -49 -40 -34 -13 7 -20 21 -20 41 0 22 -6 32 -25 39 -27 10 -32
37 -14 71 16 31 43 20 47 -19z"/>
<path d="M4161 1146 c-7 -8 -12 -25 -12 -38 -1 -67 -37 -124 -53 -83 -3 8 -16
15 -30 15 -20 0 -25 -6 -31 -37 -3 -21 -18 -51 -33 -66 -22 -23 -24 -31 -15
-46 16 -26 19 -161 3 -193 -12 -25 -10 -29 60 -94 66 -63 75 -68 110 -65 46 3
100 -31 100 -63 0 -12 6 -41 14 -66 14 -50 12 -70 -10 -70 -8 0 -14 -10 -14
-24 0 -33 -13 -39 -33 -16 -12 14 -24 18 -50 13 l-33 -5 -12 53 c-6 30 -14 70
-17 89 -3 23 -16 44 -35 60 -17 14 -30 30 -30 37 0 17 -49 48 -58 37 -4 -5 -5
-101 -2 -213 5 -220 9 -234 53 -187 39 42 52 35 104 -49 7 -11 17 -30 22 -43
17 -37 56 -29 85 17 14 21 38 48 55 60 16 12 43 42 60 68 30 45 31 49 31 166
0 116 -1 122 -31 175 -17 30 -35 60 -40 66 -5 6 -18 23 -30 39 -15 20 -29 27
-54 27 -18 0 -38 7 -45 15 -12 14 -15 14 -31 -1 -18 -16 -20 -16 -38 0 -15 13
-19 31 -18 77 0 53 4 63 31 89 36 36 74 39 100 8 10 -13 26 -31 34 -40 13 -16
13 -20 -2 -42 -22 -34 -20 -44 6 -48 13 -2 29 -15 36 -30 14 -30 31 -35 50
-16 17 17 16 231 0 259 -10 17 -10 23 0 26 17 6 15 33 -2 33 -8 0 -17 -7 -20
-15 -4 -13 -10 -14 -26 -5 -27 15 -89 82 -90 97 0 13 -27 43 -39 43 -5 0 -14
-6 -20 -14z m41 -123 c18 -16 25 -43 11 -43 -12 0 -43 33 -43 47 0 17 10 17
32 -4z m48 -69 c0 -8 -4 -12 -10 -9 -5 3 -10 13 -10 21 0 8 5 12 10 9 6 -3 10
-13 10 -21z m-19 -275 c26 -13 15 -29 -21 -29 -35 0 -47 15 -23 29 23 13 21
13 44 0z m-37 -428 c3 -5 -1 -14 -9 -21 -12 -10 -18 -10 -30 0 -8 7 -15 16
-15 21 0 12 47 12 54 0z"/>
<path d="M4850 1125 c0 -19 -4 -35 -8 -35 -5 0 -14 -11 -20 -25 -8 -17 -20
-25 -37 -25 -31 0 -34 -30 -8 -81 16 -30 18 -66 16 -334 -2 -255 -5 -302 -18
-311 -8 -6 -15 -16 -15 -23 0 -15 -30 -62 -50 -78 -19 -16 -38 -17 -22 -1 7 7
12 19 12 28 0 8 14 30 30 48 17 18 30 37 30 42 0 14 -30 20 -69 14 -33 -5 -39
-3 -56 22 -17 26 -18 48 -16 239 2 213 5 293 17 443 l6 83 -34 -3 c-28 -3 -33
-7 -36 -31 -3 -25 -7 -28 -27 -23 -54 14 -52 25 -54 -387 l-1 -382 47 -52 c27
-29 69 -61 96 -72 32 -15 47 -27 47 -41 0 -43 63 -61 78 -21 9 24 75 111 84
111 4 0 8 4 8 9 0 6 12 23 26 38 24 25 26 33 20 83 -14 124 -18 585 -6 645 6
33 14 81 17 108 l5 47 -31 0 c-29 0 -31 -3 -31 -35z"/>
<path d="M5127 1130 c-13 -21 -26 -30 -45 -30 -15 0 -45 -10 -67 -23 -45 -26
-57 -62 -31 -99 9 -12 16 -37 16 -55 0 -31 2 -33 34 -33 l33 0 -1 -92 -1 -93
-35 -12 c-34 -11 -35 -12 -32 -60 3 -38 10 -55 34 -80 l31 -32 -2 -230 c-2
-205 0 -234 16 -261 21 -36 58 -41 69 -8 3 12 20 33 37 47 l30 25 -7 201 c-4
110 -4 209 0 218 10 26 48 39 80 27 l26 -10 -5 -127 -6 -126 45 -58 c33 -43
52 -59 69 -59 61 0 132 114 104 166 -9 17 -22 24 -53 26 -35 3 -41 6 -38 23
16 104 15 115 -12 156 l-27 40 28 31 c15 17 36 38 46 46 14 14 17 36 17 149
l0 133 -36 51 c-27 37 -41 48 -53 43 -52 -23 -341 -28 -363 -6 -20 20 22 26
179 24 92 -1 163 2 163 7 0 42 -41 53 -108 29 -30 -11 -35 -11 -48 7 -9 12
-12 30 -8 47 5 26 4 28 -28 28 -27 0 -37 -6 -51 -30z m211 -272 c50 -42 51
-44 46 -88 -10 -86 -32 -118 -61 -89 -9 9 -23 9 -55 1 -60 -16 -70 -3 -70 89
0 98 0 95 18 113 28 28 68 19 122 -26z m-218 -25 c0 -19 -19 -55 -20 -38 0 6
-3 20 -6 33 -5 16 -2 22 10 22 9 0 16 -8 16 -17z m10 -218 c0 -54 -27 -162
-31 -125 -5 41 -6 237 -1 248 9 25 32 -62 32 -123z"/>
<path d="M5340 735 c0 -17 5 -25 13 -22 6 2 12 12 12 22 0 10 -6 20 -12 23 -8
2 -13 -6 -13 -23z"/>
<path d="M6340 1138 c-8 -13 -17 -36 -20 -53 -4 -26 -9 -30 -32 -27 -39 4 -61
-40 -46 -94 12 -44 4 -165 -13 -196 -8 -16 -8 -23 2 -29 19 -11 3 -25 -46 -42
-29 -10 -41 -21 -45 -38 -3 -13 -13 -37 -24 -52 -28 -41 -12 -70 40 -71 32 -1
40 -5 42 -22 2 -11 -4 -27 -13 -34 -8 -7 -15 -20 -15 -29 0 -9 -7 -27 -16 -40
-13 -17 -15 -36 -10 -76 5 -44 3 -55 -14 -70 -16 -14 -19 -26 -14 -51 5 -26 2
-34 -15 -43 -31 -17 -31 -96 0 -104 22 -6 61 5 82 23 6 6 20 16 30 23 14 10
18 27 18 84 1 44 6 79 15 90 9 13 13 50 14 125 0 97 2 108 21 121 15 11 29 13
52 6 51 -14 57 -31 55 -148 -2 -116 3 -131 57 -185 49 -49 69 -53 94 -17 12
16 21 36 21 44 0 26 12 47 26 47 8 0 14 10 14 23 0 18 -9 26 -37 36 -57 20
-63 28 -63 88 0 30 -5 63 -10 73 -8 16 -6 22 14 35 17 12 25 28 29 62 5 45 3
50 -34 86 -50 50 -56 74 -89 352 -13 110 -18 125 -38 125 -9 0 -24 -10 -32
-22z m17 -293 c5 -16 -14 -38 -26 -31 -18 12 -13 48 6 44 9 -2 18 -7 20 -13z
m10 -125 c29 -54 32 -123 6 -118 -12 2 -20 15 -23 38 -4 26 -11 35 -30 40 -31
7 -39 50 -14 74 23 23 34 17 61 -34z"/>
<path d="M465 1124 c-8 -9 -20 -24 -25 -34 -5 -10 -20 -20 -32 -22 -28 -4 -35
-34 -14 -57 12 -13 17 -50 21 -150 7 -165 5 -174 -41 -165 -20 4 -47 1 -66 -7
-29 -12 -32 -11 -54 15 -28 32 -32 101 -10 145 20 37 25 244 6 265 -18 23 -49
19 -59 -7 -12 -32 -35 -49 -56 -41 -25 10 -33 -11 -25 -59 5 -23 7 -103 6
-177 l-1 -135 -44 3 c-47 3 -79 -21 -60 -45 6 -6 11 -28 12 -48 3 -39 24 -58
79 -69 34 -7 47 -42 23 -60 -14 -10 -16 -20 -10 -52 9 -45 9 -156 0 -266 -6
-73 -5 -77 17 -84 18 -5 27 -1 43 21 11 15 35 42 53 58 27 26 32 37 32 77 0
26 -7 61 -15 76 -19 37 -19 73 1 113 11 23 14 45 10 76 l-7 43 71 0 c88 -1
104 -13 96 -72 -4 -32 -10 -400 -7 -453 2 -23 21 -14 70 35 l49 47 -2 170 c-2
147 -5 174 -21 201 -16 26 -17 37 -8 56 9 20 17 24 42 20 50 -7 81 5 81 32 0
13 -6 29 -14 36 -8 6 -16 26 -18 43 -3 29 -6 32 -40 35 -46 4 -61 26 -48 68 5
16 15 95 21 177 10 120 10 152 -1 172 -17 31 -36 38 -55 19z m-295 -463 c5
-11 10 -36 10 -56 0 -42 -25 -59 -46 -30 -14 19 -19 87 -7 98 12 13 32 7 43
-12z"/>
<path d="M5665 1128 c-2 -7 -3 -24 -2 -38 2 -22 -2 -25 -26 -23 -48 3 -90 -62
-54 -84 8 -4 16 -16 20 -26 5 -13 13 -16 32 -11 20 5 25 2 25 -13 0 -10 7 -29
17 -42 13 -19 14 -28 5 -42 -18 -28 -14 -71 8 -99 11 -14 20 -31 20 -37 0 -7
9 -18 20 -25 24 -15 27 -63 5 -72 -16 -6 -21 -46 -5 -46 5 0 14 9 20 20 6 11
15 18 21 15 12 -8 12 -58 0 -71 -5 -5 -11 -117 -13 -249 l-3 -240 27 -3 c23
-3 32 3 49 32 12 20 25 36 30 36 5 0 9 6 9 14 0 7 7 19 15 26 13 11 15 50 14
262 0 215 2 252 15 267 9 10 16 29 16 43 0 15 6 39 14 55 17 35 36 88 46 133
12 51 33 102 53 130 22 32 22 55 -3 80 -30 30 -45 25 -103 -35 l-54 -54 -7
-108 c-5 -84 -10 -111 -23 -121 -24 -17 -36 -10 -47 24 -4 16 -12 37 -17 46
-5 10 -9 32 -9 48 0 17 -7 45 -16 62 -9 17 -17 49 -18 71 -1 24 -11 49 -23 63
-23 26 -51 31 -58 12z"/>
<path d="M2027 1098 c-21 -49 -40 -62 -87 -54 -49 8 -86 -20 -74 -57 15 -48
23 -63 43 -81 19 -17 22 -18 45 -2 29 18 46 21 46 6 0 -5 -7 -10 -15 -10 -17
0 -21 -35 -5 -45 6 -4 18 -1 26 6 21 17 37 -7 23 -33 -11 -20 -29 -24 -29 -7
0 5 -3 8 -7 6 -5 -3 -7 -43 -6 -89 2 -45 3 -103 4 -128 1 -25 0 -70 -1 -100
-2 -30 0 -102 4 -158 3 -57 3 -102 -1 -100 -51 24 -74 45 -70 66 5 29 -23 30
-48 2 -16 -18 -17 -26 -6 -72 6 -29 21 -62 32 -74 19 -21 23 -21 55 -8 41 17
51 5 34 -40 -5 -15 -10 -36 -10 -47 0 -27 38 -25 51 4 19 39 89 88 118 83 14
-3 47 -7 73 -11 47 -6 47 -6 77 37 16 24 36 50 44 59 8 9 17 45 21 80 4 34 11
70 16 79 4 8 5 67 1 130 -4 63 -3 153 1 198 8 69 7 88 -6 107 -9 14 -16 43
-16 65 0 41 -32 100 -54 100 -6 0 -17 10 -24 21 -12 19 -20 21 -69 16 -31 -3
-60 -10 -65 -15 -6 -6 -19 -5 -33 2 -19 8 -25 20 -27 51 -2 33 -7 41 -25 43
-17 3 -25 -4 -36 -30z m118 -228 c4 -6 23 -7 44 -4 66 11 71 -5 65 -233 -5
-160 -3 -201 10 -233 18 -44 14 -50 -31 -50 -38 0 -46 -24 -12 -35 11 -4 18
-12 16 -18 -4 -13 -130 -17 -143 -5 -4 5 -2 19 4 34 9 19 9 30 1 46 -8 14 -9
44 -4 87 17 154 16 274 -2 329 l-18 54 24 19 c26 21 37 24 46 9z"/>
<path d="M5634 875 c-3 -8 -3 -19 1 -25 11 -18 25 -11 25 15 0 27 -17 34 -26
10z"/>
</g>
</svg>
