<svg width="99" height="34" viewBox="0 0 99 34" fill="none" xmlns="http://www.w3.org/2000/svg">
<g clip-path="url(#clip0)">
<path fill-rule="evenodd" clip-rule="evenodd" d="M2.86447 0.443359H95.9848C96.7888 0.443359 97.4924 0.743359 97.9949 1.29336C98.4975 1.79336 98.8492 2.49336 98.8492 3.29336V30.5934C98.8492 31.3934 98.5477 32.0934 97.9949 32.5934C97.4924 33.0934 96.7888 33.4434 95.9848 33.4434H2.86447C2.06041 33.4434 1.35685 33.1434 0.854315 32.5934C0.351777 32.0934 0 31.3934 0 30.5934V3.29336C0 2.49336 0.301523 1.79336 0.854315 1.29336C1.35685 0.743359 2.06041 0.443359 2.86447 0.443359Z" fill="#F0F0F0"/>
<path fill-rule="evenodd" clip-rule="evenodd" d="M97.7435 22.8434V30.5934C97.7435 31.5434 96.9395 32.3434 95.9847 32.3434H2.86435C1.90953 32.3434 1.10547 31.5434 1.10547 30.5934V22.8434H97.7435Z" fill="#FECF22"/>
<path d="M97.7435 12.1433H1.10547V21.6933H97.7435V12.1433Z" fill="#006AB4"/>
<path fill-rule="evenodd" clip-rule="evenodd" d="M2.86435 1.54333H95.9847C96.9395 1.54333 97.7435 2.34333 97.7435 3.29333V11.0433H1.10547V3.29333C1.10547 2.29333 1.85928 1.54333 2.86435 1.54333Z" fill="#D61627"/>
<path fill-rule="evenodd" clip-rule="evenodd" d="M15.83 8.19337C22.3128 6.29337 27.7904 5.14337 33.0168 4.49337C37.6904 3.89337 42.163 3.69337 46.9372 3.64337H48.5453H50.4047H52.0128C56.7366 3.69337 61.159 3.89337 65.8326 4.49337C71.059 5.14337 76.4864 6.29337 82.9189 8.19337C83.6224 8.39337 84.326 8.74337 84.8285 9.24337C85.3813 9.79337 85.7331 10.4934 85.7331 11.3434V16.7934V17.0434V22.4934C85.7331 23.3934 85.3813 24.0934 84.8285 24.5934C84.326 25.0934 83.6224 25.4434 82.9189 25.6434C76.4864 27.5434 71.0087 28.6934 65.8326 29.3434C61.159 29.9434 56.7366 30.1434 52.0128 30.1934H50.4047H50.3544H49.8016H49.7011H48.9976H48.0427C42.8666 30.1934 38.1427 29.9934 33.2179 29.3934C27.9412 28.7434 22.363 27.5934 15.7798 25.6434C15.0762 25.4434 14.3727 25.0934 13.8701 24.5934C13.3174 24.0434 12.9656 23.3434 12.9656 22.4934V17.0434V16.7934V11.3934C12.9656 10.4934 13.3174 9.79337 13.8701 9.29337C14.4732 8.74337 15.1265 8.39337 15.83 8.19337Z" fill="white"/>
<path fill-rule="evenodd" clip-rule="evenodd" d="M60.6565 20.6934C60.2545 20.1434 60.6565 19.1934 60.9077 18.6934C61.2093 18.1434 61.6616 17.4434 62.3651 17.5934C62.6666 18.7434 61.6616 20.7934 60.6565 20.6934ZM38.6956 17.4934C39.1981 18.7934 37.4895 21.1934 36.9367 20.5434C36.4341 19.9934 37.5397 17.2434 38.6956 17.4934ZM42.3138 20.5434L42.1128 20.0934C41.56 20.2434 40.6555 20.7434 40.0022 20.5934C39.6504 19.7934 42.1631 14.5934 42.6154 12.9934L41.359 13.0434C41.0072 13.6434 40.3539 15.6434 40.0524 16.0934C37.8413 15.8434 36.8864 16.4934 35.9819 17.6934C34.5245 19.5934 35.5798 19.7934 34.4742 20.4434C33.5194 20.9934 33.6199 20.6934 33.5697 20.5934C33.1677 20.2434 34.3235 17.8434 34.424 17.2934C34.5748 16.5934 34.223 16.0434 33.5697 16.0934C32.9666 16.1434 32.5144 16.5434 32.1123 16.7934C30.655 17.5934 32.0118 14.4934 27.9915 17.3434C27.69 17.5434 26.8859 17.9934 26.7352 18.1434C26.7854 17.8934 27.9413 15.3934 28.1925 14.7934C28.6448 13.6434 29.0971 12.4934 29.4991 11.3434C28.0418 11.2434 23.6697 11.9934 22.3631 13.1934C19.8504 15.4434 22.8656 18.3434 24.8255 16.0934C24.3732 15.7434 23.6194 16.0934 23.5189 15.1934C23.4184 14.4434 23.6697 13.9434 24.122 13.6434C24.6245 13.2434 26.7854 12.8934 27.5895 12.7434C27.489 13.1434 27.1874 13.8934 26.9864 14.3934C26.1321 16.7934 25.0768 20.4434 22.0113 20.5434C20.4032 20.5934 19.9509 19.8934 19.3479 18.7934C18.9961 19.1934 18.8453 19.9934 19.0463 20.5934C19.2473 21.1434 19.6494 21.4934 20.1519 21.7434C22.5641 22.8934 24.6748 20.9434 26.3834 19.6434C26.8357 19.2934 28.3935 17.6934 29.2479 18.0934C29.7001 18.9934 28.3935 20.8934 28.3433 21.8434L29.9514 21.8934C30.2529 21.0934 30.4539 20.2434 30.7555 19.4434C31.0067 18.7434 31.3083 17.4934 32.2128 18.1434C32.5646 19.0934 31.057 21.0434 31.9113 21.6934C32.7656 22.3934 34.6753 20.9934 35.1276 20.7434C35.4793 21.2434 35.4793 21.8934 36.3839 22.0434C37.1377 22.1434 37.8413 21.8434 38.2433 21.4934C38.4946 21.7934 38.4443 22.1434 39.0473 22.0934C39.4996 21.9934 41.2585 20.8434 42.3138 20.5434ZM72.3656 19.1934C72.3154 18.3934 73.2199 17.2434 73.8732 17.2934C74.0742 17.7934 73.7225 18.2934 73.4712 18.5934C73.1697 18.8934 72.8682 19.2434 72.3656 19.1934ZM48.5453 17.2434L48.7463 17.7934C49.2489 17.6434 49.8017 17.3434 50.3042 17.4934C50.455 18.4434 49.0479 20.9934 48.8468 22.0934L50.4047 22.0434C50.7062 21.5434 51.058 20.3434 51.259 19.6934C51.5103 19.0434 51.8118 17.7434 52.7164 18.0934C53.2692 19.1434 51.8118 21.0434 51.7113 22.0434H53.4702C53.822 21.0934 54.1737 19.9434 54.5758 18.9934C54.7768 18.5434 54.9778 17.7934 55.6814 17.9934C56.4854 18.1934 55.1286 19.6934 55.1286 20.9934C55.1286 21.5934 55.5306 22.0934 56.1336 22.0434C56.8874 21.9434 58.194 20.8934 58.8976 20.7434C59.1991 21.4434 59.2494 21.8434 60.1037 21.9934C60.958 22.1434 61.4605 21.7434 62.0133 21.4434L62.0636 21.4934L62.1641 21.6434C62.3149 21.8934 62.4154 22.0434 62.8174 22.0934C64.124 22.2434 66.0839 20.1434 66.8377 19.1434C67.692 18.0434 67.3402 18.0934 68.4458 18.0434C68.1945 19.0434 67.0387 20.6934 68.0438 21.6934C69.0489 22.6934 71.0088 21.3434 71.6118 20.9934C72.1646 21.5934 72.4661 22.1434 73.7727 22.0934C74.8281 22.0434 75.3808 21.6434 76.2352 21.3934C77.2402 23.0434 80.557 21.4434 80.4565 20.3934C80.0042 20.2934 79.5519 20.8934 79.0996 21.1434C78.4966 21.4934 77.8935 21.2434 77.8433 20.5434C77.8433 20.1934 78.6976 17.5934 78.8484 17.2934H79.8534L80.2052 16.1434H79.5017C79.6524 14.9434 80.2555 13.9434 80.5067 12.8934L79.0996 12.9434L77.9438 16.0434L76.8885 16.0934L76.6372 17.2434H77.4413C77.2905 18.3434 76.6372 19.8434 76.0341 20.5434C75.4311 21.2934 73.3707 21.6934 72.9687 20.4434C73.4712 19.8934 74.3255 19.7934 74.9788 18.5934C76.6372 15.6934 73.3204 15.3434 71.9133 17.3434C71.059 18.5934 71.3103 18.9934 71.3605 20.4934C69.6519 21.4434 69.0991 21.5934 69.2499 19.9434C69.4006 18.2934 69.6519 18.5434 69.9534 18.2434C70.1544 17.9934 70.255 17.5934 70.0037 17.3934C69.7524 17.0934 69.3001 17.3434 68.7976 17.1934C68.4961 16.3934 68.9986 16.2934 69.2499 15.8434C68.9484 15.7934 68.6468 15.8934 68.3453 15.7934C67.9935 15.6434 68.1946 15.4934 67.893 15.3934C67.491 15.5434 67.491 15.5434 67.3402 15.9934C66.9382 17.2934 67.089 17.5434 66.3854 18.5434C65.9834 19.0934 64.727 20.8934 63.8225 20.5434C63.4204 19.9934 64.9783 16.8434 65.1793 16.0434C63.5712 15.9434 63.8225 16.2434 63.5712 16.4934C62.1138 15.8434 61.3098 16.3934 60.4052 17.1934C59.0986 18.3434 59.0484 19.9934 58.8976 20.1934C58.4956 20.4434 57.6915 20.7934 57.1387 20.5934C56.988 19.9434 57.993 17.9934 58.194 17.1934C58.3951 16.3434 57.8925 15.8934 57.0382 16.1434C56.3849 16.2934 56.1839 16.8934 55.5808 16.9434C55.0783 16.5934 55.0783 15.8934 54.0732 16.0434C53.3697 16.1434 53.3194 16.6934 52.5154 16.8934L52.4651 16.8434L52.3646 16.6434C52.3144 16.5434 52.2138 16.1934 52.0631 16.0934C51.0078 15.9434 49.3494 16.9934 48.5453 17.2434Z" fill="#006AB4"/>
<path fill-rule="evenodd" clip-rule="evenodd" d="M45.3792 16.7934C45.932 16.7934 46.4346 16.9934 46.7863 17.3434C47.1381 17.6934 47.3391 18.1934 47.3391 18.7434C47.3391 19.2934 47.1381 19.7934 46.7863 20.1434C46.4346 20.4934 45.932 20.6934 45.3792 20.6934C44.8264 20.6934 44.3239 20.4934 43.9721 20.1434C43.6203 19.7934 43.4193 19.2934 43.4193 18.7434C43.4193 18.1934 43.6203 17.6934 43.9721 17.3434C44.3239 16.9934 44.8264 16.7934 45.3792 16.7934ZM45.3792 15.0934C44.3741 15.0934 43.4696 15.4934 42.766 16.1434C42.1127 16.7934 41.7107 17.6934 41.7107 18.7434C41.7107 19.7434 42.1127 20.6434 42.766 21.3434C43.4193 21.9934 44.3239 22.3934 45.3792 22.3934C46.3843 22.3934 47.2889 21.9934 47.9924 21.3434C48.6457 20.6934 49.0478 19.7934 49.0478 18.7434C49.0478 17.7434 48.6457 16.8434 47.9924 16.1434C47.2889 15.4934 46.3843 15.0934 45.3792 15.0934ZM47.6909 16.4434C47.0879 15.8434 46.2838 15.4934 45.3792 15.4934C44.4747 15.4934 43.6706 15.8434 43.0675 16.4434C42.4645 17.0434 42.1127 17.8434 42.1127 18.7434C42.1127 19.6434 42.4645 20.4434 43.0675 21.0434C43.6706 21.6434 44.4747 21.9934 45.3792 21.9934C46.2838 21.9934 47.0879 21.6434 47.6909 21.0434C48.294 20.4434 48.6457 19.6434 48.6457 18.7434C48.6457 17.8434 48.2437 17.0434 47.6909 16.4434ZM45.3792 15.9434C44.6254 15.9434 43.8716 16.2434 43.3691 16.7434C42.8665 17.2434 42.565 17.9434 42.565 18.7434C42.565 19.4934 42.8665 20.2434 43.3691 20.7434C43.8716 21.2434 44.5752 21.5434 45.3792 21.5434C46.133 21.5434 46.8868 21.2434 47.3894 20.7434C47.8919 20.2434 48.1934 19.5434 48.1934 18.7434C48.1934 17.9934 47.8919 17.2434 47.3894 16.7434C46.8366 16.2434 46.133 15.9434 45.3792 15.9434ZM47.0879 17.0434C46.6356 16.5934 46.0325 16.3434 45.3792 16.3434C44.7259 16.3434 44.1229 16.5934 43.6706 17.0434C43.2183 17.4934 42.967 18.0934 42.967 18.7434C42.967 19.3934 43.2183 19.9934 43.6706 20.4434C44.1229 20.8934 44.7259 21.1434 45.3792 21.1434C46.0325 21.1434 46.6356 20.8934 47.0879 20.4434C47.5401 19.9934 47.7914 19.3934 47.7914 18.7434C47.7914 18.0934 47.4899 17.4934 47.0879 17.0434ZM46.4848 17.6434C46.1833 17.3434 45.8315 17.1934 45.3792 17.1934C44.9269 17.1934 44.5752 17.3434 44.2736 17.6434C43.9721 17.9434 43.8214 18.2934 43.8214 18.7434C43.8214 19.1934 43.9721 19.5434 44.2736 19.8434C44.5752 20.1434 44.9269 20.2934 45.3792 20.2934C45.8315 20.2934 46.1833 20.1434 46.4848 19.8434C46.7863 19.5434 46.9371 19.1934 46.9371 18.7434C46.9371 18.2934 46.7361 17.9434 46.4848 17.6434Z" fill="#D61627"/>
<path fill-rule="evenodd" clip-rule="evenodd" d="M16.3323 9.74341C29.147 5.99341 37.9415 5.24341 48.5953 5.24341H50.4547C61.008 5.29341 69.8024 5.99341 82.5166 9.74341C83.3709 9.99341 84.1247 10.4934 84.1247 11.3434V16.7934V17.0434V22.4934C84.1247 23.3934 83.3709 23.8434 82.5166 24.0934C69.8024 27.8434 61.008 28.5434 50.4547 28.5934H50.4044C50.2034 28.5934 50.0024 28.5934 49.7511 28.5934H49.0476C38.1927 28.5934 29.2978 27.9434 16.2821 24.0934C15.4278 23.8434 14.674 23.3434 14.674 22.4934V17.0434V16.7934V11.3934C14.674 10.4934 15.4278 9.99341 16.3323 9.74341ZM48.7963 7.69341C38.846 7.74341 29.9511 8.09341 18.2922 11.0934C17.4379 11.2934 16.6841 11.8434 16.6841 12.6934V16.7934V17.0434V21.1434C16.6841 22.0434 17.4379 22.5434 18.2922 22.7434C29.8506 25.7434 38.7455 26.0934 48.5953 26.1434H50.2537C60.1034 26.0934 68.9983 25.6934 80.5567 22.7434C81.411 22.5434 82.1648 21.9934 82.1648 21.1434V17.0434V16.7934V12.6934C82.1648 11.7934 81.411 11.2934 80.5567 11.0934C68.8978 8.09341 60.0029 7.69341 50.0526 7.69341H48.7963Z" fill="#D61627"/>
</g>
<defs>
<clipPath id="clip0">
<rect width="99" height="33" fill="white" transform="translate(0 0.443359)"/>
</clipPath>
</defs>
</svg>
