
<svg width="50" height="39" viewBox="0 0 50 39" fill="none" xmlns="http://www.w3.org/2000/svg">
<path d="M50 31.0066C50 35.3216 46.5159 38.8353 42.2372 38.8353H0V7.8287C0 3.51367 3.48411 0 7.76284 0H50V31.0066Z" fill="white"/>
<path d="M36.2469 23.0546H39.456C39.5477 23.0546 39.7616 23.0238 39.8533 23.0238C40.4646 22.9005 40.9841 22.3457 40.9841 21.5751C40.9841 20.8354 40.4646 20.2806 39.8533 20.1265C39.7616 20.0957 39.5782 20.0957 39.456 20.0957H36.2469V23.0546Z" fill="url(#paint0_linear)"/>
<path d="M39.0892 2.61975C36.033 2.61975 33.5269 5.11631 33.5269 8.22929V14.0546H41.3814C41.5648 14.0546 41.7787 14.0546 41.9315 14.0854C43.7042 14.1779 45.0183 15.1025 45.0183 16.7053C45.0183 17.9689 44.132 19.0477 42.4817 19.2634V19.3251C44.2848 19.4484 45.6602 20.4655 45.6602 22.0374C45.6602 23.7326 44.132 24.8422 42.1149 24.8422H33.4963V36.2462H41.6565C44.7127 36.2462 47.2188 33.7496 47.2188 30.6366V2.61975H39.0892Z" fill="url(#paint1_linear)"/>
<path d="M40.5868 17.0751C40.5868 16.3354 40.0672 15.8423 39.456 15.7498C39.3949 15.7498 39.2421 15.719 39.1504 15.719H36.2469V18.4313H39.1504C39.2421 18.4313 39.4254 18.4313 39.456 18.4005C40.0672 18.308 40.5868 17.8149 40.5868 17.0751Z" fill="url(#paint2_linear)"/>
<path d="M8.34352 2.61975C5.28729 2.61975 2.78117 5.11631 2.78117 8.22929V22.0682C4.33985 22.8388 5.95966 23.3319 7.57946 23.3319C9.50489 23.3319 10.544 22.1607 10.544 20.558V14.0238H15.3117V20.5271C15.3117 23.0545 13.7531 25.1196 8.46577 25.1196C5.25672 25.1196 2.75061 24.4107 2.75061 24.4107V36.2154H10.9108C13.967 36.2154 16.4731 33.7188 16.4731 30.6058V2.61975H8.34352Z" fill="url(#paint3_linear)"/>
<path d="M23.7163 2.61975C20.66 2.61975 18.1539 5.11631 18.1539 8.22929V15.5648C19.5598 14.3628 22.0048 13.5923 25.9473 13.7772C28.0561 13.8697 30.3177 14.4553 30.3177 14.4553V16.8285C29.1869 16.2429 27.8422 15.719 26.1001 15.5957C23.105 15.3799 21.3019 16.8594 21.3019 19.4484C21.3019 22.0682 23.105 23.5477 26.1001 23.3011C27.8422 23.1778 29.1869 22.623 30.3177 22.0682V24.4415C30.3177 24.4415 28.0867 25.0271 25.9473 25.1196C22.0048 25.3045 19.5598 24.534 18.1539 23.3319V36.277H26.3141C29.3703 36.277 31.8764 33.7805 31.8764 30.6675V2.61975H23.7163Z" fill="url(#paint4_linear)"/>
<defs>
<linearGradient id="paint0_linear" x1="33.5218" y1="21.5788" x2="47.2557" y2="21.5788" gradientUnits="userSpaceOnUse">
<stop stop-color="#007940"/>
<stop offset="0.2285" stop-color="#00873F"/>
<stop offset="0.7433" stop-color="#40A737"/>
<stop offset="1" stop-color="#5CB531"/>
</linearGradient>
<linearGradient id="paint1_linear" x1="33.5214" y1="19.4195" x2="47.2564" y2="19.4195" gradientUnits="userSpaceOnUse">
<stop stop-color="#007940"/>
<stop offset="0.2285" stop-color="#00873F"/>
<stop offset="0.7433" stop-color="#40A737"/>
<stop offset="1" stop-color="#5CB531"/>
</linearGradient>
<linearGradient id="paint2_linear" x1="33.5215" y1="17.0713" x2="47.2559" y2="17.0713" gradientUnits="userSpaceOnUse">
<stop stop-color="#007940"/>
<stop offset="0.2285" stop-color="#00873F"/>
<stop offset="0.7433" stop-color="#40A737"/>
<stop offset="1" stop-color="#5CB531"/>
</linearGradient>
<linearGradient id="paint3_linear" x1="2.7747" y1="19.4195" x2="16.7212" y2="19.4195" gradientUnits="userSpaceOnUse">
<stop stop-color="#1F286F"/>
<stop offset="0.4751" stop-color="#004E94"/>
<stop offset="0.8261" stop-color="#0066B1"/>
<stop offset="1" stop-color="#006FBC"/>
</linearGradient>
<linearGradient id="paint4_linear" x1="18.0749" y1="19.4195" x2="31.6202" y2="19.4195" gradientUnits="userSpaceOnUse">
<stop stop-color="#6C2C2F"/>
<stop offset="0.1735" stop-color="#882730"/>
<stop offset="0.5731" stop-color="#BE1833"/>
<stop offset="0.8585" stop-color="#DC0436"/>
<stop offset="1" stop-color="#E60039"/>
</linearGradient>
</defs>
</svg>
