<svg width="104" height="31" viewBox="0 0 104 31" fill="none" xmlns="http://www.w3.org/2000/svg">
<g clip-path="url(#clip0)">
<path d="M0.671055 21.0395C0.671055 19.5623 0.671055 18.3123 0.557617 17.1759H3.39357L3.50701 19.1077H3.56373C4.18763 18.085 5.37873 16.8918 7.53406 16.8918C9.23563 16.8918 10.5402 17.8577 11.1074 19.2782H11.1641C11.6745 18.5963 12.185 18.0282 12.8089 17.6873C13.5463 17.1759 14.3403 16.8918 15.418 16.8918C17.5733 16.8918 19.7286 18.3691 19.7286 22.5168V30.1304H16.5524V23.0282C16.5524 20.8691 15.815 19.6191 14.2269 19.6191C13.0925 19.6191 12.2985 20.4145 11.9581 21.3236C11.9014 21.6645 11.788 22.0623 11.788 22.4032V30.1873H8.61172V22.6873C8.61172 20.8691 7.87437 19.6191 6.39968 19.6191C5.20858 19.6191 4.35779 20.585 4.0742 21.4941C3.90404 21.7782 3.84732 22.1191 3.84732 22.5168V30.1873H0.671055V21.0395Z" fill="#003D79"/>
<path d="M32.1696 27.0382C32.1696 28.2314 32.2263 29.3677 32.3397 30.1632H29.3903L29.1634 28.7427H29.1067C28.3127 29.7654 26.9514 30.4473 25.3065 30.4473C22.6975 30.4473 21.2228 28.5723 21.2228 26.5836C21.2228 23.2882 24.1154 21.6404 28.8798 21.6973V21.47C28.8798 20.6177 28.5395 19.1973 26.2708 19.1973C25.023 19.1973 23.6617 19.595 22.8109 20.1632L22.187 18.0609C23.1512 17.4927 24.7961 16.9245 26.838 16.9245C30.9784 16.9245 32.1696 19.5382 32.1696 22.3791V27.0382ZM28.9366 23.7995C26.6111 23.7427 24.399 24.2541 24.399 26.2427C24.399 27.4927 25.2498 28.1177 26.2708 28.1177C27.5753 28.1177 28.5395 27.2654 28.8231 26.3564C28.8798 26.1291 28.9366 25.845 28.9366 25.6177V23.7995Z" fill="#003D79"/>
<path d="M34.4229 21.0395C34.4229 19.5623 34.4229 18.3123 34.3094 17.1759H37.1454L37.3156 19.1077H37.3723C37.9395 18.085 39.3574 16.8918 41.5128 16.8918C43.7815 16.8918 46.107 18.3691 46.107 22.46V30.1304H42.8173V22.8009C42.8173 20.9259 42.1367 19.5054 40.3217 19.5054C39.0171 19.5054 38.1096 20.4145 37.7693 21.4373C37.7126 21.7782 37.7126 22.1759 37.7126 22.5736V30.1873H34.4229V21.0395Z" fill="#003D79"/>
<path d="M60.2329 11.9911V26.4797C60.2329 27.7865 60.2897 29.2638 60.3464 30.1161H57.4537L57.3403 28.0706H57.2836C56.4895 29.4911 54.9581 30.4001 53.0863 30.4001C50.0235 30.4001 47.5846 27.7865 47.5846 23.8092C47.5846 19.4911 50.2504 16.8774 53.3699 16.8774C55.1282 16.8774 56.4328 17.6161 57 18.582H57.0567V11.9911H60.2329ZM57 22.6161C57 22.332 57 22.0479 56.9432 21.7638C56.6596 20.5138 55.6387 19.4342 54.1073 19.4342C52.0087 19.4342 50.8176 21.3092 50.8176 23.6956C50.8176 26.082 52.0087 27.7865 54.0506 27.7865C55.3551 27.7865 56.5462 26.8774 56.8865 25.457C56.9432 25.1729 57 24.832 57 24.4911C57 24.5479 57 22.6161 57 22.6161Z" fill="#003D79"/>
<path d="M62.5607 17.2168H65.8731V30.1713H62.5607V17.2168Z" fill="#003D79"/>
<path d="M68.1636 21.3514C68.1636 19.59 68.1636 18.34 68.0502 17.2037H70.8861L70.9996 19.6468H71.113C71.7369 17.8287 73.2683 17.2037 74.6296 17.2037C74.9699 17.2037 75.14 17.1468 75.4236 17.2037V20.1014C75.14 20.0446 74.8564 19.9878 74.4594 19.9878C72.8713 19.9878 71.8503 21.0105 71.5667 22.4309C71.51 22.715 71.4533 23.0559 71.4533 23.4537V30.1582H68.1636V21.3514Z" fill="#003D79"/>
<path d="M76.9445 17.2168H80.2115V30.1713H76.9445V17.2168Z" fill="#003D79"/>
<path d="M76.2302 1.52345C74.245 2.65982 67.7791 6.353 67.7791 6.353C65.3402 7.37573 63.5252 6.12573 62.9012 5.21664C62.9012 5.15982 62.8445 5.15981 62.8445 5.10299L62.7878 4.98938L62.3908 4.30756C62.2206 4.02347 61.9937 3.73938 61.8236 3.45529C61.5967 3.22801 61.4265 2.94393 61.1429 2.71666C59.6115 1.12575 57.1159 0.0461946 52.9754 2.03483C50.4798 3.45529 44.6377 6.80754 44.6377 6.80754C42.2555 8.17117 40.3838 9.25075 40.3838 9.25075L42.5958 11.978C43.5033 12.8871 45.2616 14.3076 47.9841 13.1144L55.471 8.79617C61.8236 5.27345 64.9998 8.62573 66.4178 10.8985C66.4745 10.9553 66.5313 11.0689 66.5313 11.1257L66.588 11.1825L66.7581 11.4666C67.4388 12.4894 68.5164 13.1712 69.7642 13.1144C70.4449 13.1144 70.9553 12.8871 71.636 12.4894L78.8393 8.28483C85.3053 4.7621 88.4815 8.28483 89.8428 10.5576C89.9562 10.728 90.0697 10.9553 90.1831 11.1257C90.8637 12.0348 91.7712 12.6598 92.9623 12.603C93.7564 12.603 94.6072 12.0916 94.7773 12.0348L103.455 7.03482C103.455 7.03482 102.548 5.67119 100.733 3.62573C99.088 1.75073 97.3864 2.60302 95.9684 3.28484C95.4012 3.56893 91.204 5.95526 91.204 5.95526C88.9353 6.92117 87.1203 5.84166 86.4396 4.98938C86.3829 4.87575 86.3262 4.81893 86.2695 4.70529L86.0993 4.4212C85.8724 4.02347 85.5321 3.5121 85.1918 3.05755C85.0217 2.77346 84.7948 2.54619 84.5112 2.31892C83.547 1.35301 82.2424 0.557537 80.3707 0.557537C79.2363 0.443901 77.8751 0.727999 76.2302 1.52345Z" fill="url(#paint0_linear)"/>
</g>
<defs>
<linearGradient id="paint0_linear" x1="45.6316" y1="20.0586" x2="129.94" y2="-18.8293" gradientUnits="userSpaceOnUse">
<stop stop-color="#FDB913"/>
<stop offset="0.2247" stop-color="#FFCB05"/>
<stop offset="0.3933" stop-color="#FAA61A"/>
<stop offset="0.5281" stop-color="#FFCB05"/>
<stop offset="0.6461" stop-color="#FAA61A"/>
<stop offset="0.764" stop-color="#FFCB05"/>
<stop offset="1" stop-color="#FFCB05"/>
</linearGradient>
<clipPath id="clip0">
<rect width="104" height="30" fill="white" transform="translate(0 0.443359)"/>
</clipPath>
</defs>
</svg>
