
<svg width="130" height="24" viewBox="0 0 130 24" fill="none" xmlns="http://www.w3.org/2000/svg">
<g clip-path="url(#clip0)">
<path d="M56.2644 15.8116V11.0025C56.2644 9.19037 55.1295 7.97067 53.3068 7.97067C52.2406 7.90097 51.2433 8.4237 50.6586 9.32976C50.1427 8.45855 49.1798 7.93582 48.1824 7.97067C47.2882 7.93582 46.4628 8.354 45.9814 9.12067V8.17976H44.3306V15.8464H45.9814V11.5601C45.9814 10.2358 46.7036 9.53885 47.8385 9.53885C48.9734 9.53885 49.4893 10.2707 49.4893 11.5601V15.8116H51.1401V11.5601C51.1401 10.2358 51.8967 9.53885 52.9972 9.53885C54.0978 9.53885 54.648 10.2707 54.648 11.5601V15.8116H56.2644ZM80.7856 8.17976H78.1031V5.84491H76.4523V8.17976H74.9046V9.7131H76.4523V13.1979C76.4523 14.9752 77.1401 16.0207 79.066 16.0207C79.7882 16.0207 80.5105 15.8116 81.1295 15.4282L80.648 13.9995C80.2009 14.2782 79.7195 14.4176 79.2036 14.4176C78.3782 14.4176 78.1031 13.8949 78.1031 13.1282V9.67825H80.7856V8.17976ZM94.783 7.97067C93.9576 7.93582 93.2009 8.38885 92.7882 9.08582V8.14491H91.1718V15.7767H92.8226V11.5252C92.8226 10.2358 93.3729 9.5737 94.439 9.5737C94.783 9.5737 95.1269 9.6434 95.4708 9.74794L95.9867 8.17976C95.574 8.04037 95.1957 7.97067 94.783 7.97067ZM73.5978 8.77219C72.6692 8.21461 71.6031 7.93582 70.5025 7.97067C68.5766 7.97067 67.3385 8.91158 67.3385 10.4101C67.3385 11.6646 68.2671 12.4313 69.9523 12.6752L70.7089 12.7798C71.6031 12.9192 72.0501 13.1631 72.0501 13.5813C72.0501 14.1737 71.4655 14.5222 70.3306 14.5222C69.4364 14.557 68.5422 14.2782 67.82 13.7207L67.0634 15.0101C68.0263 15.6722 69.1613 16.0207 70.3306 16.0207C72.4972 16.0207 73.7697 14.9752 73.7697 13.5116C73.7697 12.1525 72.7724 11.4555 71.1216 11.2116L70.365 11.107C69.6427 11.0025 69.0925 10.8631 69.0925 10.3404C69.0925 9.78279 69.6427 9.43431 70.5369 9.43431C71.3623 9.43431 72.1877 9.67825 72.8755 10.0964L73.5978 8.77219ZM117.585 7.97067C116.759 7.93582 116.003 8.38885 115.59 9.08582V8.14491H113.973V15.7767H115.624V11.5252C115.624 10.2358 116.174 9.5737 117.241 9.5737C117.585 9.5737 117.928 9.6434 118.272 9.74794L118.788 8.17976C118.376 8.04037 117.997 7.97067 117.585 7.97067ZM96.4337 11.9782C96.4337 14.3131 98.0158 15.9858 100.458 15.9858C101.455 16.0207 102.418 15.707 103.174 15.0798L102.383 13.7207C101.799 14.1737 101.111 14.3828 100.423 14.4176C99.1163 14.4176 98.1533 13.4419 98.1533 11.9782C98.1533 10.5146 99.1163 9.53885 100.423 9.53885C101.145 9.53885 101.833 9.78279 102.383 10.2358L103.174 8.87673C102.418 8.24946 101.455 7.90097 100.458 7.97067C98.0502 7.97067 96.4337 9.67825 96.4337 11.9782ZM111.807 11.9782V8.14491H110.156V9.08582C109.571 8.354 108.712 7.93582 107.783 7.97067C105.685 7.97067 104 9.6434 104 11.9782C104 14.3131 105.651 15.9858 107.783 15.9858C108.712 16.0207 109.606 15.6025 110.156 14.8707V15.8116H111.807V11.9782ZM105.719 11.9782C105.719 10.6192 106.579 9.53885 108.024 9.53885C109.365 9.53885 110.294 10.5843 110.294 11.9782C110.294 13.3722 109.365 14.4176 108.024 14.4176C106.579 14.4176 105.719 13.3373 105.719 11.9782ZM85.9099 7.97067C83.7089 7.97067 82.1613 9.60855 82.1613 11.9782C82.1613 14.4176 83.7777 15.9858 86.0131 15.9858C87.148 16.0207 88.2486 15.6373 89.1084 14.9055L88.3173 13.6858C87.6983 14.2086 86.9073 14.4873 86.1163 14.4873C85.0501 14.4873 84.0872 13.9995 83.8464 12.6055H89.4523C89.4523 12.3964 89.4867 12.1873 89.4867 11.9782C89.4523 9.60855 88.0078 7.97067 85.9099 7.97067ZM85.8755 9.46916C86.9417 9.46916 87.5951 10.1313 87.8015 11.3161H83.8808C84.0184 10.201 84.7062 9.46916 85.8755 9.46916ZM127.042 11.9782V5.07825H125.391V9.08582C124.807 8.354 123.947 7.93582 123.018 7.97067C120.921 7.97067 119.235 9.6434 119.235 11.9782C119.235 14.3131 120.886 15.9858 123.018 15.9858C123.947 16.0207 124.841 15.6025 125.391 14.8707V15.8116H127.042V11.9782ZM128.968 15.1146C129.037 15.1146 129.106 15.1146 129.14 15.1495C129.209 15.1843 129.243 15.2192 129.278 15.254C129.312 15.2889 129.346 15.3586 129.381 15.3934C129.415 15.4979 129.415 15.6373 129.381 15.7767C129.346 15.8464 129.312 15.8813 129.278 15.9161C129.243 15.951 129.174 15.9858 129.14 16.0207C129.071 16.0555 129.003 16.0555 128.968 16.0555C128.762 16.0555 128.59 15.951 128.521 15.7419C128.487 15.6373 128.487 15.4979 128.521 15.3586C128.555 15.254 128.659 15.1495 128.796 15.1146C128.831 15.1146 128.899 15.1146 128.968 15.1146ZM128.968 15.951C129.003 15.951 129.071 15.951 129.106 15.9161C129.14 15.8813 129.174 15.8813 129.209 15.8464C129.346 15.707 129.346 15.4631 129.209 15.3237C129.174 15.2889 129.14 15.254 129.106 15.254C129.071 15.2192 129.003 15.2192 128.968 15.2192C128.934 15.2192 128.865 15.2192 128.831 15.254C128.624 15.3237 128.555 15.5676 128.624 15.7419C128.659 15.7767 128.659 15.8116 128.693 15.8464C128.727 15.8813 128.762 15.9161 128.796 15.9161C128.865 15.951 128.899 15.951 128.968 15.951ZM129.003 15.3586C129.037 15.3586 129.106 15.3586 129.14 15.3934C129.174 15.4282 129.174 15.4631 129.174 15.4979C129.174 15.5328 129.174 15.5676 129.14 15.6025C129.106 15.6373 129.071 15.6373 129.037 15.6373L129.174 15.8116H129.071L128.934 15.6373H128.899V15.8116H128.796V15.3586H129.003ZM128.865 15.4282V15.5328H128.968C129.003 15.5328 129.003 15.5328 129.037 15.5328L129.071 15.4979C129.071 15.4631 129.071 15.4631 129.037 15.4631C129.003 15.4631 129.003 15.4631 128.968 15.4631L128.865 15.4282ZM120.955 11.9782C120.955 10.6192 121.815 9.53885 123.259 9.53885C124.6 9.53885 125.529 10.5843 125.529 11.9782C125.529 13.3722 124.6 14.4176 123.259 14.4176C121.815 14.4176 120.955 13.3373 120.955 11.9782ZM65.5158 11.9782V8.14491H63.865V9.08582C63.2803 8.354 62.4205 7.93582 61.4919 7.97067C59.3941 7.97067 57.7089 9.6434 57.7089 11.9782C57.7089 14.3131 59.3597 15.9858 61.4919 15.9858C62.4205 16.0207 63.3147 15.6025 63.865 14.8707V15.8116H65.5158V11.9782ZM59.3941 11.9782C59.3941 10.6192 60.2538 9.53885 61.6983 9.53885C63.0396 9.53885 63.9681 10.5843 63.9681 11.9782C63.9681 13.3722 63.0396 14.4176 61.6983 14.4176C60.2538 14.4176 59.3941 13.3373 59.3941 11.9782Z" fill="#231F20"/>
<path d="M23.3519 2.88281H13.4127V20.9692H23.3519V2.88281Z" fill="#FF5F00"/>
<path d="M14.0317 11.9433C14.0317 8.42362 15.6138 5.07817 18.3651 2.91756C13.4471 -1.02031 6.29365 -0.149102 2.4418 4.83423C-1.41006 9.81756 -0.584659 17.066 4.36772 20.9691C8.49471 24.2448 14.2725 24.2448 18.3995 20.9691C15.6138 18.8085 14.0317 15.463 14.0317 11.9433Z" fill="#EB001B"/>
<path d="M36.73 11.9437C36.73 18.2862 31.64 23.4437 25.3807 23.4437C22.8358 23.4437 20.3596 22.5725 18.3649 20.9695C23.2829 17.0316 24.1426 9.81799 20.2908 4.83466C19.7405 4.10284 19.0871 3.47557 18.3649 2.88314C23.2829 -1.05474 30.4363 -0.183526 34.2882 4.79981C35.8702 6.85587 36.73 9.36496 36.73 11.9437Z" fill="#F79E1B"/>
<path d="M35.6297 19.0525V18.6692H35.7673V18.5995H35.4233V18.6692H35.5609V19.0525H35.6297ZM36.3519 19.0525V18.5995H36.2487L36.1112 18.9131L35.9736 18.5995H35.8704V19.0525H35.9392V18.704L36.0768 18.9828H36.1456L36.2831 18.704V19.0525H36.3519Z" fill="#F79E1B"/>
</g>
<defs>
<clipPath id="clip0">
<rect width="130" height="23" fill="white" transform="translate(0 0.443359)"/>
</clipPath>
</defs>
</svg>
