<svg width="142" height="31" viewBox="0 0 142 31" fill="none" xmlns="http://www.w3.org/2000/svg">
<g clip-path="url(#clip0)">
<path d="M142.73 0H0V29.8526H142.73V0Z" fill="#FFC600"/>
<path d="M13.8947 10.206C13.9054 10.1876 13.9111 10.1668 13.9111 10.1456C13.9111 10.1244 13.9054 10.1036 13.8947 10.0852C14.1585 8.07223 17.9519 7.14625 18.9459 6.94495C18.9715 6.94211 18.9975 6.94468 19.022 6.95251C19.0465 6.96033 19.0691 6.97323 19.0883 6.99034C19.1075 7.00746 19.1228 7.0284 19.1332 7.0518C19.1436 7.07521 19.1489 7.10054 19.1487 7.12612V7.70989C19.1487 7.70989 20.305 4.71053 20.873 5.03261C21.8484 6.15084 22.5435 7.48208 22.9016 8.91768C23.003 9.46118 22.9016 9.6021 22.6987 9.62223C22.6736 9.63875 22.653 9.66119 22.6388 9.68753C22.6246 9.71387 22.6171 9.74331 22.6171 9.7732C22.6171 9.8031 22.6246 9.83253 22.6388 9.85887C22.653 9.88521 22.6736 9.90764 22.6987 9.92417C22.9316 10.1647 23.2158 10.3504 23.5305 10.4677C23.6355 10.524 23.7515 10.5572 23.8706 10.5651C23.9898 10.5729 24.1092 10.5553 24.2208 10.5132C24.3324 10.4712 24.4336 10.4059 24.5175 10.3216C24.6014 10.2373 24.6661 10.1361 24.707 10.0248C24.7372 9.99651 24.7771 9.98073 24.8186 9.98073C24.8601 9.98073 24.9 9.99651 24.9302 10.0248C25.7179 10.364 26.358 10.9706 26.7356 11.7359C26.7481 11.7714 26.7714 11.8022 26.8023 11.824C26.8332 11.8458 26.8701 11.8575 26.908 11.8575C26.9459 11.8575 26.9829 11.8458 27.0138 11.824C27.0447 11.8022 27.068 11.7714 27.0805 11.7359C27.0254 10.8657 26.7906 10.0161 26.3907 9.23975C26.3777 9.20796 26.3739 9.17313 26.38 9.13932C26.3861 9.10551 26.4018 9.07412 26.4252 9.0488C26.4486 9.02348 26.4787 9.00528 26.5121 8.99632C26.5455 8.98737 26.5808 8.98801 26.6139 8.9982C26.656 9.01358 26.7024 9.013 26.7442 8.99658C26.7859 8.98015 26.8201 8.94904 26.8402 8.90918C26.8603 8.86932 26.8648 8.82351 26.853 8.78052C26.8412 8.73752 26.8139 8.70036 26.7762 8.67612C25.9064 8.03708 24.9756 7.48421 23.997 7.02547C23.7536 6.76378 21.4816 4.40859 20.8325 4.42872C20.1833 4.44885 19.6356 5.87807 19.4125 6.4417C19.3954 6.45936 19.375 6.47342 19.3523 6.48302C19.3296 6.49262 19.3052 6.49757 19.2806 6.49757C19.256 6.49757 19.2316 6.49262 19.2089 6.48302C19.1863 6.47342 19.1658 6.45936 19.1487 6.4417L17.9519 5.6969C17.9251 5.67907 17.894 5.6686 17.8618 5.66657C17.8296 5.66454 17.7974 5.67101 17.7686 5.68533C17.7397 5.69965 17.7152 5.7213 17.6975 5.74809C17.6798 5.77487 17.6696 5.80583 17.6679 5.83781V6.76378C17.6605 6.79773 17.6457 6.8297 17.6247 6.85749C17.6037 6.88528 17.5769 6.90825 17.5462 6.92482C13.5499 8.21314 13.1645 9.72287 13.1239 10.1053C13.1397 10.1441 13.1397 10.1874 13.1239 10.2261C11.8613 11.0837 10.8247 12.2297 10.1013 13.5677C11.1818 12.2581 12.4617 11.1239 13.8947 10.206Z" fill="#000100"/>
<path d="M20.9754 6.54236C20.8132 6.54236 20.2654 7.73003 20.4683 7.89107L21.9694 9.119C21.9273 8.17611 21.5786 7.27212 20.9754 6.54236Z" fill="#000100"/>
<path d="M21.7872 13.9905C22.0306 14.1515 22.9029 14.8762 22.9029 14.8762C22.5026 14.3594 22.3077 13.7146 22.3552 13.0645C22.4439 12.4282 22.3778 11.78 22.1626 11.1742C21.9473 10.5683 21.5891 10.0224 21.1178 9.58203C21.523 11.0721 21.3791 12.6567 20.7121 14.0509C20.4546 14.5081 20.3626 15.0389 20.4511 15.5552C20.5397 16.0715 20.8036 16.5422 21.1989 16.8892C21.663 17.3229 21.9515 17.9099 22.0104 18.5398C22.0104 18.5398 22.5784 16.3658 22.0104 15.5405C21.4424 14.7151 21.5641 13.7489 21.7872 13.9905Z" fill="#000100"/>
<path d="M20.6508 10.3069C20.6508 10.3069 19.6162 9.76342 19.0685 10.5686C18.7725 11.3278 18.7369 12.1626 18.967 12.9439C18.9873 12.2394 19.8393 10.2063 20.6508 10.3069Z" fill="#000100"/>
<path d="M18.6218 12.9438C18.0335 12.6217 16.8772 13.9302 16.3498 13.8899C16.0156 13.7945 15.7064 13.6281 15.4437 13.4021C15.1809 13.1762 14.971 12.8961 14.8283 12.5815C14.6458 12.0984 13.9763 12.4607 13.7329 12.8029C13.7329 12.8029 14.4632 12.5412 14.4226 13.0243C14.3821 13.5074 14.0981 15.0373 15.9643 14.836C17.8306 14.6347 17.9929 15.8425 17.9929 15.8425C17.9929 15.8425 17.9929 14.4938 17.2018 14.1919C17.2018 14.1919 17.7901 13.5678 18.3783 13.9503C18.9666 14.3328 19.2303 15.4198 19.0478 17.3321C19.8592 15.4198 19.5549 13.4269 18.6218 12.9438Z" fill="#000100"/>
<path d="M27.7685 18.2786C27.8225 17.4896 27.6978 16.6985 27.4033 15.9636C27.2365 15.1762 27.2022 14.3668 27.3019 13.5682C26.6222 15.2075 26.4802 17.0177 26.8962 18.7416C27.1193 20.8955 24.2996 22.6065 24.2996 22.6065C24.8742 21.2116 25.0701 19.6915 24.8676 18.1981C25.1011 18.3177 25.3134 18.4741 25.4965 18.661C25.851 17.128 25.7452 15.5254 25.1922 14.0513C25.5622 14.2152 25.9098 14.4249 26.2268 14.6753C26.1636 13.9547 25.9259 13.2598 25.5338 12.65C25.1418 12.0401 24.607 11.5333 23.9751 11.1728C24.5202 11.8936 24.9323 12.7046 25.1922 13.5682C24.7156 13.3999 24.2275 13.2653 23.7316 13.1656C24.5238 14.5077 24.9762 16.0204 25.0502 17.574C24.6097 17.2686 24.1327 17.0184 23.6302 16.8292C23.9361 17.489 24.0945 18.2066 24.0945 18.9328C24.0945 19.659 23.9361 20.3766 23.6302 21.0364C23.604 20.6491 23.4783 20.2748 23.2651 19.9494C23.1702 20.4109 22.9153 20.8248 22.5446 21.1191C22.174 21.4133 21.7111 21.5692 21.2365 21.5598C22.6362 19.3253 20.2222 18.339 19.0253 19.1039C18.1999 19.8345 17.6851 20.8491 17.5851 21.9422C17.1414 22.0233 16.6833 21.964 16.2756 21.7725C15.8679 21.581 15.5311 21.2672 15.3131 20.8753C15.0696 20.3922 15.7391 19.889 15.8811 19.889C16.6014 19.7055 17.2867 19.4063 17.9096 19.0033C18.6196 18.5604 19.1065 17.6546 17.9096 16.5072C16.7128 15.3598 15.3131 16.1046 13.7511 16.95C12.1891 17.7955 12.4122 17.4734 11.8442 17.1312C11.2762 16.789 10.7893 15.863 11.2559 15.4604C11.7225 15.0578 11.7022 13.9909 11.0531 13.8903C10.4039 13.7896 9.40992 14.2727 9.2882 14.6955C9.16649 15.1182 10.4648 16.024 10.4648 16.024C10.8993 16.8983 11.6123 17.6059 12.4933 18.037C12.5158 18.0464 12.54 18.0513 12.5643 18.0513C12.5887 18.0513 12.6129 18.0464 12.6353 18.037C12.9396 18.4396 13.5482 18.963 13.7916 18.963C13.7916 18.963 13.7916 18.963 13.9133 18.8221V18.5C13.9133 18.1981 13.9133 17.7552 13.9133 17.2721C14.4449 16.8861 15.043 16.5996 15.6782 16.4266C16.8953 16.2253 16.7736 17.1513 16.7736 17.1513C16.1077 17.7446 15.6523 18.5353 15.4753 19.4059C15.3809 19.4563 15.2925 19.5171 15.2116 19.587C14.8737 19.5595 14.5437 19.4708 14.2379 19.3253C14.2379 19.3253 14.1162 19.3253 14.0959 19.3253C14.0756 19.3253 14.0959 19.3253 14.0959 19.4461C14.1291 20.0546 14.3645 20.6351 14.7653 21.0968C14.8292 21.3236 14.9248 21.5405 15.0493 21.7409C16.0433 23.2909 18.2748 22.6669 18.2748 22.6669C18.3423 21.6646 18.6113 20.6859 19.0659 19.7883C19.1875 19.612 19.357 19.4736 19.5548 19.3892C19.7526 19.3048 19.9704 19.2779 20.183 19.3116C20.3956 19.3454 20.5942 19.4384 20.7555 19.5798C20.9169 19.7212 21.0345 19.9052 21.0945 20.1104C21.2973 21.0766 19.8976 22.3046 19.8976 22.3046C20.9263 22.4251 21.9682 22.2505 22.8999 21.8013C22.7157 22.8728 22.2544 23.8786 21.5611 24.7201C23.0911 24.4039 24.5183 23.7162 25.7149 22.7185C26.9114 21.7209 27.8401 20.4444 28.4176 19.0033C29.1401 17.6704 29.503 16.1747 29.471 14.6616C29.439 13.1484 29.0133 11.6692 28.2351 10.3676C28.7202 11.645 28.9293 13.0094 28.8489 14.3723C28.7686 15.7351 28.4005 17.066 27.7685 18.2786ZM10.9922 14.6351C10.6676 14.6351 10.6473 14.8766 10.8299 15.0578C11.0125 15.239 10.8299 15.5611 10.6271 15.5812C10.288 15.3752 10.003 15.0923 9.79535 14.7559C9.79535 14.7559 10.6068 14.1318 10.8299 14.2929C11.0531 14.4539 10.9922 14.6351 10.9922 14.6351ZM13.7916 18.5403V18.7818C13.4595 18.5774 13.1646 18.3188 12.9193 18.0169C13.2393 17.8709 13.5449 17.6957 13.8322 17.4935C13.8119 17.9162 13.7916 18.2786 13.7916 18.5403ZM16.2868 19.2448C16.3882 19.2448 16.5708 18.0169 17.4836 17.574C17.7879 17.4331 18.1328 18.2987 17.4836 18.7416C17.1414 19.0194 16.726 19.1941 16.2868 19.2448ZM14.7856 20.6942C14.5846 20.3667 14.4471 20.0049 14.3799 19.6273C14.6332 19.7298 14.8993 19.7976 15.1711 19.8286C14.9444 20.0634 14.808 20.3698 14.7856 20.6942Z" fill="#000100"/>
<path d="M13.7511 14.9567C13.1927 15.3992 12.7362 15.9552 12.4122 16.5872C12.4122 16.5872 13.7511 15.2586 14.2379 15.3995C14.2926 15.4132 14.3438 15.438 14.3883 15.4723C14.4327 15.5067 14.4695 15.5499 14.4962 15.5991C14.5229 15.6483 14.539 15.7026 14.5434 15.7583C14.5479 15.8141 14.5406 15.8701 14.5219 15.9229C15.0899 15.2385 14.4002 14.6145 13.7511 14.9567Z" fill="#000100"/>
<path d="M13.5306 14.2926C13.8348 14.1919 13.9363 14.2926 13.9363 14.2926C13.7943 13.4874 12.6786 14.6348 12.1511 15.5406C12.561 15.0733 13.0239 14.6546 13.5306 14.2926Z" fill="#000100"/>
<path d="M13.0826 13.4271C12.7564 13.6323 12.496 13.9256 12.332 14.2726C12.6879 13.9365 13.0997 13.6641 13.5492 13.4674C13.4851 13.4136 13.4059 13.3809 13.3223 13.3737C13.2388 13.3665 13.155 13.3852 13.0826 13.4271Z" fill="#000100"/>
<path d="M18.0317 8.15321C18.0317 8.03243 17.7883 7.69022 17.5043 7.75061C16.8724 8.13985 16.2871 8.59907 15.7597 9.11944C14.7454 10.0051 17.9303 8.29412 18.0317 8.15321Z" fill="#000100"/>
<path d="M15.2742 11.0314C14.9091 11.2126 14.9091 11.7762 15.2742 11.7561C15.6394 11.7359 15.7814 11.1723 15.8219 11.1522C16.0861 11.1613 16.3485 11.1054 16.5856 10.9895C16.8228 10.8736 17.0273 10.7013 17.1811 10.4879H17.5868C17.3563 10.9282 17.0846 11.346 16.7754 11.7359C16.3899 12.1385 16.2277 12.2593 16.0248 12.3197C15.7839 12.3685 15.5355 12.3685 15.2945 12.3197C15.4162 12.521 16.2479 12.984 17.0999 12.058C17.9519 11.132 18.0737 10.3268 18.3779 10.045L17.7694 9.80347L19.4937 8.77685C20.0617 8.45477 19.1894 7.66971 18.9459 7.60933C18.7025 7.54894 18.9459 7.9314 18.9459 8.05218C18.9459 8.17295 18.0331 9.0788 17.6274 9.76321C17.2778 9.73018 16.9251 9.77136 16.5928 9.88399C15.8625 10.0249 15.8017 10.2866 15.8017 10.2866C15.8017 10.2866 15.3554 10.1255 15.3959 9.90412C15.3314 10.0354 15.3206 10.1864 15.366 10.3253C15.4115 10.4643 15.5094 10.5803 15.6394 10.6489C15.6394 10.6489 15.6191 10.8502 15.2742 11.0314ZM16.5319 10.4275C16.672 10.3942 16.8179 10.3942 16.9579 10.4275C16.8655 10.5498 16.7463 10.6496 16.6092 10.7194C16.4721 10.7892 16.3208 10.827 16.1668 10.8301C16.2714 10.6617 16.4182 10.523 16.5928 10.4275H16.5319Z" fill="#000100"/>
<path d="M19.4326 2.17433C16.888 2.17035 14.3995 2.91546 12.2818 4.31538C10.1641 5.7153 8.51252 7.70711 7.53598 10.0388C6.55944 12.3704 6.30185 14.9371 6.79581 17.4141C7.28976 19.8911 8.51307 22.167 10.3109 23.9539C12.1088 25.7407 14.4004 26.9582 16.8957 27.4523C19.3911 27.9463 21.9781 27.6948 24.3293 26.7294C26.6806 25.7641 28.6904 24.1283 30.1045 22.0291C31.5186 19.9299 32.2734 17.4617 32.2734 14.9367C32.2734 11.5554 30.9212 8.31226 28.5137 5.91944C26.1061 3.52662 22.8401 2.17967 19.4326 2.17433ZM19.4326 26.7932C17.0637 26.7971 14.7469 26.1035 12.7756 24.8C10.8042 23.4965 9.26706 21.6418 8.35868 19.4708C7.45029 17.2998 7.21156 14.9102 7.67273 12.6045C8.13389 10.2988 9.2742 8.1807 10.9493 6.51851C12.6243 4.85633 14.7588 3.72478 17.0823 3.26716C19.4059 2.80954 21.8141 3.04644 24.0018 3.94784C26.1896 4.84925 28.0587 6.37462 29.3723 8.3308C30.6858 10.287 31.3849 12.586 31.3809 14.9367C31.3755 18.0796 30.1149 21.0922 27.8754 23.3146C25.6358 25.537 22.5998 26.7878 19.4326 26.7932Z" fill="#000100"/>
<path d="M63.7167 10.9913C61.642 10.8432 59.5607 11.1667 57.631 11.9374L58.8279 14.1517C60.001 13.5865 61.2985 13.3234 62.601 13.3867C64.873 13.3867 64.6296 14.675 64.6296 14.675V15.3594C59.0713 15.3594 57.1036 16.7685 57.0022 18.9426C56.9007 21.1166 58.9293 22.6464 63.0879 22.6464C65.0423 22.7668 67.0023 22.5279 68.8693 21.9419V14.675C68.8287 13.0445 67.429 11.1724 63.7167 10.9913ZM64.4673 20.4523C64.4673 20.4523 60.8362 20.9958 60.8362 18.9023C60.8362 17.1309 64.4673 17.3523 64.4673 17.3523V20.4523Z" fill="#000100"/>
<path d="M103.457 10.9913C101.382 10.8432 99.3007 11.1667 97.3711 11.9374L98.568 14.1517C99.741 13.5865 101.039 13.3234 102.341 13.3867C104.613 13.3867 104.37 14.675 104.37 14.675V15.3594C98.8114 15.3594 96.8437 16.7685 96.7422 18.9426C96.6408 21.1166 98.7708 22.6464 102.828 22.6464C104.782 22.7668 106.742 22.5279 108.609 21.9419V14.675C108.569 13.0445 107.169 11.1724 103.457 10.9913ZM104.207 20.4523C104.207 20.4523 100.576 20.9958 100.576 18.9023C100.576 17.1309 104.207 17.3523 104.207 17.3523V20.4523Z" fill="#000100"/>
<path d="M75.4206 18.3386L72.9863 11.2731H68.3815L73.6355 22.3244L71.5258 27.0347H75.948L83.0278 11.2731H78.5852L75.4206 18.3386Z" fill="#000100"/>
<path d="M49.3332 7.30725L46.0672 16.8086L42.8215 7.30725H37.9123L35.6809 22.4651H39.8395L40.8741 12.2793L44.7689 22.4651H46.0672H47.3655L51.2806 12.2793L52.2949 22.4651H56.4738L54.2221 7.30725H49.3332Z" fill="#000100"/>
<path d="M91.8942 11.2934C90.5281 11.2306 89.1602 11.3732 87.8371 11.7161V6.14014H83.6582V21.8012C83.6582 21.8012 84.5102 22.6466 88.9731 22.707C93.4359 22.7674 96.0122 20.1505 96.0122 16.9901C96.0122 12.3603 93.5576 11.2934 91.8942 11.2934ZM88.6282 20.0297C88.3794 19.95 88.1356 19.8559 87.8979 19.7479V14.1116C89.0339 13.5479 91.9551 13.1453 91.9551 16.809C91.9551 20.4726 89.1556 20.1908 88.6282 20.0297Z" fill="#000100"/>
<path d="M116.176 10.9709C114.081 10.9187 111.988 11.1352 109.948 11.615V22.6663H114.188V14.9767C114.188 12.9637 117.657 13.3059 117.657 14.9767V22.6663H121.897V13.6079C121.897 12.5209 120.172 10.9709 116.176 10.9709Z" fill="#000100"/>
<path d="M131.836 16.3862L136.035 11.2733H131.288L127.698 15.6817V6.14014H123.438V22.6668H127.698V17.3323L131.734 22.6466H136.38L131.836 16.3862Z" fill="#000100"/>
</g>
<defs>
<clipPath id="clip0">
<rect width="142" height="31" fill="white"/>
</clipPath>
</defs>
</svg>
