<svg width="79" height="27" viewBox="0 0 79 27" fill="none" xmlns="http://www.w3.org/2000/svg">
<g clip-path="url(#clip0)">
<path d="M66.168 0.443359C59.0828 0.443359 53.3359 6.23427 53.3359 13.3646C53.3359 20.4949 59.0828 26.2858 66.168 26.2858C73.2532 26.2858 79.0001 20.4949 79.0001 13.3646C79.0001 6.23427 73.2532 0.443359 66.168 0.443359ZM66.168 22.1494C61.7595 22.1494 58.1775 18.21 58.1775 13.404C58.1775 8.59791 61.7595 4.65851 66.168 4.65851C70.5766 4.65851 74.1586 8.59791 74.1586 13.404C74.1586 18.21 70.5766 22.1494 66.168 22.1494Z" fill="#4D3490"/>
<path d="M12.8321 0.443359C5.74689 0.443359 0 6.23427 0 13.3646C0 20.4949 5.74689 26.2858 12.8321 26.2858C19.9173 26.2858 25.6642 20.4949 25.6642 13.3646C25.6642 6.23427 19.9173 0.443359 12.8321 0.443359ZM12.8321 22.1494C8.42352 22.1494 4.84155 18.21 4.84155 13.404C4.84155 8.59791 8.42352 4.65851 12.8321 4.65851C17.2407 4.65851 20.8226 8.59791 20.8226 13.404C20.8226 18.21 17.2407 22.1494 12.8321 22.1494Z" fill="#4D3490"/>
<path d="M43.6133 5.36765H46.1718L40.4643 19.3919L34.4812 5.36765H36.8036V1.19189H26.6875V5.36765H29.2854L37.1185 23.8828C37.7876 25.4192 39.2834 26.4434 40.976 26.4434H42.0388L50.974 5.36765L51.7219 3.59493V1.19189H43.6133V5.36765Z" fill="#4D3490"/>
</g>
<defs>
<clipPath id="clip0">
<rect width="79" height="26" fill="white" transform="translate(0 0.443359)"/>
</clipPath>
</defs>
</svg>
