<svg width="94" height="26" viewBox="0 0 94 26" fill="none" xmlns="http://www.w3.org/2000/svg">
<g clip-path="url(#clip0)">
<path d="M11.2665 0.443249H3.96536C3.46788 0.443249 3.04147 0.807831 2.96093 1.30025L0.00921243 20.0124C-0.0476424 20.3817 0.236632 20.7131 0.610926 20.7131H4.09802C4.5955 20.7131 5.02191 20.3486 5.10246 19.8561L5.89843 14.8088C5.97423 14.3164 6.40064 13.9518 6.89812 13.9518H9.21022C14.0192 13.9518 16.7956 11.627 17.5205 7.01522C17.8474 4.99817 17.5347 3.412 16.5871 2.30405C15.5495 1.08719 13.7112 0.443249 11.2665 0.443249ZM12.1098 7.28037C11.7118 9.89874 9.7077 9.89874 7.77464 9.89874H6.6707L7.44298 5.00764C7.49036 4.71408 7.74621 4.49628 8.0447 4.49628H8.55165C9.86879 4.49628 11.1149 4.49628 11.7592 5.24912C12.1382 5.6942 12.252 6.35708 12.1098 7.28037Z" fill="#283B82"/>
<path d="M33.0937 7.19519H29.5971C29.2987 7.19519 29.0428 7.413 28.9954 7.70656L28.8391 8.68193L28.5927 8.32682C27.8346 7.22834 26.1479 6.86375 24.4613 6.86375C20.5951 6.86375 17.2975 9.78989 16.6532 13.8903C16.3168 15.9357 16.7953 17.896 17.9561 19.2596C19.0221 20.5143 20.5477 21.0352 22.3624 21.0352C25.4752 21.0352 27.2045 19.0323 27.2045 19.0323L27.0482 20.003C26.9913 20.3723 27.2756 20.7085 27.6499 20.7085H30.8006C31.3028 20.7085 31.7245 20.3439 31.805 19.8514L33.6954 7.89121C33.7523 7.52663 33.4633 7.19519 33.0937 7.19519ZM28.2184 13.9944C27.882 15.9925 26.2948 17.3325 24.2717 17.3325C23.2578 17.3325 22.4429 17.0058 21.9217 16.3903C21.4053 15.7795 21.2063 14.9083 21.3721 13.9329C21.6848 11.9537 23.3005 10.5711 25.2904 10.5711C26.2853 10.5711 27.0908 10.9026 27.6214 11.5228C28.1568 12.1526 28.37 13.0285 28.2184 13.9944Z" fill="#283B82"/>
<path d="M51.7139 7.19525H48.1984C47.862 7.19525 47.5493 7.36097 47.3598 7.64033L42.5129 14.771L40.4614 7.91969C40.3335 7.48881 39.9355 7.19525 39.4854 7.19525H36.0315C35.6098 7.19525 35.3208 7.60718 35.4534 8.00018L39.3243 19.3496L35.6856 24.4822C35.4013 24.8846 35.6856 25.4434 36.1831 25.4434H39.6939C40.0255 25.4434 40.3382 25.2824 40.5277 25.0078L52.2161 8.14696C52.4957 7.7445 52.2067 7.19525 51.7139 7.19525Z" fill="#283B82"/>
<path d="M63.3506 0.443249H56.0495C55.552 0.443249 55.1256 0.807831 55.0498 1.30025L52.0981 20.0124C52.0412 20.3817 52.3255 20.7131 52.6998 20.7131H56.4475C56.7933 20.7131 57.0918 20.4575 57.1487 20.1118L57.9873 14.8088C58.0631 14.3164 58.4895 13.9518 58.987 13.9518H61.2991C66.1081 13.9518 68.8845 11.627 69.6094 7.01522C69.9363 4.99817 69.6236 3.412 68.676 2.30405C67.6337 1.08719 65.7906 0.443249 63.3506 0.443249ZM64.1892 7.28037C63.7912 9.89874 61.7871 9.89874 59.854 9.89874H58.7548L59.5271 5.00764C59.5745 4.71408 59.8256 4.49628 60.1288 4.49628H60.6358C61.9529 4.49628 63.199 4.49628 63.8386 5.24912C64.2224 5.6942 64.3361 6.35708 64.1892 7.28037Z" fill="#469BDB"/>
<path d="M85.1732 7.19519H81.6814C81.3829 7.19519 81.127 7.413 81.0797 7.70656L80.9233 8.68193L80.6769 8.32682C79.9189 7.22834 78.2322 6.86375 76.5502 6.86375C72.6841 6.86375 69.3865 9.78989 68.7422 13.8903C68.4105 15.9357 68.8843 17.896 70.0451 19.2596C71.1111 20.5143 72.6367 21.0352 74.4513 21.0352C77.5641 21.0352 79.2935 19.0323 79.2935 19.0323L79.1371 20.003C79.0803 20.3723 79.3645 20.7085 79.7388 20.7085H82.8895C83.387 20.7085 83.8134 20.3439 83.8892 19.8514L85.7796 7.89121C85.8365 7.52663 85.5475 7.19519 85.1732 7.19519ZM80.2979 13.9944C79.9615 15.9925 78.3743 17.3325 76.3512 17.3325C75.3373 17.3325 74.5224 17.0058 74.0012 16.3903C73.4848 15.7795 73.2905 14.9083 73.4516 13.9329C73.7691 11.9537 75.38 10.5711 77.3699 10.5711C78.3648 10.5711 79.1703 10.9026 79.7009 11.5228C80.2458 12.1526 80.4543 13.0285 80.2979 13.9944Z" fill="#469BDB"/>
<path d="M89.2944 0.959349L86.2953 20.0124C86.2385 20.3817 86.5228 20.7131 86.8971 20.7131H89.9104C90.4126 20.7131 90.8343 20.3486 90.9148 19.8561L93.8713 1.14401C93.9281 0.774691 93.6438 0.438515 93.2695 0.438515H89.8962C89.5977 0.443249 89.3418 0.661053 89.2944 0.959349Z" fill="#469BDB"/>
</g>
<defs>
<clipPath id="clip0">
<rect width="94" height="25" fill="white" transform="translate(0 0.443359)"/>
</clipPath>
</defs>
</svg>
