<svg width="149" height="32" viewBox="0 0 149 32" fill="none" xmlns="http://www.w3.org/2000/svg">
<g clip-path="url(#clip0)">
<path fill-rule="evenodd" clip-rule="evenodd" d="M57.0284 1.26976H52.3937C52.2613 1.26976 52.1289 1.40023 52.1289 1.5307V14.8823C52.1289 15.0127 52.2613 15.1432 52.3937 15.1432H54.4683C54.6007 15.1432 54.7331 15.0127 54.7331 14.8823V10.0983H56.8077C59.8092 10.0983 61.7513 8.22823 61.7513 5.31437C61.7513 2.74844 60.0299 1.26976 57.0284 1.26976ZM54.7331 3.44428H56.7635C58.3967 3.44428 59.0588 4.05315 59.0588 5.48833C59.0588 7.14097 58.2201 7.96729 56.587 7.96729H54.7331V3.44428ZM66.7391 4.57503C64.0466 4.57503 62.5017 6.48861 62.5017 9.88087C62.5017 13.5341 64.0466 15.4042 67.0922 15.4042C68.4164 15.4042 69.6081 15.0127 70.2261 14.6648C70.3144 14.6213 70.3585 14.4909 70.3585 14.4039L70.2261 12.7512C70.2261 12.6643 70.1819 12.5773 70.0937 12.5338C70.0054 12.4903 69.9171 12.4903 69.8288 12.5338C68.946 13.0122 68.1074 13.2296 67.2687 13.2296C65.5914 13.2296 65.1059 11.8379 65.0176 10.5767H70.2261C70.3585 10.5767 70.4909 10.4462 70.4909 10.3158V9.53295C70.5792 6.22767 69.255 4.57503 66.7391 4.57503ZM66.6949 6.61909C67.5777 6.61909 68.0191 7.31493 68.1074 8.70663H65.1059C65.15 7.70635 65.5914 6.61909 66.6949 6.61909ZM80.2457 4.749H78.436C78.3036 4.749 78.1712 4.83598 78.1712 5.00994L78.127 5.1839C77.5974 4.83598 76.9353 4.57503 76.0525 4.57503C73.0951 4.57503 72.0799 7.53239 72.0799 10.0983C72.0799 13.4471 73.4482 15.3607 75.8759 15.3607C76.6704 15.3607 77.4208 15.0997 78.0829 14.6213C78.0829 16.3609 77.5532 17.1438 76.2732 17.1438C75.258 17.1438 74.0662 16.7524 73.4482 16.3609C73.36 16.3175 73.2717 16.3175 73.1834 16.3609C73.0951 16.4044 73.051 16.4914 73.0069 16.5784L72.6979 18.318C72.6979 18.4485 72.742 18.5355 72.8303 18.6225C73.5365 19.0139 74.949 19.4053 76.3615 19.4053C80.1133 19.4053 80.5547 16.7959 80.5547 14.7953V5.00994C80.5106 4.87947 80.3781 4.749 80.2457 4.749ZM76.3615 13.1861C74.8607 13.1861 74.64 11.2726 74.64 10.1418C74.64 6.70607 75.9642 6.70607 76.4056 6.70607C76.9353 6.70607 77.4208 6.96701 77.9505 7.31493V12.4468C77.5974 12.7947 77.0677 13.1861 76.3615 13.1861ZM91.3689 13.1427C91.2806 13.0992 91.1923 13.0992 91.1482 13.0992C90.9275 13.1861 90.795 13.1861 90.7068 13.1861C90.5744 13.1861 90.4419 13.1861 90.4419 12.5773V8.96757C90.4419 6.14069 89.7798 4.53154 86.4252 4.53154C85.4983 4.53154 84.1741 4.749 83.512 4.92296C83.3796 4.96645 83.2913 5.09692 83.3355 5.22739L83.512 6.74956C83.512 6.83654 83.5562 6.92352 83.6445 6.96701C83.7327 7.0105 83.821 7.0105 83.8652 7.0105C84.5714 6.79305 85.4542 6.66258 86.1604 6.66258C87.4846 6.66258 88.0143 7.14097 88.0143 8.27172V8.44568C87.5287 8.3587 87.1315 8.31521 86.6459 8.31521C83.9976 8.31521 82.4968 9.61993 82.4968 12.0119C82.4968 14.0994 83.7327 15.3607 85.6749 15.3607C86.6901 15.3607 87.5729 15.0562 88.3674 14.4039C88.6322 15.0997 89.1619 15.3607 90.0005 15.3607C90.4419 15.3607 91.0157 15.2737 91.5013 15.0997C91.6337 15.0562 91.722 14.9258 91.6778 14.8388L91.5454 13.3601C91.5013 13.2731 91.4571 13.1861 91.3689 13.1427ZM87.926 10.2723V12.4903C87.5287 12.8817 86.8225 13.2731 86.1604 13.2731C85.1011 13.2731 84.9686 12.2728 84.9686 11.8379C84.9686 10.6202 85.5425 10.1418 86.8666 10.1418C87.308 10.1418 87.6611 10.2288 87.926 10.2723ZM100.859 1.26976H98.8726C98.7401 1.26976 98.6077 1.40023 98.6077 1.5307V5.05343C98.1222 4.79249 97.5042 4.57503 96.7539 4.57503C93.7524 4.57503 92.693 7.53239 92.693 10.0983C92.693 13.4036 94.1055 15.3607 96.489 15.3607C97.3277 15.3607 98.1222 15.0997 98.7843 14.5778V14.9258C98.7843 15.0562 98.9167 15.1867 99.0491 15.1867H100.859C100.991 15.1867 101.124 15.0562 101.124 14.9258V1.57419C101.168 1.40023 101.035 1.26976 100.859 1.26976ZM98.6077 7.27144V12.4468C98.0781 12.9687 97.5484 13.1861 97.0187 13.1861C95.9594 13.1861 95.2973 12.0554 95.2973 10.0983C95.2973 7.79333 95.9152 6.66258 97.107 6.66258C97.6808 6.66258 98.1663 6.96701 98.6077 7.27144ZM112.114 13.1427C112.026 13.0992 111.938 13.0992 111.894 13.0992C111.673 13.1861 111.541 13.1861 111.452 13.1861C111.32 13.1861 111.187 13.1861 111.187 12.5773V8.96757C111.187 6.14069 110.525 4.53154 107.171 4.53154C106.244 4.53154 104.92 4.749 104.258 4.92296C104.125 4.96645 104.037 5.09692 104.081 5.22739L104.258 6.74956C104.258 6.83654 104.302 6.92352 104.39 6.96701C104.478 7.0105 104.567 7.0105 104.611 7.0105C105.317 6.79305 106.2 6.66258 106.906 6.66258C108.186 6.66258 108.76 7.14097 108.76 8.27172V8.44568C108.274 8.3587 107.877 8.31521 107.391 8.31521C104.743 8.31521 103.242 9.61993 103.242 12.0119C103.242 14.0994 104.478 15.3607 106.42 15.3607C107.436 15.3607 108.318 15.0562 109.113 14.4039C109.378 15.0997 109.907 15.3607 110.746 15.3607C111.187 15.3607 111.761 15.2737 112.247 15.0997C112.379 15.0562 112.468 14.9258 112.423 14.8388L112.291 13.3601C112.203 13.2731 112.159 13.1861 112.114 13.1427ZM108.672 10.2723V12.4903C108.274 12.8817 107.568 13.2731 106.906 13.2731C105.847 13.2731 105.714 12.2728 105.714 11.8379C105.714 10.6202 106.288 10.1418 107.612 10.1418C108.009 10.1418 108.363 10.2288 108.672 10.2723ZM115.16 1.05231C114.277 1.05231 113.703 1.61768 113.703 2.48749C113.703 3.3573 114.321 3.96617 115.16 3.96617C116.043 3.96617 116.617 3.40079 116.617 2.48749C116.617 1.57419 116.087 1.05231 115.16 1.05231ZM116.131 4.749H114.145C113.968 4.749 113.88 4.87947 113.88 5.00994V14.8823C113.88 15.0127 114.012 15.1432 114.145 15.1432H116.131C116.263 15.1432 116.396 15.0127 116.396 14.8823V5.00994C116.44 4.87947 116.308 4.749 116.131 4.749ZM127.387 13.1427C127.298 13.0992 127.21 13.0992 127.166 13.0992C126.945 13.1861 126.813 13.1861 126.725 13.1861C126.592 13.1861 126.46 13.1861 126.46 12.5773V8.96757C126.46 6.14069 125.798 4.53154 122.443 4.53154C121.516 4.53154 120.192 4.749 119.53 4.92296C119.397 4.96645 119.309 5.09692 119.353 5.22739L119.53 6.74956C119.53 6.83654 119.574 6.92352 119.662 6.96701C119.751 7.0105 119.839 7.0105 119.883 7.0105C120.589 6.79305 121.472 6.66258 122.178 6.66258C123.502 6.66258 124.032 7.14097 124.032 8.27172V8.44568C123.547 8.3587 123.149 8.31521 122.664 8.31521C120.015 8.31521 118.515 9.61993 118.515 12.0119C118.515 14.0994 119.751 15.3607 121.693 15.3607C122.708 15.3607 123.591 15.0562 124.385 14.4039C124.65 15.0997 125.18 15.3607 126.018 15.3607C126.46 15.3607 127.034 15.2737 127.519 15.0997C127.651 15.0562 127.74 14.9258 127.696 14.8388L127.563 13.3601C127.519 13.2731 127.475 13.1861 127.387 13.1427ZM123.944 10.2723V12.4903C123.546 12.8817 122.84 13.2731 122.178 13.2731C121.119 13.2731 120.986 12.2728 120.986 11.8379C120.986 10.6202 121.56 10.1418 122.884 10.1418C123.326 10.1418 123.679 10.2288 123.944 10.2723ZM137.406 6.83654C137.141 5.35786 136.126 4.57503 134.449 4.57503C133.301 4.57503 132.33 5.05343 131.624 5.53182L131.58 5.00994C131.58 4.87947 131.447 4.749 131.315 4.749H129.461C129.329 4.749 129.196 4.87947 129.196 5.00994V14.8823C129.196 15.0127 129.329 15.1432 129.461 15.1432H131.447C131.58 15.1432 131.712 15.0127 131.712 14.8823V7.70635C132.242 7.27144 132.992 6.79305 133.787 6.79305C134.626 6.79305 134.846 7.09748 134.89 7.53239C134.934 7.70635 134.934 8.09776 134.934 8.31521V14.8823C134.934 15.0127 135.067 15.1432 135.199 15.1432H137.186C137.318 15.1432 137.45 15.0127 137.45 14.8823V8.09776C137.495 7.70635 137.495 7.18446 137.406 6.83654Z" fill="#00463A"/>
<path fill-rule="evenodd" clip-rule="evenodd" d="M12.5797 10.1417C12.5797 7.14089 13.9481 4.44448 16.155 2.66137C14.4336 1.26968 12.2266 0.443359 9.84309 0.443359C4.41394 0.443359 0 4.7924 0 10.1417C0 15.4911 4.41394 19.8401 9.84309 19.8401C12.2266 19.8401 14.4336 19.0138 16.155 17.5786C13.9922 15.839 12.5797 13.1426 12.5797 10.1417Z" fill="#B7D442"/>
<path fill-rule="evenodd" clip-rule="evenodd" d="M22.4228 0.443359C20.0392 0.443359 17.8323 1.26968 16.1108 2.70486C18.2737 4.48797 19.6861 7.18438 19.6861 10.1852C19.6861 13.1861 18.3178 15.8825 16.1108 17.6656C17.8323 19.0573 19.9951 19.9271 22.4228 19.9271C27.8519 19.9271 32.2659 15.578 32.2659 10.2287C32.31 4.79241 27.8961 0.443359 22.4228 0.443359Z" fill="#70BF4F"/>
<path fill-rule="evenodd" clip-rule="evenodd" d="M19.686 10.1418C19.686 7.14096 18.3177 4.44455 16.1107 2.66144C13.9479 4.44455 12.5354 7.14096 12.5354 10.1418C12.5354 13.1426 13.9037 15.8391 16.1107 17.6222C18.3177 15.8391 19.686 13.1426 19.686 10.1418Z" fill="#17B253"/>
<path fill-rule="evenodd" clip-rule="evenodd" d="M45.022 10.186C45.022 15.5353 40.6081 19.8844 35.1789 19.8844C29.7498 19.8844 25.3358 15.5353 25.3358 10.186C25.3358 4.83666 29.7498 0.48761 35.1789 0.48761C40.6081 0.48761 45.022 4.83666 45.022 10.186Z" fill="#17B253"/>
<path fill-rule="evenodd" clip-rule="evenodd" d="M34.3407 13.4035L34.2965 13.3165L32.8399 10.0548L31.2509 6.48854L31.1185 6.2276L30.9861 6.48854L29.3971 10.0548L27.9405 13.36C27.8963 13.4905 27.8522 13.5775 27.8522 13.6645C27.8522 14.4473 29.2646 15.0562 31.0744 15.0562C32.8841 15.0562 34.2965 14.4473 34.2965 13.6645C34.3848 13.5775 34.3848 13.4905 34.3407 13.4035ZM31.1626 13.0556H28.7791L29.9709 10.3157L31.1626 7.5758L32.3544 10.3157L33.5462 13.0556H31.1626Z" fill="white"/>
<path fill-rule="evenodd" clip-rule="evenodd" d="M42.3738 13.4035L42.3297 13.3165L40.8731 10.0548L39.2841 6.48854L39.1517 6.2276L39.0193 6.48854L37.5185 10.0548L36.0619 13.36C36.0178 13.4905 35.9736 13.5775 35.9736 13.6645C35.9736 14.4473 37.3861 15.0562 39.1958 15.0562C41.0055 15.0562 42.418 14.4473 42.418 13.6645C42.418 13.5775 42.3738 13.4905 42.3738 13.4035ZM39.1958 13.0556H36.8123L38.004 10.3157L39.1958 7.5758L40.3876 10.3157L41.5793 13.0556H39.1958Z" fill="white"/>
<path fill-rule="evenodd" clip-rule="evenodd" d="M40.5643 6.96706C38.7545 5.92329 36.9007 5.35791 35.0468 5.35791C34.2523 5.35791 33.5019 5.44489 32.7516 5.61885C31.3391 5.96678 30.2798 6.57564 29.7942 6.88008C29.706 6.96706 29.706 7.09753 29.7942 7.228L29.8384 7.31498L29.8825 7.40196C29.9267 7.44545 29.9708 7.44545 30.0149 7.44545C30.0591 7.44545 30.0591 7.44545 30.1032 7.44545C30.7653 7.01055 32.575 5.96678 35.0468 5.96678C36.68 5.96678 38.3132 6.40168 39.9463 7.31498C39.9463 7.31498 40.0346 7.35847 40.0787 7.40196C40.0787 7.40196 40.1229 7.44545 40.167 7.44545C40.2111 7.48894 40.2553 7.48894 40.2994 7.48894C40.3877 7.48894 40.4318 7.44545 40.476 7.40196L40.5643 7.228C40.6525 7.14102 40.6525 7.01055 40.5643 6.96706Z" fill="white"/>
<path fill-rule="evenodd" clip-rule="evenodd" d="M52.0845 27.886C52.2169 27.9295 52.3934 27.9295 52.5259 27.9295C52.6583 27.9295 52.7907 27.9295 52.9231 27.886L53.0114 26.3639C53.0555 25.9724 53.0555 25.4505 53.0555 25.0591H53.0997L53.6735 27.3641C53.8059 27.3641 54.0266 27.4076 54.159 27.4076C54.2914 27.4076 54.5121 27.4076 54.6446 27.3641L55.2184 25.0591H55.2625C55.2625 25.4505 55.3067 25.9724 55.3067 26.3639L55.3949 27.886C55.5273 27.9295 55.6598 27.9295 55.7922 27.9295C55.9246 27.9295 56.1453 27.9295 56.2777 27.886L55.9687 24.1023C55.7922 24.0589 55.5273 24.0589 55.3508 24.0589C55.1742 24.0589 54.9535 24.0589 54.777 24.1023L54.4239 25.494C54.3797 25.6245 54.2473 26.2334 54.2032 26.4943H54.159C54.1149 26.2334 53.9825 25.6245 53.9383 25.494L53.5852 24.1023C53.4087 24.0589 53.188 24.0589 53.0114 24.0589C52.8348 24.0589 52.57 24.0589 52.3934 24.1023L52.0845 27.886ZM59.1026 26.7988C59.1468 26.6248 59.1909 26.4508 59.1909 26.2334C59.1909 25.5375 58.7495 25.0591 57.9992 25.0591C57.1164 25.0591 56.7191 25.7115 56.7191 26.5813C56.7191 27.3206 56.9839 28.06 57.9992 28.06C58.3964 28.06 58.8378 27.9295 59.1026 27.7555C59.0585 27.5816 59.0144 27.3641 58.8819 27.2337C58.6612 27.3206 58.3964 27.4076 58.1316 27.4076C57.7343 27.4076 57.646 27.1902 57.6019 26.8857H59.1026V26.7988ZM57.955 25.668C58.2199 25.668 58.3081 25.8855 58.3081 26.1464V26.1899H57.5578C57.6019 25.842 57.7343 25.668 57.955 25.668ZM62.1483 26.0594C62.1483 25.494 61.8834 25.0591 61.3538 25.0591C61.0448 25.0591 60.7799 25.1896 60.5592 25.4071C60.471 25.1896 60.3385 25.0591 60.0737 25.0591H59.7206L59.6765 25.1026V27.886C59.8089 27.9295 59.9854 27.9295 60.1178 27.9295C60.2503 27.9295 60.4268 27.9295 60.5592 27.886V26.0159C60.6917 25.8855 60.8682 25.842 61.0006 25.842C61.1772 25.842 61.2655 25.9724 61.2655 26.1899V27.4076C61.2655 27.7555 61.3979 27.9295 61.751 27.9295C61.9717 27.9295 62.1924 27.8425 62.2807 27.7555C62.1924 27.6251 62.1483 27.4076 62.1483 27.1902V26.0594ZM62.6338 26.4943C62.6338 27.3641 62.9428 27.9295 63.649 27.9295C63.8697 27.9295 64.0904 27.8425 64.3111 27.7121V27.886C64.3111 28.2339 64.1345 28.4514 63.7373 28.4514C63.4724 28.4514 63.2076 28.4079 62.9428 28.2774C62.8104 28.4079 62.7221 28.7123 62.7221 28.9298C63.0311 29.0603 63.4283 29.1038 63.7814 29.1038C64.2228 29.1038 64.6201 28.9733 64.8408 28.7123C65.0173 28.4949 65.1497 28.147 65.1497 27.3641V25.8855C65.1497 25.7115 65.1939 25.5375 65.3263 25.494C65.2822 25.3201 65.1497 25.1461 65.0615 25.0591C64.8408 25.0591 64.6642 25.1461 64.5318 25.2766C64.3552 25.1461 64.1345 25.0156 63.7814 25.0156C63.1635 25.0156 62.6338 25.5375 62.6338 26.4943ZM64.3111 25.9289V27.1032C64.1787 27.2337 64.0463 27.2772 63.8697 27.2772C63.6931 27.2772 63.5166 27.0597 63.5166 26.5378C63.5166 26.0159 63.6049 25.7115 63.9138 25.7115C64.0463 25.668 64.1787 25.755 64.3111 25.9289ZM68.2836 27.4946C68.1512 27.4076 68.1071 27.2772 68.1071 27.1467V26.0159C68.1071 25.3201 67.5774 25.0591 67.0919 25.0591C66.7388 25.0591 66.165 25.1461 65.8118 25.3201C65.856 25.5375 65.9001 25.7985 66.0325 25.9289C66.3415 25.842 66.6063 25.755 66.8712 25.755C67.136 25.755 67.2243 25.8855 67.2243 26.1029V26.1899C67.0919 26.1899 66.9153 26.1899 66.827 26.1899C66.2532 26.1899 65.6794 26.4943 65.6794 27.1467C65.6794 27.5381 65.9443 28.0165 66.5622 28.0165C66.9153 28.0165 67.1802 27.886 67.4009 27.6686C67.5333 27.8425 67.7098 27.973 68.0188 27.973C68.1071 27.886 68.2395 27.6686 68.2836 27.4946ZM66.827 27.3641C66.6505 27.3641 66.5622 27.2337 66.5622 27.1032C66.5622 26.8857 66.6505 26.7553 66.9153 26.7553C67.0036 26.7553 67.0919 26.7553 67.2243 26.7553V27.1902C67.0919 27.2772 66.9595 27.3641 66.827 27.3641ZM70.4023 25.1026H69.7402V24.2763L69.6961 24.2328H69.343C68.9899 24.2328 68.8575 24.3633 68.8575 24.7547V25.1026H68.4161C68.3719 25.1896 68.3719 25.3201 68.3719 25.4071C68.3719 25.5375 68.3719 25.6245 68.4161 25.7115H68.8575V27.1467C68.8575 27.6686 69.0781 27.9295 69.6078 27.9295C69.8285 27.9295 70.1375 27.886 70.3582 27.886C70.3582 27.8425 70.4023 27.7555 70.4023 27.6686C70.4023 27.5381 70.3582 27.3641 70.3141 27.2337H70.0051C69.8285 27.2337 69.7402 27.1467 69.7402 26.9727V25.668H70.4023C70.4465 25.581 70.4465 25.4506 70.4465 25.3636C70.4465 25.3201 70.4023 25.2331 70.4023 25.1026ZM73.2714 27.4946C73.139 27.4076 73.0948 27.2772 73.0948 27.1467V26.0159C73.0948 25.3201 72.5652 25.0591 72.0796 25.0591C71.7265 25.0591 71.1527 25.1461 70.7996 25.3201C70.8437 25.5375 70.8879 25.7985 71.0203 25.9289C71.3293 25.842 71.5941 25.755 71.8589 25.755C72.1238 25.755 72.2121 25.8855 72.2121 26.1029V26.1899C72.0796 26.1899 71.9031 26.1899 71.8148 26.1899C71.241 26.1899 70.6672 26.4943 70.6672 27.1467C70.6672 27.5381 70.932 28.0165 71.55 28.0165C71.9031 28.0165 72.1679 27.886 72.3886 27.6686C72.521 27.8425 72.6976 27.973 73.0066 27.973C73.0948 27.886 73.2273 27.6686 73.2714 27.4946ZM71.8148 27.3641C71.6382 27.3641 71.55 27.2337 71.55 27.1032C71.55 26.8857 71.6382 26.7553 71.9031 26.7553C71.9914 26.7553 72.0796 26.7553 72.2121 26.7553V27.1902C72.0796 27.2772 71.9472 27.3641 71.8148 27.3641ZM73.5362 27.7121C73.8011 27.8425 74.2425 27.973 74.6839 27.973C75.3901 27.973 75.8315 27.6251 75.8315 27.0597C75.8315 26.5813 75.5225 26.3204 75.0811 26.1464L74.728 26.0159C74.5956 25.9724 74.5073 25.8855 74.5073 25.7985C74.5073 25.7115 74.5956 25.6245 74.728 25.6245C74.9928 25.6245 75.3018 25.7115 75.5225 25.842C75.6549 25.755 75.7873 25.4506 75.7873 25.2331C75.5225 25.1026 75.0811 25.0156 74.728 25.0156C74.0659 25.0156 73.6245 25.3636 73.6245 25.9289C73.6245 26.3639 73.9335 26.6248 74.3307 26.7553L74.6397 26.8857C74.8163 26.9292 74.9046 27.0162 74.9046 27.1467C74.9046 27.2772 74.7721 27.3641 74.5956 27.3641C74.3749 27.3641 74.0659 27.2772 73.8011 27.1467C73.6687 27.2772 73.5362 27.5381 73.5362 27.7121ZM76.2729 24.3198C76.2729 24.4068 76.317 24.5372 76.3612 24.6242C76.4494 24.6677 76.626 24.7112 76.8026 24.7112C76.9791 24.7112 77.1557 24.6677 77.2439 24.6242C77.2881 24.5372 77.3322 24.4068 77.3322 24.3198C77.3322 24.2328 77.2881 24.1023 77.2439 24.0154C77.1557 23.9719 76.9791 23.9284 76.8026 23.9284C76.626 23.9284 76.4936 23.9719 76.3612 24.0154C76.317 24.1023 76.2729 24.1893 76.2729 24.3198ZM77.3322 25.755C77.3322 25.3636 77.0674 25.1026 76.7143 25.1026H76.5819C76.4494 25.1026 76.2729 25.1026 76.0963 25.1461C76.0522 25.2331 76.0522 25.3636 76.0522 25.4506C76.0522 25.5375 76.0522 25.668 76.0963 25.755H76.1846C76.4053 25.755 76.4494 25.8855 76.4494 26.0594V27.9295C76.5819 27.973 76.7584 27.973 76.8908 27.973C77.0232 27.973 77.1998 27.973 77.3322 27.9295V25.755ZM79.2302 27.886C79.3626 27.9295 79.5392 27.9295 79.6716 27.9295C79.804 27.9295 79.9364 27.9295 80.0689 27.886L80.1572 26.3639C80.2013 25.9724 80.2013 25.4505 80.2013 25.0591H80.2454L80.8192 27.3641C80.9517 27.3641 81.1724 27.4076 81.3048 27.4076C81.4372 27.4076 81.6579 27.4076 81.7903 27.3641L82.3641 25.0591H82.4083C82.4083 25.4505 82.4524 25.9724 82.4524 26.3639L82.5407 27.886C82.6731 27.9295 82.8055 27.9295 82.9379 27.9295C83.0703 27.9295 83.291 27.9295 83.4235 27.886L83.1145 24.1023C82.9379 24.0589 82.6731 24.0589 82.4965 24.0589C82.32 24.0589 82.0993 24.0589 81.9227 24.1023L81.5696 25.494C81.5255 25.6245 81.3931 26.2334 81.3489 26.4943H81.3048C81.2606 26.2334 81.1282 25.6245 81.0841 25.494L80.731 24.1023C80.5544 24.0589 80.3337 24.0589 80.1572 24.0589C79.9806 24.0589 79.7158 24.0589 79.5392 24.1023L79.2302 27.886ZM86.4249 27.4946C86.2925 27.4076 86.2484 27.2772 86.2484 27.1467V26.0159C86.2484 25.3201 85.7187 25.0591 85.2332 25.0591C84.8801 25.0591 84.3063 25.1461 83.9531 25.3201C83.9973 25.5375 84.0414 25.7985 84.1738 25.9289C84.4828 25.842 84.7477 25.755 85.0125 25.755C85.2773 25.755 85.3656 25.8855 85.3656 26.1029V26.1899C85.2332 26.1899 85.0566 26.1899 84.9683 26.1899C84.3945 26.1899 83.8207 26.4943 83.8207 27.1467C83.8207 27.5381 84.0856 28.0165 84.7035 28.0165C85.0566 28.0165 85.3215 27.886 85.5422 27.6686C85.6746 27.8425 85.8511 27.973 86.1601 27.973C86.2484 27.886 86.3808 27.6686 86.4249 27.4946ZM84.9683 27.3641C84.7918 27.3641 84.7035 27.2337 84.7035 27.1032C84.7035 26.8857 84.7918 26.7553 85.0566 26.7553C85.1449 26.7553 85.2332 26.7553 85.3656 26.7553V27.1902C85.2332 27.2772 85.1008 27.3641 84.9683 27.3641ZM86.6898 27.7121C86.9546 27.8425 87.396 27.973 87.8374 27.973C88.5436 27.973 88.985 27.6251 88.985 27.0597C88.985 26.5813 88.6761 26.3204 88.2347 26.1464L87.8815 26.0159C87.7491 25.9724 87.6609 25.8855 87.6609 25.7985C87.6609 25.7115 87.7491 25.6245 87.8815 25.6245C88.1464 25.6245 88.4554 25.7115 88.6761 25.842C88.8085 25.755 88.9409 25.4506 88.9409 25.2331C88.6761 25.1026 88.2347 25.0156 87.8815 25.0156C87.2195 25.0156 86.7781 25.3636 86.7781 25.9289C86.7781 26.3639 87.087 26.6248 87.4843 26.7553L87.7933 26.8857C87.9698 26.9292 88.0581 27.0162 88.0581 27.1467C88.0581 27.2772 87.9257 27.3641 87.7491 27.3641C87.5284 27.3641 87.2195 27.2772 86.9546 27.1467C86.8222 27.2772 86.6898 27.5381 86.6898 27.7121ZM91.8541 27.4946C91.7217 27.4076 91.6775 27.2772 91.6775 27.1467V26.0159C91.6775 25.3201 91.1479 25.0591 90.6623 25.0591C90.3092 25.0591 89.7354 25.1461 89.3823 25.3201C89.4264 25.5375 89.4706 25.7985 89.603 25.9289C89.912 25.842 90.1768 25.755 90.4416 25.755C90.7065 25.755 90.7948 25.8855 90.7948 26.1029V26.1899C90.6623 26.1899 90.4858 26.1899 90.3975 26.1899C89.8237 26.1899 89.2499 26.4943 89.2499 27.1467C89.2499 27.5381 89.5147 28.0165 90.1327 28.0165C90.4858 28.0165 90.7506 27.886 90.9713 27.6686C91.1037 27.8425 91.2803 27.973 91.5893 27.973C91.6775 27.886 91.81 27.6686 91.8541 27.4946ZM90.3975 27.3641C90.2209 27.3641 90.1327 27.2337 90.1327 27.1032C90.1327 26.8857 90.2209 26.7553 90.4858 26.7553C90.5741 26.7553 90.6623 26.7553 90.7948 26.7553V27.1902C90.6623 27.2772 90.5299 27.3641 90.3975 27.3641ZM93.4873 27.2772C93.3107 27.2772 93.2224 27.1902 93.2224 27.0162V24.3198C93.2224 23.9284 93.09 23.7979 92.7369 23.7979H92.3838L92.3396 23.8414V27.1902C92.3396 27.7121 92.5162 27.973 93.0459 27.973C93.2666 27.973 93.4873 27.9295 93.6638 27.9295C93.6638 27.886 93.6638 27.799 93.6638 27.7121C93.6638 27.5816 93.6197 27.4076 93.5755 27.2772H93.4873ZM96.5329 27.4946C96.4005 27.4076 96.3563 27.2772 96.3563 27.1467V26.0159C96.3563 25.3201 95.8266 25.0591 95.3411 25.0591C94.988 25.0591 94.4142 25.1461 94.0611 25.3201C94.1052 25.5375 94.1493 25.7985 94.2818 25.9289C94.5907 25.842 94.8556 25.755 95.1204 25.755C95.3853 25.755 95.4735 25.8855 95.4735 26.1029V26.1899C95.3411 26.1899 95.1646 26.1899 95.0763 26.1899C94.5025 26.1899 93.9286 26.4943 93.9286 27.1467C93.9286 27.5381 94.1935 28.0165 94.8114 28.0165C95.1646 28.0165 95.4294 27.886 95.6501 27.6686C95.7825 27.8425 95.9591 27.973 96.268 27.973C96.4005 27.886 96.5329 27.6686 96.5329 27.4946ZM95.0763 27.3641C94.8997 27.3641 94.8114 27.2337 94.8114 27.1032C94.8114 26.8857 94.8997 26.7553 95.1646 26.7553C95.2528 26.7553 95.3411 26.7553 95.4735 26.7553V27.1902C95.3853 27.2772 95.2087 27.3641 95.0763 27.3641ZM99.4902 26.0594C99.4902 25.494 99.2254 25.0591 98.6957 25.0591C98.3867 25.0591 98.166 25.1896 97.9453 25.3636V24.3198C97.9453 23.9284 97.8129 23.7979 97.4598 23.7979H97.1067L97.0625 23.8414V27.9295C97.195 27.973 97.3274 27.973 97.5039 27.973C97.6805 27.973 97.8129 27.973 97.9453 27.9295V26.0594C98.0778 25.9289 98.2543 25.8855 98.3867 25.8855C98.5633 25.8855 98.6074 26.0159 98.6074 26.2334V27.4076C98.6074 27.7555 98.7398 27.9295 99.093 27.9295C99.3137 27.9295 99.5344 27.8425 99.6668 27.7555C99.5785 27.6251 99.5344 27.4076 99.5344 27.1902V26.0594H99.4902ZM102.05 27.9295C102.183 27.973 102.359 27.973 102.492 27.973C102.624 27.973 102.801 27.973 102.933 27.9295V25.2331C102.933 25.1026 102.933 24.9722 102.933 24.7982C103.021 24.7982 103.198 24.7982 103.286 24.7982H103.463C103.772 24.7982 103.948 24.7112 103.948 24.4068C103.948 24.2763 103.948 24.1458 103.904 24.0589H101.079C101.035 24.1893 101.035 24.3198 101.035 24.4503C101.035 24.5373 101.035 24.6677 101.079 24.7982H101.653C101.741 24.7982 101.918 24.7982 102.006 24.7982V27.9295H102.05ZM106.288 27.4946C106.244 27.6251 106.111 27.8425 106.023 27.9295C105.714 27.9295 105.537 27.799 105.405 27.6251C105.184 27.799 104.964 27.973 104.566 27.973C103.992 27.973 103.683 27.5381 103.683 27.1032C103.683 26.4508 104.213 26.1464 104.831 26.1464C104.919 26.1464 105.096 26.1464 105.228 26.1464V26.0594C105.228 25.842 105.096 25.7115 104.875 25.7115C104.61 25.7115 104.346 25.7985 104.037 25.8855C103.904 25.755 103.86 25.494 103.816 25.2766C104.213 25.1461 104.743 25.0156 105.096 25.0156C105.581 25.0156 106.111 25.2766 106.111 25.9724V27.1032C106.155 27.3206 106.199 27.4076 106.288 27.4946ZM104.831 27.3641C104.964 27.3641 105.096 27.3206 105.228 27.1902V26.7553C105.096 26.7553 105.008 26.7553 104.919 26.7553C104.655 26.7553 104.566 26.8857 104.566 27.1032C104.566 27.2337 104.699 27.3641 104.831 27.3641ZM109.245 26.0594C109.245 25.494 108.98 25.0591 108.451 25.0591C108.142 25.0591 107.877 25.1896 107.656 25.4071C107.568 25.1896 107.435 25.0591 107.17 25.0591H106.817L106.773 25.1026V27.886C106.906 27.9295 107.082 27.9295 107.215 27.9295C107.347 27.9295 107.524 27.9295 107.656 27.886V26.0159C107.788 25.8855 107.965 25.842 108.097 25.842C108.274 25.842 108.362 25.9724 108.362 26.1899V27.4076C108.362 27.7555 108.495 27.9295 108.848 27.9295C109.068 27.9295 109.289 27.8425 109.377 27.7555C109.289 27.6251 109.245 27.4076 109.245 27.1902V26.0594ZM112.467 26.4943C112.467 25.668 112.158 25.0591 111.452 25.0591C111.143 25.0591 110.878 25.1896 110.702 25.3636C110.613 25.1896 110.437 25.1026 110.216 25.1026H109.995L109.951 25.1461V29.1038L109.995 29.1472H110.349C110.702 29.1472 110.834 29.0168 110.834 28.6254V27.8425C110.966 27.9295 111.143 27.973 111.364 27.973C111.938 27.973 112.467 27.4511 112.467 26.4943ZM111.187 25.7115C111.408 25.7115 111.54 25.9289 111.54 26.4508C111.54 26.9727 111.408 27.2772 111.143 27.2772C111.055 27.2772 110.922 27.2337 110.79 27.1467V25.9289C110.922 25.755 111.099 25.7115 111.187 25.7115ZM115.38 27.4946C115.248 27.4076 115.204 27.2772 115.204 27.1467V26.0159C115.204 25.3201 114.674 25.0591 114.189 25.0591C113.836 25.0591 113.262 25.1461 112.909 25.3201C112.953 25.5375 112.997 25.7985 113.129 25.9289C113.438 25.842 113.703 25.755 113.968 25.755C114.233 25.755 114.321 25.8855 114.321 26.1029V26.1899C114.189 26.1899 114.012 26.1899 113.924 26.1899C113.35 26.1899 112.776 26.4943 112.776 27.1467C112.776 27.5381 113.041 28.0165 113.659 28.0165C114.012 28.0165 114.277 27.886 114.498 27.6686C114.63 27.8425 114.807 27.973 115.116 27.973C115.248 27.886 115.336 27.6686 115.38 27.4946ZM113.924 27.3641C113.747 27.3641 113.659 27.2337 113.659 27.1032C113.659 26.8857 113.747 26.7553 114.012 26.7553C114.1 26.7553 114.189 26.7553 114.321 26.7553V27.1902C114.189 27.2772 114.056 27.3641 113.924 27.3641ZM117.102 27.886C117.234 27.9295 117.411 27.9295 117.543 27.9295C117.676 27.9295 117.808 27.9295 117.941 27.886L118.029 26.3639C118.073 25.9724 118.073 25.4505 118.073 25.0591H118.117L118.691 27.3641C118.823 27.3641 119.044 27.4076 119.176 27.4076C119.309 27.4076 119.53 27.4076 119.662 27.3641L120.236 25.0591H120.28C120.28 25.4505 120.324 25.9724 120.324 26.3639L120.412 27.886C120.545 27.9295 120.677 27.9295 120.81 27.9295C120.942 27.9295 121.163 27.9295 121.295 27.886L120.986 24.1023C120.81 24.0589 120.545 24.0589 120.368 24.0589C120.192 24.0589 119.971 24.0589 119.794 24.1023L119.441 25.494C119.397 25.6245 119.265 26.2334 119.221 26.4943H119.176C119.132 26.2334 119 25.6245 118.956 25.494L118.603 24.1023C118.426 24.0589 118.205 24.0589 118.029 24.0589C117.852 24.0589 117.587 24.0589 117.411 24.1023L117.102 27.886ZM124.297 27.4946C124.164 27.4076 124.12 27.2772 124.12 27.1467V26.0159C124.12 25.3201 123.59 25.0591 123.105 25.0591C122.752 25.0591 122.178 25.1461 121.825 25.3201C121.869 25.5375 121.913 25.7985 122.045 25.9289C122.354 25.842 122.619 25.755 122.884 25.755C123.149 25.755 123.237 25.8855 123.237 26.1029V26.1899C123.105 26.1899 122.928 26.1899 122.84 26.1899C122.266 26.1899 121.692 26.4943 121.692 27.1467C121.692 27.5381 121.957 28.0165 122.575 28.0165C122.928 28.0165 123.193 27.886 123.414 27.6686C123.546 27.8425 123.723 27.973 124.032 27.973C124.12 27.886 124.252 27.6686 124.297 27.4946ZM122.84 27.3641C122.663 27.3641 122.575 27.2337 122.575 27.1032C122.575 26.8857 122.663 26.7553 122.928 26.7553C123.017 26.7553 123.105 26.7553 123.237 26.7553V27.1902C123.105 27.2772 122.972 27.3641 122.84 27.3641ZM124.561 27.7121C124.826 27.8425 125.268 27.973 125.709 27.973C126.415 27.973 126.857 27.6251 126.857 27.0597C126.857 26.5813 126.548 26.3204 126.106 26.1464L125.753 26.0159C125.621 25.9724 125.532 25.8855 125.532 25.7985C125.532 25.7115 125.621 25.6245 125.753 25.6245C126.018 25.6245 126.327 25.7115 126.548 25.842C126.68 25.755 126.813 25.4506 126.813 25.2331C126.548 25.1026 126.106 25.0156 125.753 25.0156C125.091 25.0156 124.65 25.3636 124.65 25.9289C124.65 26.3639 124.959 26.6248 125.356 26.7553L125.665 26.8857C125.841 26.9292 125.93 27.0162 125.93 27.1467C125.93 27.2772 125.797 27.3641 125.621 27.3641C125.4 27.3641 125.091 27.2772 124.826 27.1467C124.694 27.2772 124.561 27.5381 124.561 27.7121ZM129.726 27.4946C129.593 27.4076 129.549 27.2772 129.549 27.1467V26.0159C129.549 25.3201 129.02 25.0591 128.534 25.0591C128.181 25.0591 127.607 25.1461 127.254 25.3201C127.298 25.5375 127.342 25.7985 127.475 25.9289C127.784 25.842 128.048 25.755 128.313 25.755C128.578 25.755 128.666 25.8855 128.666 26.1029V26.1899C128.534 26.1899 128.357 26.1899 128.269 26.1899C127.695 26.1899 127.121 26.4943 127.121 27.1467C127.121 27.5381 127.386 28.0165 128.004 28.0165C128.357 28.0165 128.622 27.886 128.843 27.6686C128.975 27.8425 129.152 27.973 129.461 27.973C129.549 27.886 129.682 27.6686 129.726 27.4946ZM128.269 27.3641C128.093 27.3641 128.004 27.2337 128.004 27.1032C128.004 26.8857 128.093 26.7553 128.357 26.7553C128.446 26.7553 128.534 26.7553 128.666 26.7553V27.1902C128.534 27.2772 128.402 27.3641 128.269 27.3641ZM131.359 27.2772C131.182 27.2772 131.094 27.1902 131.094 27.0162V24.3198C131.094 23.9284 130.962 23.7979 130.609 23.7979H130.255L130.211 23.8414V27.1902C130.211 27.7121 130.388 27.973 130.917 27.973C131.138 27.973 131.359 27.9295 131.535 27.9295C131.535 27.886 131.535 27.799 131.535 27.7121C131.535 27.5816 131.491 27.4076 131.447 27.2772H131.359ZM134.405 27.4946C134.272 27.4076 134.228 27.2772 134.228 27.1467V26.0159C134.228 25.3201 133.698 25.0591 133.213 25.0591C132.86 25.0591 132.286 25.1461 131.933 25.3201C131.977 25.5375 132.021 25.7985 132.153 25.9289C132.462 25.842 132.727 25.755 132.992 25.755C133.257 25.755 133.345 25.8855 133.345 26.1029V26.1899C133.213 26.1899 133.036 26.1899 132.948 26.1899C132.374 26.1899 131.8 26.4943 131.8 27.1467C131.8 27.5381 132.065 28.0165 132.683 28.0165C133.036 28.0165 133.301 27.886 133.522 27.6686C133.654 27.8425 133.831 27.973 134.14 27.973C134.272 27.886 134.405 27.6686 134.405 27.4946ZM132.948 27.3641C132.771 27.3641 132.683 27.2337 132.683 27.1032C132.683 26.8857 132.771 26.7553 133.036 26.7553C133.124 26.7553 133.213 26.7553 133.345 26.7553V27.1902C133.257 27.2772 133.08 27.3641 132.948 27.3641ZM137.362 26.0594C137.362 25.494 137.097 25.0591 136.567 25.0591C136.258 25.0591 136.038 25.1896 135.817 25.3636V24.3198C135.817 23.9284 135.685 23.7979 135.331 23.7979H134.978L134.934 23.8414V27.9295C135.067 27.973 135.199 27.973 135.376 27.973C135.552 27.973 135.685 27.973 135.817 27.9295V26.0594C135.949 25.9289 136.126 25.8855 136.258 25.8855C136.435 25.8855 136.479 26.0159 136.479 26.2334V27.4076C136.479 27.7555 136.611 27.9295 136.965 27.9295C137.185 27.9295 137.406 27.8425 137.538 27.7555C137.45 27.6251 137.406 27.4076 137.406 27.1902V26.0594H137.362Z" fill="#6FBF5B"/>
</g>
<defs>
<clipPath id="clip0">
<rect width="149" height="31" fill="white" transform="translate(0 0.443359)"/>
</clipPath>
</defs>
</svg>
