<svg width="122" height="31" viewBox="0 0 122 31" fill="none" xmlns="http://www.w3.org/2000/svg">
<g clip-path="url(#clip0)">
<path d="M9.74091 22.0024C9.76424 22.4793 9.66342 22.9541 9.4483 23.3804C9.23318 23.8066 8.91113 24.1698 8.51364 24.4343C7.68636 24.9888 6.49394 25.2661 4.93636 25.2661H3.69091V27.8706C3.68654 28.1753 3.71089 28.4796 3.76364 28.7797C3.80734 28.991 3.92301 29.1806 4.09091 29.3161C4.27872 29.4577 4.50219 29.5442 4.73636 29.5661C5.10119 29.6115 5.46877 29.6313 5.83636 29.6252V30.2161H0V29.6252C0.266043 29.6219 0.531053 29.5914 0.790909 29.5343C0.96349 29.4968 1.12144 29.41 1.24545 29.2843C1.36585 29.141 1.4417 28.9656 1.46364 28.7797C1.50858 28.5018 1.52836 28.2203 1.52273 27.9388V21.1206C1.52843 20.841 1.51171 20.5613 1.47273 20.2843C1.4512 20.1037 1.38393 19.9316 1.27727 19.7843C1.1729 19.6595 1.031 19.5718 0.872727 19.5343C0.637362 19.4859 0.398902 19.454 0.159091 19.4388V18.8479H5.23182C6.71364 18.8479 7.83636 19.1146 8.6 19.6479C8.97414 19.9115 9.27514 20.2659 9.47471 20.6777C9.67428 21.0896 9.76588 21.5455 9.74091 22.0024ZM3.69091 24.3797H4.64545C5.38398 24.4421 6.12054 24.239 6.72273 23.807C6.95954 23.5711 7.14139 23.2858 7.25532 22.9715C7.36924 22.6572 7.41243 22.3217 7.38182 21.9888C7.42153 21.3663 7.21965 20.7525 6.81818 20.2752C6.58616 20.057 6.31088 19.8901 6.01018 19.7851C5.70949 19.6802 5.3901 19.6396 5.07273 19.6661H3.95455C3.91954 19.661 3.88384 19.664 3.85018 19.6749C3.81652 19.6858 3.78579 19.7042 3.76034 19.7287C3.7349 19.7533 3.71541 19.7834 3.70338 19.8166C3.69134 19.8499 3.68708 19.8855 3.69091 19.9206V24.3797Z" fill="black"/>
<path d="M17.1544 28.8434C16.7494 29.3291 16.2407 29.718 15.6657 29.9815C15.0908 30.245 14.4641 30.3764 13.8317 30.3661C13.2687 30.3737 12.7092 30.2765 12.1817 30.0797C11.7082 29.9021 11.2776 29.6264 10.9181 29.2708C10.5586 28.9151 10.2782 28.4876 10.0953 28.0161C9.89346 27.504 9.79311 26.9574 9.79988 26.407C9.79323 25.8332 9.89821 25.2635 10.109 24.7297C10.3053 24.2346 10.6025 23.7857 10.9817 23.4115C11.3641 23.0384 11.8168 22.7448 12.3135 22.5479C12.8539 22.346 13.4277 22.2488 14.0044 22.2615C14.443 22.2353 14.8825 22.2961 15.2975 22.4405C15.7125 22.5848 16.0949 22.8098 16.4226 23.1025C16.716 23.4144 16.9426 23.7829 17.0888 24.1853C17.2349 24.5878 17.2975 25.0159 17.2726 25.4434C17.2726 25.6025 17.2499 25.6979 17.1999 25.7343C17.0685 25.7794 16.9292 25.7965 16.7908 25.7843H12.0862C12.0362 25.9428 12.0161 26.1093 12.0272 26.2752C11.9864 27.0799 12.2047 27.8764 12.6499 28.5479C12.8396 28.8179 13.0934 29.0366 13.3886 29.1841C13.6837 29.3317 14.011 29.4036 14.3408 29.3934C14.7655 29.3896 15.1843 29.2934 15.5681 29.1115C15.9988 28.9062 16.3958 28.6364 16.7453 28.3115L17.1544 28.8434ZM14.3135 24.957C14.5668 24.9703 14.8206 24.9489 15.0681 24.8934C15.1817 24.8479 15.2362 24.7434 15.2362 24.5752C15.2534 24.1867 15.1217 23.8063 14.8681 23.5115C14.7565 23.3797 14.6171 23.2742 14.46 23.2027C14.3028 23.1312 14.1317 23.0954 13.959 23.0979C13.7434 23.0988 13.5306 23.1463 13.3352 23.2374C13.1398 23.3284 12.9665 23.4607 12.8272 23.6252C12.488 23.9982 12.2666 24.4631 12.1908 24.9615L14.3135 24.957Z" fill="black"/>
<path d="M21.2274 27.9297C21.2231 28.2335 21.2398 28.5372 21.2774 28.8388C21.2971 29.0271 21.3713 29.2056 21.491 29.3524C21.6138 29.4755 21.7734 29.5553 21.9456 29.5797C22.218 29.6189 22.4931 29.6357 22.7683 29.6297V30.2206H17.8865V29.6251C18.1234 29.6135 18.359 29.5831 18.591 29.5342C18.7474 29.5067 18.8882 29.4226 18.9865 29.2978C19.0864 29.1459 19.1444 28.9703 19.1547 28.7888C19.1547 28.566 19.191 28.266 19.191 27.8797V26.0615C19.191 25.4524 19.191 24.966 19.1456 24.6024C19.1344 24.3117 19.0713 24.0254 18.9592 23.7569C18.8762 23.5771 18.7261 23.4368 18.541 23.366C18.31 23.2952 18.0689 23.263 17.8274 23.2706V22.7842L20.7592 22.2615L20.9956 23.9615H21.0501C21.2894 23.4671 21.6469 23.0393 22.091 22.716C22.4864 22.4247 22.9636 22.2656 23.4547 22.2615C23.7811 22.2479 24.1022 22.3474 24.3638 22.5433C24.4738 22.6256 24.5629 22.7327 24.6237 22.8559C24.6845 22.9791 24.7154 23.115 24.7138 23.2524C24.7222 23.5411 24.6271 23.8232 24.4456 24.0478C24.3558 24.156 24.2421 24.2418 24.1136 24.2986C23.985 24.3553 23.8451 24.3815 23.7047 24.3751C23.5675 24.3763 23.4321 24.3452 23.3092 24.2842C23.1962 24.2294 23.0895 24.1623 22.991 24.0842C22.9001 24.0115 22.8092 23.9433 22.7138 23.8797C22.6307 23.8186 22.5305 23.7852 22.4274 23.7842C22.3161 23.7979 22.2099 23.8385 22.118 23.9027C22.026 23.9669 21.9513 24.0526 21.9001 24.1524C21.7112 24.4585 21.5731 24.7931 21.491 25.1433C21.4075 25.471 21.3438 25.8034 21.3001 26.1388C21.2512 26.5049 21.2269 26.8739 21.2274 27.2433V27.9297Z" fill="black"/>
<path d="M28.1819 27.7797C28.1819 28.1934 28.1819 28.5206 28.2092 28.757C28.2129 28.9475 28.2696 29.1332 28.3728 29.2934C28.4642 29.4187 28.5984 29.5061 28.7501 29.5388C28.9775 29.5869 29.2087 29.6158 29.441 29.6252V30.2161H24.7864V29.6252C25.0233 29.6135 25.2589 29.5831 25.491 29.5343C25.6474 29.5068 25.7882 29.4227 25.8864 29.2979C25.9857 29.145 26.0465 28.9703 26.0637 28.7888C26.0952 28.4868 26.1089 28.1833 26.1046 27.8797V26.0615C26.1046 25.4979 26.1046 25.0343 26.1046 24.657C26.1 24.399 26.0726 24.142 26.0228 23.8888C25.9986 23.7833 25.962 23.6811 25.9137 23.5843C25.8633 23.5073 25.7925 23.446 25.7092 23.407C25.5947 23.3596 25.4735 23.3305 25.3501 23.3206C25.2001 23.3206 25.0092 23.2979 24.7773 23.2979V22.7979L27.5864 22.2615L27.7637 23.5479H27.8501C28.1904 23.1291 28.6127 22.7841 29.091 22.5343C29.5454 22.3385 30.0374 22.2454 30.5319 22.2615C31.0838 22.2406 31.6322 22.3578 32.1273 22.6024C32.5375 22.8214 32.8707 23.1609 33.0819 23.5752H33.1364C33.4837 23.1659 33.9146 22.8358 34.4001 22.607C34.8891 22.3771 35.4233 22.2591 35.9637 22.2615C36.4831 22.2504 37.0008 22.3257 37.4955 22.4843C37.8858 22.6013 38.2375 22.8211 38.5137 23.1206C38.7349 23.3748 38.8909 23.679 38.9683 24.007C39.0688 24.4988 39.11 25.0008 39.091 25.5024V27.7752C39.091 28.1797 39.091 28.4979 39.1273 28.7343C39.1376 28.9286 39.1954 29.1174 39.2955 29.2843C39.3859 29.4136 39.5227 29.5031 39.6773 29.5343C39.9033 29.5824 40.1329 29.6113 40.3637 29.6206V30.2115H35.7319V29.6252C35.9661 29.6175 36.199 29.5871 36.4273 29.5343C36.5847 29.4979 36.7245 29.4079 36.8228 29.2797C36.9244 29.128 36.9855 28.9527 37.0001 28.7706C37.0278 28.4684 37.04 28.165 37.0364 27.8615V25.9615C37.0412 25.5265 37.0108 25.0917 36.9455 24.6615C36.9079 24.3617 36.8138 24.0718 36.6683 23.807C36.5517 23.6064 36.3753 23.4475 36.1637 23.3524C35.9199 23.2537 35.6585 23.2057 35.3955 23.2115C35.0933 23.2003 34.7959 23.2898 34.5501 23.4661C34.3233 23.6406 34.1371 23.8624 34.0046 24.1161C33.7329 24.6501 33.6015 25.2445 33.6228 25.8434V27.7934C33.6228 28.1979 33.6228 28.5161 33.6501 28.7524C33.6569 28.9467 33.7132 29.136 33.8137 29.3024C33.9059 29.4321 34.0441 29.5215 34.2001 29.5524C34.4337 29.6003 34.6709 29.6292 34.9092 29.6388V30.2297H30.2683V29.6252C30.5021 29.6136 30.7347 29.5832 30.9637 29.5343C31.1184 29.5024 31.2578 29.4191 31.3592 29.2979C31.4623 29.1469 31.5235 28.9712 31.5364 28.7888C31.5592 28.5661 31.5728 28.2661 31.5728 27.8797V25.9615C31.5776 25.5265 31.5472 25.0917 31.4819 24.6615C31.4417 24.3611 31.3445 24.071 31.1955 23.807C31.0738 23.6057 30.8928 23.4469 30.6773 23.3524C30.4213 23.2522 30.1477 23.2043 29.8728 23.2115C29.5875 23.2013 29.3067 23.2843 29.0728 23.4479C28.8552 23.6174 28.6782 23.8332 28.5546 24.0797C28.4195 24.3362 28.3201 24.6099 28.2592 24.8934C28.1993 25.2017 28.1734 25.5157 28.1819 25.8297V27.7797Z" fill="black"/>
<path d="M45.2543 25.2251V24.6024C45.2893 24.1645 45.1843 23.7268 44.9543 23.3524C44.8411 23.2181 44.6975 23.1126 44.5355 23.0447C44.3735 22.9767 44.1977 22.9482 44.0225 22.9615C43.9047 22.9532 43.7865 22.9695 43.6754 23.0094C43.5642 23.0493 43.4627 23.112 43.3771 23.1933C43.1913 23.4164 43.0521 23.6746 42.968 23.9524C42.8973 24.1759 42.7687 24.3766 42.5953 24.5342C42.4038 24.6795 42.167 24.752 41.9271 24.7388C41.8105 24.7466 41.6936 24.7283 41.585 24.685C41.4765 24.6417 41.379 24.5747 41.2998 24.4888C41.1397 24.2885 41.0602 24.0356 41.0771 23.7797C41.0841 23.5386 41.1603 23.3047 41.2965 23.1057C41.4327 22.9066 41.6231 22.7509 41.8453 22.657C42.5776 22.3442 43.3734 22.2087 44.168 22.2615C45.2619 22.2615 46.0437 22.4615 46.5134 22.8615C46.968 23.257 47.218 23.9251 47.218 24.8615V28.0979C47.218 28.9342 47.3816 29.3524 47.7134 29.3524C47.9019 29.352 48.0841 29.2843 48.2271 29.1615L48.4453 29.5888C48.3024 29.8481 48.079 30.054 47.8089 30.1752C47.5054 30.3202 47.1725 30.3934 46.8362 30.3888C46.6448 30.4017 46.4531 30.3712 46.2752 30.2996C46.0973 30.2279 45.9379 30.117 45.8089 29.9752C45.557 29.6398 45.4329 29.2256 45.4589 28.807H45.3862C45.139 29.2901 44.7604 29.6936 44.294 29.971C43.8276 30.2484 43.2923 30.3885 42.7498 30.3751C42.2058 30.4009 41.6735 30.2115 41.268 29.8479C41.0837 29.6732 40.9389 29.4612 40.8433 29.226C40.7477 28.9908 40.7034 28.7379 40.7134 28.4842C40.7211 28.2527 40.7753 28.0251 40.8729 27.815C40.9706 27.6049 41.1096 27.4166 41.2816 27.2615C41.8392 26.7684 42.4834 26.3831 43.1816 26.1251L45.2543 25.2251ZM45.2543 26.007C44.6 26.2851 43.9781 26.6341 43.3998 27.0479C43.2258 27.1551 43.079 27.3012 42.971 27.4747C42.8629 27.6482 42.7965 27.8444 42.7771 28.0479C42.7638 28.2959 42.8487 28.5392 43.0134 28.7251C43.0872 28.8068 43.1779 28.8715 43.2791 28.9147C43.3804 28.9578 43.4898 28.9785 43.5998 28.9751C43.8253 28.9766 44.049 28.935 44.2589 28.8524C44.4524 28.773 44.6308 28.6607 44.7862 28.5206C44.9316 28.375 45.0466 28.202 45.1246 28.0116C45.2027 27.8212 45.2421 27.6173 45.2407 27.4115L45.2543 26.007Z" fill="black"/>
<path d="M48.6364 23.1979V22.5343C49.176 22.3896 49.6782 22.1308 50.1091 21.7752C50.498 21.4573 50.809 21.0546 51.0182 20.5979H51.7636V22.3843H53.45V23.1979H51.7273V27.7161C51.6983 28.1588 51.7666 28.6025 51.9273 29.0161C51.9868 29.1393 52.0817 29.2419 52.2 29.3108C52.3182 29.3796 52.4544 29.4115 52.5909 29.4024C52.7714 29.4064 52.9492 29.3584 53.1031 29.2641C53.2571 29.1698 53.3806 29.0332 53.4591 28.8706L53.7636 29.2979C53.4909 29.9979 52.847 30.3479 51.8318 30.3479C51.269 30.3865 50.7105 30.2255 50.2545 29.8934C50.0656 29.7287 49.9167 29.5232 49.819 29.2925C49.7214 29.0617 49.6776 28.8118 49.6909 28.5615V23.1979H48.6364Z" fill="black"/>
<path d="M58.527 25.2252V24.6024C58.562 24.1645 58.457 23.7268 58.227 23.3524C58.1161 23.2214 57.9762 23.1178 57.8185 23.05C57.6607 22.9821 57.4894 22.9519 57.3179 22.9615C57.2001 22.9532 57.0819 22.9695 56.9708 23.0095C56.8596 23.0494 56.7581 23.112 56.6725 23.1934C56.4867 23.4164 56.3475 23.6746 56.2634 23.9524C56.192 24.1742 56.0634 24.3733 55.8907 24.5297C55.6992 24.6749 55.4624 24.7474 55.2225 24.7343C55.1053 24.7415 54.9879 24.7229 54.8787 24.6797C54.7695 24.6365 54.6712 24.5697 54.5907 24.4843C54.4341 24.2823 54.3565 24.0302 54.3725 23.7752C54.3796 23.5341 54.4557 23.3002 54.5919 23.1011C54.7281 22.9021 54.9185 22.7464 55.1407 22.6524C55.8714 22.3331 56.6673 22.1914 57.4634 22.2388C58.5603 22.2388 59.3422 22.4388 59.8088 22.8388C60.2634 23.2343 60.5134 23.9024 60.5134 24.8388V28.0752C60.5134 28.9115 60.677 29.3297 61.0088 29.3297C61.1973 29.3293 61.3795 29.2616 61.5225 29.1388L61.7406 29.5661C61.5955 29.8236 61.3728 30.0288 61.1043 30.1524C60.8008 30.2975 60.4679 30.3706 60.1316 30.3661C59.9402 30.379 59.7485 30.3485 59.5706 30.2768C59.3927 30.2052 59.2333 30.0943 59.1043 29.9524C58.8524 29.6171 58.7283 29.2029 58.7543 28.7843H58.6816C58.4344 29.2674 58.0558 29.6708 57.5894 29.9483C57.123 30.2257 56.5877 30.3658 56.0452 30.3524C55.7728 30.3676 55.5 30.3288 55.2426 30.2384C54.9852 30.1479 54.7482 30.0075 54.5452 29.8252C54.361 29.6505 54.2162 29.4385 54.1205 29.2033C54.0249 28.9681 53.9806 28.7152 53.9907 28.4615C53.9985 28.2347 54.0516 28.0117 54.1469 27.8056C54.2421 27.5995 54.3775 27.4145 54.5452 27.2615C55.1059 26.776 55.7517 26.3985 56.4497 26.1479L58.527 25.2252ZM58.527 26.007C57.8726 26.2851 57.2507 26.6342 56.6725 27.0479C56.4985 27.1551 56.3517 27.3012 56.2436 27.4747C56.1356 27.6482 56.0692 27.8444 56.0497 28.0479C56.0365 28.2959 56.1214 28.5392 56.2861 28.7252C56.3599 28.8069 56.4505 28.8715 56.5518 28.9147C56.653 28.9579 56.7625 28.9785 56.8725 28.9752C57.0979 28.9762 57.3216 28.9346 57.5316 28.8524C57.7251 28.773 57.9035 28.6607 58.0588 28.5206C58.2042 28.375 58.3193 28.202 58.3973 28.0116C58.4753 27.8213 58.5148 27.6173 58.5134 27.4115L58.527 26.007Z" fill="black"/>
<path d="M62.0864 30.216V29.657C62.3916 29.6547 62.6959 29.6243 62.9955 29.566C63.1921 29.5367 63.3756 29.4497 63.5228 29.316C63.6544 29.1782 63.7415 29.004 63.7728 28.816C63.8235 28.5372 63.8463 28.254 63.841 27.9706V21.0842C63.8455 20.8059 63.8273 20.5277 63.7864 20.2524C63.7669 20.0684 63.696 19.8935 63.5819 19.7479C63.4632 19.6152 63.3029 19.527 63.1273 19.4979C62.8758 19.4451 62.6204 19.4132 62.3637 19.4024V18.8388H66.7455C67.821 18.7716 68.8934 19.0129 69.8364 19.5342C70.1792 19.7406 70.4614 20.0338 70.6546 20.3841C70.8477 20.7345 70.9449 21.1297 70.9364 21.5297C70.9471 21.8229 70.8987 22.1152 70.7941 22.3893C70.6895 22.6634 70.5307 22.9137 70.3273 23.1251C69.7775 23.6175 69.116 23.9685 68.4001 24.1479V24.207C68.7046 24.2342 68.9682 24.2706 69.191 24.307C69.3936 24.3418 69.594 24.3889 69.791 24.4479C69.9602 24.4999 70.1245 24.5668 70.2819 24.6479C70.438 24.7292 70.5897 24.8188 70.7364 24.916C71.1335 25.1651 71.4608 25.511 71.6874 25.9213C71.914 26.3316 72.0326 26.7928 72.0319 27.2615C72.0347 27.7798 71.8845 28.2874 71.6001 28.7206C71.3022 29.1771 70.8837 29.5421 70.391 29.7751C70.228 29.8613 70.0576 29.9328 69.8819 29.9888C69.6798 30.0496 69.473 30.0937 69.2637 30.1206C69.0319 30.157 68.7592 30.1797 68.4501 30.1979C68.141 30.216 67.7819 30.1979 67.3592 30.1979L62.0864 30.216ZM66.2046 23.8524C66.5046 23.8524 66.7592 23.8524 66.9637 23.8524C67.1402 23.8454 67.3163 23.8287 67.491 23.8024C67.6248 23.7822 67.7559 23.7471 67.8819 23.6979C68.0013 23.6489 68.1155 23.5879 68.2228 23.516C68.5089 23.3467 68.7408 23.0991 68.891 22.8024C69.0368 22.4626 69.1051 22.0946 69.091 21.7251C69.1199 21.4213 69.0843 21.1148 68.9863 20.8257C68.8884 20.5366 68.7304 20.2715 68.5228 20.0479C68.0185 19.6647 67.3903 19.4817 66.7592 19.5342H65.6319C65.5978 19.5288 65.5629 19.5315 65.5301 19.5421C65.4973 19.5527 65.4674 19.571 65.443 19.5954C65.4186 19.6198 65.4004 19.6496 65.3897 19.6824C65.3791 19.7153 65.3764 19.7502 65.3819 19.7842V23.8751L66.2046 23.8524ZM67.4046 29.5706C69.1743 29.5706 70.0576 28.813 70.0546 27.2979C70.0911 26.8161 69.9802 26.3346 69.7367 25.9173C69.4931 25.5 69.1284 25.1667 68.691 24.9615C68.5364 24.8918 68.3849 24.8327 68.2364 24.7842C68.0711 24.729 67.9005 24.6909 67.7273 24.6706C67.5319 24.6433 67.3001 24.6297 67.0319 24.616C66.7637 24.6024 66.4319 24.616 66.041 24.616H65.3819V27.8979C65.3571 28.134 65.385 28.3726 65.4636 28.5967C65.5422 28.8207 65.6695 29.0245 65.8364 29.1933C66.2999 29.4972 66.8527 29.6351 67.4046 29.5842V29.5706Z" fill="black"/>
<path d="M77.5134 25.2069V24.6024C77.5134 23.4024 77.0043 22.7842 75.9861 22.7842C75.844 22.7834 75.7022 22.7986 75.5634 22.8297C75.4561 22.8563 75.3565 22.9077 75.2725 22.9797C75.1821 23.0627 75.1094 23.1632 75.0589 23.2751C74.9854 23.4212 74.9246 23.5733 74.8771 23.7297C74.8127 23.9396 74.7042 24.1333 74.5589 24.2979C74.432 24.4031 74.2685 24.4538 74.1043 24.4388C74.0042 24.4526 73.9022 24.4429 73.8064 24.4105C73.7107 24.378 73.6238 24.3236 73.5528 24.2517C73.4817 24.1797 73.4284 24.0922 73.3971 23.9961C73.3659 23.8999 73.3574 23.7978 73.3725 23.6979C73.3764 23.4619 73.4489 23.2321 73.5813 23.0368C73.7137 22.8414 73.9002 22.6889 74.118 22.5979C74.7856 22.3046 75.5124 22.1708 76.2407 22.2069C77.218 22.2069 77.9134 22.3842 78.3225 22.7297C78.5536 22.9656 78.7296 23.2498 78.8381 23.5617C78.9465 23.8737 78.9847 24.2058 78.9498 24.5342V27.8524C78.9498 28.9751 79.168 29.5388 79.6089 29.5388C79.7422 29.5384 79.8751 29.5216 80.0043 29.4888C80.1425 29.4415 80.2568 29.3419 80.3225 29.2115L80.5316 29.566C80.3841 29.8218 80.1576 30.0228 79.8861 30.1388C79.58 30.287 79.2445 30.3647 78.9043 30.366C78.7229 30.38 78.5408 30.3496 78.3738 30.2775C78.2067 30.2055 78.0596 30.0939 77.9452 29.9524C77.7124 29.6091 77.6005 29.1981 77.6271 28.7842H77.5543C77.3119 29.2537 76.9477 29.6494 76.4998 29.9297C76.0541 30.2118 75.5363 30.3586 75.0089 30.3524C74.4844 30.387 73.9658 30.225 73.5543 29.8979C73.3792 29.7368 73.2413 29.5395 73.1502 29.3197C73.0592 29.0999 73.0171 28.8628 73.0271 28.6251C73.0259 28.3933 73.0691 28.1634 73.1543 27.9479C73.2458 27.7162 73.3817 27.5046 73.5543 27.3251C73.7749 27.1016 74.0222 26.9062 74.2907 26.7433C74.647 26.5207 75.0192 26.3247 75.4043 26.1569L77.5134 25.2069ZM77.5134 25.8433C77.0301 26.0275 76.5581 26.24 76.0998 26.4797C75.7747 26.6531 75.4699 26.862 75.1907 27.1024C74.9752 27.2692 74.7959 27.4779 74.6634 27.716C74.5622 27.9129 74.5092 28.131 74.5089 28.3524C74.5042 28.5002 74.5305 28.6473 74.586 28.7843C74.6416 28.9213 74.7253 29.0451 74.8316 29.1479C74.945 29.2545 75.0787 29.3373 75.2247 29.3912C75.3707 29.445 75.5261 29.469 75.6816 29.4615C75.9314 29.4625 76.1767 29.3949 76.3907 29.266C76.6171 29.1335 76.8137 28.9555 76.968 28.7433C77.1434 28.5071 77.2771 28.2427 77.3634 27.9615C77.4647 27.6535 77.5153 27.3311 77.5134 27.0069V25.8433Z" fill="black"/>
<path d="M83.3137 27.8979C83.3137 28.304 83.3228 28.6222 83.341 28.8525C83.3493 29.0396 83.4023 29.2219 83.4955 29.3843C83.5823 29.5094 83.7143 29.5957 83.8637 29.6252C84.0818 29.6752 84.3039 29.7056 84.5273 29.7161V30.2161H80.691V29.7161C80.9114 29.7047 81.1304 29.6743 81.3455 29.6252C81.494 29.5934 81.6262 29.5096 81.7182 29.3888C81.8156 29.239 81.8734 29.067 81.8864 28.8888C81.8864 28.6707 81.9228 28.3752 81.9228 28.0025V26.0343C81.9469 25.3194 81.9165 24.6037 81.8319 23.8934C81.8102 23.7829 81.7735 23.6758 81.7228 23.5752C81.6787 23.493 81.6105 23.4264 81.5273 23.3843C81.421 23.3356 81.3073 23.3049 81.191 23.2934C81.0546 23.2934 80.8773 23.2934 80.6637 23.2934V22.8388L83.0046 22.2616L83.1819 23.7252H83.241C83.5912 23.2686 84.0363 22.8933 84.5455 22.6252C85.0468 22.366 85.6039 22.2333 86.1682 22.2388C86.5894 22.2329 87.0077 22.3085 87.4001 22.4616C87.7337 22.5809 88.0278 22.7901 88.2501 23.0661C88.4314 23.3284 88.5511 23.6283 88.6001 23.9434C88.681 24.4345 88.716 24.9321 88.7046 25.4298V27.8979C88.7046 28.3025 88.7046 28.6207 88.741 28.8525C88.7514 29.0392 88.8043 29.2211 88.8955 29.3843C88.9356 29.447 88.9882 29.5008 89.0499 29.5422C89.1117 29.5837 89.1814 29.6119 89.2546 29.6252C89.4636 29.6742 89.6766 29.7047 89.891 29.7161V30.2161H86.0955V29.7161C86.3161 29.7139 86.5357 29.6865 86.7501 29.6343C86.8965 29.5982 87.0254 29.5112 87.1137 29.3888C87.21 29.2355 87.2662 29.0605 87.2773 28.8798C87.3001 28.6616 87.3137 28.3661 87.3137 28.0025V26.0525C87.3179 25.5783 87.2891 25.1044 87.2273 24.6343C87.1848 24.3171 87.0879 24.0095 86.941 23.7252C86.8253 23.5042 86.6422 23.3259 86.4182 23.2161C86.1743 23.106 85.9085 23.0531 85.641 23.0616C85.2145 23.0575 84.796 23.1775 84.4364 23.407C83.9865 23.7028 83.6426 24.1343 83.4546 24.6388C83.4156 24.74 83.3881 24.8452 83.3728 24.9525C83.3728 25.0707 83.3364 25.2025 83.3273 25.357C83.3182 25.5116 83.3273 25.7025 83.3273 25.9434L83.3137 27.8979Z" fill="black"/>
<path d="M94.9727 29.7024C95.1964 29.7111 95.4204 29.6958 95.6409 29.6569C95.7636 29.6251 95.8227 29.5888 95.8227 29.5388C95.7743 29.3825 95.6955 29.2373 95.5909 29.1115C95.4455 28.9024 95.2546 28.6569 95.0182 28.3706L93.4636 26.4797L92.9227 26.9978V27.8706C92.9198 28.1744 92.9365 28.478 92.9727 28.7797C92.9952 28.9734 93.0604 29.1597 93.1636 29.3251C93.2654 29.4616 93.4117 29.5581 93.5773 29.5978C93.8093 29.6557 94.0473 29.6862 94.2864 29.6888V30.216H90.1273V29.7024C90.3663 29.6995 90.6043 29.669 90.8364 29.6115C91.0024 29.5724 91.1509 29.4797 91.2591 29.3478C91.3746 29.1969 91.4483 29.0182 91.4727 28.8297C91.5178 28.5456 91.5375 28.2581 91.5318 27.9706V21.7797C91.5318 21.0342 91.5318 20.466 91.5091 20.0797C91.5217 19.8104 91.4686 19.5421 91.3545 19.2978C91.3033 19.2242 91.2355 19.1636 91.1565 19.121C91.0776 19.0783 90.9897 19.0548 90.9 19.0524C90.6266 19.0257 90.352 19.0136 90.0773 19.016V18.516L92.9045 17.9524V26.066L94.2682 24.7024L95.25 23.7206C95.4636 23.5069 95.5727 23.3478 95.5727 23.2388C95.5727 23.1297 95.4682 23.0433 95.2636 22.9797C94.9773 22.9062 94.6818 22.874 94.3864 22.8842V22.3842H98.1955V22.9024C98.0328 22.9 97.8701 22.9106 97.7091 22.9342C97.5748 22.9527 97.4444 22.9926 97.3227 23.0524C97.1869 23.1208 97.0576 23.2015 96.9364 23.2933C96.7955 23.3978 96.6409 23.5297 96.4818 23.6888L94.3727 25.5797L97.2727 28.8888C97.3885 29.0326 97.5146 29.1678 97.65 29.2933C97.7499 29.3906 97.8632 29.4733 97.9864 29.5388C98.1007 29.5987 98.2232 29.6416 98.35 29.666C98.5003 29.6903 98.6523 29.7025 98.8046 29.7024V30.216H94.95L94.9727 29.7024Z" fill="black"/>
<path d="M112.177 0.52063L112.854 1.16608L107.8 3.15245L106.695 2.27063L112.177 0.52063Z" fill="#DC505E"/>
<path d="M107.8 3.17069L108.004 16.9934C108.004 16.9934 108.277 16.9934 108.304 16.8434C108.332 16.6934 112.85 1.18433 112.85 1.18433L107.8 3.17069Z" fill="#B22B37"/>
<path d="M107.8 3.15245L106.695 2.27063L106.018 3.15245L107.895 16.9752H108.004L107.8 3.15245Z" fill="#D81936"/>
<path d="M106.018 3.15241L102.173 1.16604L102.473 0.661499L106.695 2.27059L106.018 3.15241Z" fill="#AF2C35"/>
<path d="M102.173 1.16602C102.173 1.16602 107.514 16.5251 107.55 16.6615C107.578 16.7375 107.624 16.8056 107.685 16.8602C107.745 16.9148 107.817 16.9542 107.895 16.9751L106.018 3.17056L102.173 1.16602Z" fill="#762624"/>
<path d="M106.695 2.27063L112.177 0.52063L102.473 0.661539L106.695 2.27063Z" fill="#D81936"/>
<path d="M102.473 7.62524L99.7317 11.2071L107.141 24.8571L107.395 24.5162L102.473 7.62524Z" fill="#007592"/>
<path d="M99.7319 11.207L98.4501 10.5934V11.7252L107.141 24.857L99.7319 11.207Z" fill="#0097B9"/>
<path d="M98.4501 10.5934L101.468 7.0979L102.473 7.62517L99.7319 11.207L98.4501 10.5934Z" fill="#2FB8E7"/>
<path d="M98.4498 11.7252L94.8589 11.0707L94.9816 10.4161L98.4498 10.5934V11.7252Z" fill="#007592"/>
<path d="M94.8589 11.0707L106.673 24.857H107.141L98.4498 11.7252L94.8589 11.0707Z" fill="#005874"/>
<path d="M101.468 7.0979L94.9818 10.4161L98.45 10.5934L101.468 7.0979Z" fill="#0097B9"/>
<path d="M116.045 10.4161L116.423 11.7252L108.404 30.3252L114.891 10.9707L116.045 10.4161Z" fill="#80B13A"/>
<path d="M116.423 11.7252L121.523 11.3479V10.2661L116.046 10.4161L116.423 11.7252Z" fill="#A5C550"/>
<path d="M114.891 10.9706L113.136 7.1933L113.854 6.77966L116.045 10.416L114.891 10.9706Z" fill="#5E8B28"/>
<path d="M121.522 10.266L113.854 6.77966L116.045 10.416L121.522 10.266Z" fill="#80B13A"/>
<path d="M121.523 11.3479L108.973 30.2161L108.404 30.3252L116.423 11.7252L121.523 11.3479Z" fill="#6E9123"/>
<path d="M114.891 10.9706L113.136 7.19336L108.123 29.8524L108.405 30.3252L114.891 10.9706Z" fill="#3F7937"/>
</g>
<defs>
<clipPath id="clip0">
<rect width="121.65" height="30" fill="white" transform="translate(0 0.443359)"/>
</clipPath>
</defs>
</svg>
