<svg width="84" height="33" viewBox="0 0 84 33" fill="none" xmlns="http://www.w3.org/2000/svg">
<path d="M8.9663 5.75562H4.58141C4.43753 5.75561 4.29507 5.78399 4.16218 5.83912C4.02928 5.89425 3.90857 5.97505 3.80694 6.07689C3.70531 6.17873 3.62477 6.29962 3.56992 6.43263C3.51508 6.56564 3.487 6.70816 3.48731 6.85203V26.2115C3.48751 26.5016 3.60285 26.7798 3.80799 26.9849C4.01313 27.1901 4.2913 27.3054 4.58141 27.3056H17.0458V21.8614H8.9663V5.75562Z" fill="black"/>
<path d="M23.9361 5.75562H11.6084V11.1366H19.7088V19.2191H25.0325V6.85203C25.0329 6.70796 25.0047 6.56525 24.9497 6.43209C24.8947 6.29893 24.814 6.17794 24.7121 6.07607C24.6102 5.9742 24.4892 5.89345 24.3561 5.83846C24.2229 5.78346 24.0802 5.75531 23.9361 5.75562Z" fill="black"/>
<path d="M19.6855 27.3056H19.6871V32.4031H25.0325V21.8613H19.6855V27.3056Z" fill="black"/>
<path d="M56.2166 5.65674H51.2588V27.1396H56.2166V5.65674Z" fill="black"/>
<path d="M79.809 25.9242V22.0397V18.7527V16.3738V13.7949H65.7077V10.6153H79.809V5.65674H58.3262V7.50752V10.6153V13.7949V17.0579V18.7527H72.4267V22.0397H58.3262V26.9982H79.809V25.9242Z" fill="black"/>
<path d="M11.5947 19.0668H17.0575V13.604H11.5947V19.0668ZM13.2517 15.2618H15.3998V17.4098H13.2517V15.2618Z" fill="black"/>
<path d="M27.3314 10.6153H43.1167V13.7988H32.2684H28.705H27.3105V27.1812H32.2684V18.7751L41.1385 27.2121H48.8659L39.6151 18.7566H48.8968V18.1899V13.7988V10.6153V7.25195V5.65674H27.3314V10.6153Z" fill="black"/>
<path d="M82.0641 21.9609V30.672C82.0639 30.7901 82.0169 30.9033 81.9334 30.9868C81.8499 31.0704 81.7367 31.1174 81.6186 31.1176H72.7832V32.4433H81.6186C82.088 32.4421 82.5378 32.2551 82.8697 31.9232C83.2016 31.5912 83.3886 31.1414 83.3899 30.672V21.9609H82.0641Z" fill="black"/>
<path d="M10.6067 0.443359H1.77125C1.30186 0.444582 0.852048 0.631589 0.520139 0.963498C0.188229 1.29541 0.00122291 1.74522 0 2.21461L0 10.9257H1.32574V2.21461C1.32574 2.09645 1.37268 1.98314 1.45623 1.89959C1.53978 1.81603 1.65309 1.7691 1.77125 1.7691H10.6067V0.443359Z" fill="black"/>
</svg>
