<?xml version="1.0" encoding="UTF-8"?>
<!DOCTYPE svg PUBLIC "-//W3C//DTD SVG 1.1//EN" "http://www.w3.org/Graphics/SVG/1.1/DTD/svg11.dtd">
<!-- Creator: CorelDRAW X7 -->
<svg xmlns="http://www.w3.org/2000/svg" xml:space="preserve" width="29.6333mm" height="9.744mm" version="1.1" style="shape-rendering:geometricPrecision; text-rendering:geometricPrecision; image-rendering:optimizeQuality; fill-rule:evenodd; clip-rule:evenodd"
viewBox="0 0 655 215"
 xmlns:xlink="http://www.w3.org/1999/xlink">
 <defs>
  <style type="text/css">
   <![CDATA[
    .fil0 {fill:#F0592B}
   ]]>
  </style>
 </defs>
 <g id="Layer_x0020_1">
  <metadata id="CorelCorpID_0Corel-Layer"/>
  <g id="_1972075371232">
   <path class="fil0" d="M293 135c-6,-6 -14,-9 -22,-12 0,0 -1,0 -2,-1 -1,0 -2,0 -2,0 -1,0 -2,-1 -2,-1 0,0 -1,0 -1,0 0,0 0,0 -1,-1 -3,-1 -6,-3 -9,-5 -2,-3 -3,-5 -3,-8 -1,-5 1,-9 4,-12 2,-2 6,-3 10,-4 8,-1 17,1 23,6 6,4 12,-6 6,-10 -9,-6 -22,-8 -32,-7 -6,1 -12,4 -16,8 -5,5 -7,12 -7,19 0,16 18,23 31,28 4,1 4,1 8,3 3,1 6,3 8,6 1,0 2,1 2,2 1,0 1,0 0,0 1,0 1,1 1,1 1,2 2,3 2,5 0,0 0,0 0,0 0,1 0,1 0,2 0,1 0,2 0,3 0,2 -1,4 -2,6 -4,6 -13,8 -19,8 -11,0 -19,-5 -27,-11 -3,-2 -7,0 -8,2 -2,3 -1,6 2,8 10,7 22,12 35,12 11,0 22,-6 28,-16 5,-11 2,-23 -7,-31z"/>
   <path class="fil0" d="M357 123c-11,-7 -25,-5 -35,3 0,0 0,0 0,0l0 -32 0 -9c0,-7 -11,-7 -11,0l0 84 0 8c0,7 11,7 11,0l0 -30c0,0 0,0 0,0 0,-1 0,-1 1,-2 0,0 0,-1 0,-1l0 0c0,-1 1,-1 1,-2 1,-1 2,-3 3,-5 0,0 0,0 0,0 0,0 0,0 0,0 0,0 1,-1 1,-1 1,-1 1,-1 1,-1 0,-1 2,-2 1,-1 4,-3 9,-4 14,-4 3,1 5,1 6,2 2,1 3,2 5,4 -1,-1 0,1 0,1 1,1 1,2 1,2 1,1 1,2 1,3 0,0 0,0 0,0l0 2 0 24 0 9c0,7 11,7 11,0l0 -19c0,-6 1,-12 0,-18 -1,-7 -6,-13 -11,-17z"/>
   <path class="fil0" d="M420 121c-14,-4 -28,2 -36,13 -8,12 -6,27 3,38 9,11 25,13 38,7 11,-5 18,-16 18,-28 0,0 0,-1 0,-1 -1,-14 -10,-25 -23,-29zm-9 50c-11,0 -21,-9 -21,-20 0,-12 10,-20 21,-20 11,0 21,9 21,20 0,11 -10,20 -21,20z"/>
   <path class="fil0" d="M495 121c-11,-4 -23,0 -31,7l0 -3c0,-7 -11,-7 -11,0l0 82 0 3c0,7 11,7 11,0l0 -36c9,9 24,10 36,5 11,-5 18,-16 18,-28 0,0 0,-1 0,-1 0,-14 -10,-25 -23,-29zm-9 50c-11,0 -21,-9 -21,-20 0,-12 10,-20 21,-20 11,0 21,9 21,20 0,11 -10,20 -21,20z"/>
   <path class="fil0" d="M558 120c-11,-1 -20,5 -25,14 -3,4 -4,9 -5,14 0,0 0,1 0,1 -1,9 2,18 8,24 10,13 32,12 45,4 6,-3 0,-13 -6,-9 -5,3 -11,4 -17,3 -2,0 -3,0 -5,0 -1,0 -2,-1 -2,-1 -1,0 -1,0 -1,0 0,0 -1,0 -1,0 -3,-2 -3,-2 -5,-5 0,1 -1,0 -1,-1 0,0 -1,-1 -1,-1 0,-1 0,-1 0,-1 0,0 -1,-1 -1,-1 0,-1 -1,-2 -1,-3 0,-1 0,-1 0,-2 0,0 0,-1 0,-1 0,0 0,0 0,0l40 0c4,0 6,-3 6,-6 0,-5 -1,-10 -3,-15 -5,-10 -15,-14 -25,-14zm-17 21c0,0 1,0 1,0 0,-2 1,-3 2,-4 0,0 0,0 0,0 0,-1 1,-1 1,-1 0,-1 1,-1 2,-2 0,0 1,-1 1,-1 1,0 1,-1 2,-1 -1,1 1,0 1,0 2,-1 3,-1 6,-1 4,0 8,0 11,3 0,0 1,0 1,0 -1,0 0,0 0,1 1,0 2,1 2,1 0,0 1,2 1,2 0,0 1,1 1,2 0,0 1,1 1,1 0,1 0,1 0,2 0,0 0,0 0,0l-33 0c0,0 0,0 0,-1 0,0 0,0 0,-1z"/>
   <path class="fil0" d="M651 134c-4,-10 -15,-14 -25,-14 -10,-1 -20,5 -25,14 -2,4 -3,9 -4,14 0,0 0,1 0,1 -1,9 2,18 7,24 11,13 33,12 45,4 7,-3 1,-13 -5,-9 -6,3 -12,4 -18,3 -2,0 -3,0 -5,0 0,0 -1,-1 -2,-1 0,0 -1,0 -1,0 0,0 0,0 0,0 -3,-2 -4,-2 -6,-5 1,1 0,0 -1,-1 0,0 0,-1 0,-1 -1,-1 -1,-1 -1,-1 0,0 0,-1 0,-1 -1,-1 -1,-2 -1,-3 0,-1 -1,-1 -1,-2 0,0 0,-1 0,-1 0,0 0,0 0,0l41 0c3,0 5,-3 6,-6 0,-5 -2,-10 -4,-15zm-41 8c0,-1 0,-1 0,-1 1,-2 2,-3 2,-4 1,0 1,0 1,0 0,-1 0,-1 0,-1 1,-1 2,-1 2,-2 0,0 2,-1 2,-1 0,0 1,-1 1,-1 0,1 1,0 1,0 3,-1 4,-1 6,-1 5,0 8,0 12,3 0,0 0,0 0,0 0,0 1,0 1,1 1,0 1,1 2,1 -1,0 0,2 1,2 0,0 0,1 1,2 0,0 0,1 0,1 0,1 1,1 1,2 0,0 0,0 0,0l-34 0c0,0 1,0 1,-1 0,0 0,0 0,0z"/>
   <path class="fil0" d="M173 57l-42 0c0,-18 -10,-57 -40,-57 -32,0 -39,41 -39,57l-43 0c-11,0 -9,11 -9,11l8 112c0,0 0,24 22,25 1,0 121,0 123,0 21,-1 22,-25 22,-25l8 -112c0,0 2,-12 -10,-11zm-81 -47c26,1 29,43 29,47l-59 0c0,-4 2,-46 30,-47zm32 144c-2,22 -26,23 -30,23 -19,-1 -31,-11 -31,-11 -1,-1 -1,-1 -1,-3 0,-1 1,-3 3,-3 1,0 1,1 2,1l0 0c0,0 0,0 0,0l0 0c1,1 11,9 27,9 10,0 22,-5 23,-16 1,-17 -22,-23 -26,-24 -4,-1 -27,-7 -26,-26 0,-8 7,-22 26,-23 17,0 26,8 26,8l0 0c1,1 1,1 1,2 0,2 -1,3 -3,3 -1,0 -1,0 -2,0 0,0 -10,-6 -22,-6 -13,0 -19,9 -19,16 0,12 16,18 19,19 16,5 34,11 33,31z"/>
  </g>
 </g>
</svg>
