<?xml version="1.0" encoding="UTF-8"?>
<!DOCTYPE svg PUBLIC "-//W3C//DTD SVG 1.1//EN" "http://www.w3.org/Graphics/SVG/1.1/DTD/svg11.dtd">
<!-- Creator: CorelDRAW X7 -->
<svg xmlns="http://www.w3.org/2000/svg" xml:space="preserve" width="23.6888mm" height="7.7892mm" version="1.1" style="shape-rendering:geometricPrecision; text-rendering:geometricPrecision; image-rendering:optimizeQuality; fill-rule:evenodd; clip-rule:evenodd"
viewBox="0 0 422 139"
 xmlns:xlink="http://www.w3.org/1999/xlink">
 <defs>
  <style type="text/css">
   <![CDATA[
    .fil0 {fill:#F0592B}
   ]]>
  </style>
 </defs>
 <g id="Layer_x0020_1">
  <metadata id="CorelCorpID_0Corel-Layer"/>
  <g id="_1972074928272">
   <path class="fil0" d="M189 87c-4,-4 -9,-6 -14,-8 0,0 -1,0 -2,0 0,0 -1,0 -1,0 0,-1 -1,-1 -1,-1 0,0 0,0 -1,0 0,0 0,0 0,0 -2,-1 -4,-3 -6,-4 -2,-2 -2,-3 -2,-5 0,-3 1,-6 2,-7 2,-2 5,-3 7,-3 5,-1 11,1 15,3 4,3 7,-3 4,-6 -6,-4 -14,-5 -21,-4 -4,0 -8,2 -10,5 -3,3 -5,8 -5,12 0,11 12,15 20,18 3,1 3,1 5,2 2,1 4,2 6,4 0,0 0,0 1,1 0,0 0,0 0,0 0,0 0,1 1,1 0,1 0,1 1,3 0,0 0,0 0,0 0,1 0,1 0,1 0,1 0,2 0,2 -1,2 -1,3 -2,4 -2,4 -8,5 -12,5 -7,0 -12,-3 -18,-7 -1,-1 -4,0 -4,2 -2,1 -1,3 1,5 6,4 14,8 22,7 7,0 15,-3 18,-10 4,-7 2,-15 -4,-20z"/>
   <path class="fil0" d="M230 79c-7,-4 -16,-3 -22,2 0,0 0,0 0,0l0 -21 0 -5c0,-5 -7,-5 -7,0l0 54 0 5c0,5 7,5 7,0l0 -19c0,0 0,0 0,0 0,-1 0,-1 0,-1 0,-1 0,-1 0,-1l0 0c1,-1 1,-1 1,-1 0,-1 1,-2 2,-3 0,0 0,0 0,0 0,0 0,-1 0,-1 0,0 0,0 1,0 0,-1 0,-1 0,-1 1,0 1,-1 1,-1 3,-2 6,-2 9,-2 2,0 3,1 4,1 1,1 2,1 3,3 -1,-1 0,0 0,1 0,0 1,1 1,1 0,0 0,1 0,2 0,0 0,0 0,0l0 1 0 16 0 5c0,5 8,5 8,0l0 -12c0,-4 0,-8 -1,-12 0,-4 -3,-8 -7,-11z"/>
   <path class="fil0" d="M271 78c-9,-3 -18,1 -24,8 -5,8 -3,18 2,25 7,7 17,8 25,5 7,-3 12,-11 12,-19 0,0 0,0 0,0 -1,-9 -7,-16 -15,-19zm-6 32c-7,1 -13,-5 -14,-13 0,-7 7,-13 14,-13 7,0 13,6 14,13 -1,8 -7,13 -14,13z"/>
   <path class="fil0" d="M319 78c-7,-2 -14,0 -20,5l0 -2c0,-5 -7,-5 -7,0l0 52 0 2c0,5 7,5 7,0l0 -23c6,6 16,7 24,4 7,-3 11,-11 11,-19 0,0 0,0 0,0 0,-9 -6,-16 -15,-19zm-6 32c-7,1 -13,-5 -13,-13 0,-7 6,-13 13,-13 8,0 14,6 14,13 0,8 -6,13 -14,13z"/>
   <path class="fil0" d="M360 77c-7,0 -13,3 -16,9 -2,3 -3,6 -3,9 0,1 0,1 0,1 -1,6 1,12 5,16 6,8 20,7 29,2 4,-2 0,-8 -4,-6 -4,2 -7,3 -11,3 -1,0 -2,-1 -3,-1 -1,0 -1,0 -2,0 0,0 0,0 0,0 -1,0 -1,-1 -1,-1 -1,0 -2,-1 -3,-2 0,0 -1,-1 -1,-1 0,0 0,-1 0,-1 0,0 -1,0 -1,-1 0,0 0,0 0,0 0,-1 0,-2 -1,-2 0,-1 0,-1 0,-1 0,0 0,-1 0,-1 0,0 0,0 0,0l26 0c2,0 4,-2 4,-4 0,-3 -1,-6 -2,-9 -3,-7 -10,-10 -16,-10zm-11 14c0,0 0,0 0,0 1,-1 1,-2 2,-3 0,0 0,0 0,0 0,0 0,0 0,0 1,-1 1,-1 2,-2 0,1 1,0 1,0 0,0 0,-1 1,-1 -1,0 0,0 0,0 2,0 3,-1 4,-1 3,0 5,1 8,2 0,0 0,0 0,0 0,0 0,1 0,1 1,0 1,1 1,1 0,0 1,1 1,1 0,0 0,1 1,1 0,0 0,1 0,1 0,0 0,1 0,1 0,0 0,0 0,1l-21 0c0,-1 0,-1 0,-1 0,0 0,-1 0,-1z"/>
   <path class="fil0" d="M420 87c-3,-7 -9,-10 -16,-10 -7,0 -13,3 -16,9 -2,3 -3,6 -3,9 0,1 0,1 0,1 -1,6 1,12 5,16 6,8 21,7 29,2 4,-2 0,-8 -4,-6 -3,2 -7,3 -11,3 -1,0 -2,-1 -3,-1 -1,0 -1,0 -2,0 0,0 0,0 0,0 0,0 0,-1 0,-1 -2,0 -3,-1 -4,-2 0,0 0,-1 -1,-1 0,0 0,-1 0,-1 0,0 0,0 0,-1 0,0 -1,0 -1,0 0,-1 0,-2 0,-2 0,-1 0,-1 -1,-1 0,0 0,-1 0,-1 0,0 0,0 0,0l27 0c2,0 3,-2 3,-4 0,-3 0,-7 -2,-9zm-27 4c1,0 1,0 1,0 0,-1 1,-2 1,-3 0,0 0,0 0,0 0,0 1,0 1,0 0,-1 1,-1 1,-2 0,1 1,0 1,0 0,0 1,-1 1,-1 -1,0 0,0 0,0 2,0 3,-1 4,-1 3,0 6,1 8,2 0,0 0,0 0,0 0,0 0,1 1,1 0,0 0,1 1,1 0,0 0,1 0,1 0,0 1,1 1,1 0,0 0,1 0,1 0,0 0,1 1,1 0,0 0,0 0,1l-22 0c0,-1 0,-1 0,-1 0,0 0,-1 0,-1z"/>
   <path class="fil0" d="M112 37l-27 0c0,-12 -7,-37 -26,-37 -21,0 -26,27 -26,37l-27 0c-7,-1 -6,7 -6,7l5 72c0,0 0,16 14,16 1,0 78,0 80,0 13,-1 14,-16 14,-16l5 -72c0,0 1,-8 -6,-7zm-53 -30c17,0 19,27 19,30l-38 0c0,-3 1,-30 19,-30zm21 92c-1,15 -17,15 -20,15 -12,0 -19,-7 -19,-7 -1,0 -1,-1 -1,-2 0,-1 1,-2 2,-2 0,0 1,1 1,1l0 0c0,0 0,0 0,0l0 0c1,1 8,6 17,6 7,0 15,-4 15,-11 1,-10 -13,-14 -16,-15 -3,-1 -18,-5 -17,-17 0,-5 5,-14 17,-14 11,-1 16,4 16,4l0 0c1,1 1,1 1,2 0,1 -1,2 -2,2 0,0 -1,0 -1,0 0,0 -6,-4 -14,-4 -8,0 -12,6 -13,10 0,8 11,11 13,12 10,3 22,7 21,20z"/>
  </g>
 </g>
</svg>
