<?xml version="1.0" encoding="UTF-8"?>
<!DOCTYPE svg PUBLIC "-//W3C//DTD SVG 1.1//EN" "http://www.w3.org/Graphics/SVG/1.1/DTD/svg11.dtd">
<!-- Creator: CorelDRAW X7 -->
<svg xmlns="http://www.w3.org/2000/svg" xml:space="preserve" width="29.6333mm" height="7.8293mm" version="1.1" style="shape-rendering:geometricPrecision; text-rendering:geometricPrecision; image-rendering:optimizeQuality; fill-rule:evenodd; clip-rule:evenodd"
viewBox="0 0 660 175"
 xmlns:xlink="http://www.w3.org/1999/xlink">
 <defs>
  <style type="text/css">
   <![CDATA[
    .fil4 {fill:#FEFEFE}
    .fil62 {fill:#F4A314}
    .fil63 {fill:#F4A215}
    .fil64 {fill:#F49F17}
    .fil65 {fill:#F49F12}
    .fil66 {fill:#F49E13}
    .fil67 {fill:#F39B15}
    .fil68 {fill:#F39915}
    .fil69 {fill:#F39816}
    .fil52 {fill:#F6B212}
    .fil53 {fill:#F5B013}
    .fil54 {fill:#F5AF14}
    .fil55 {fill:#F5AD15}
    .fil56 {fill:#F4AA16}
    .fil57 {fill:#F4AA12}
    .fil58 {fill:#F4A912}
    .fil59 {fill:#F4A613}
    .fil60 {fill:#F3A513}
    .fil61 {fill:#F3A315}
    .fil38 {fill:#F8C710}
    .fil39 {fill:#F8C610}
    .fil40 {fill:#F8C411}
    .fil41 {fill:#F8C312}
    .fil42 {fill:#F7C013}
    .fil43 {fill:#F7BE14}
    .fil44 {fill:#F6BD14}
    .fil45 {fill:#F6BB16}
    .fil46 {fill:#F6B917}
    .fil47 {fill:#F6B911}
    .fil48 {fill:#F5B711}
    .fil49 {fill:#F5B611}
    .fil50 {fill:#F5B412}
    .fil51 {fill:#F5B213}
    .fil27 {fill:#F9D512}
    .fil28 {fill:#F8D313}
    .fil29 {fill:#F8D30C}
    .fil30 {fill:#F8D10D}
    .fil31 {fill:#F8CF0E}
    .fil32 {fill:#F8CD10}
    .fil33 {fill:#F7CC12}
    .fil34 {fill:#F7CA14}
    .fil35 {fill:#F7C915}
    .fil36 {fill:#F7C911}
    .fil37 {fill:#F6C711}
    .fil13 {fill:#F9E712}
    .fil14 {fill:#F9E612}
    .fil15 {fill:#F9E412}
    .fil16 {fill:#F9E312}
    .fil17 {fill:#F9E113}
    .fil18 {fill:#F9DF14}
    .fil19 {fill:#F9DF0E}
    .fil20 {fill:#F9DE0F}
    .fil21 {fill:#F8DC10}
    .fil22 {fill:#F8DB11}
    .fil23 {fill:#F8D912}
    .fil24 {fill:#F8D713}
    .fil25 {fill:#F7D514}
    .fil26 {fill:#F7D414}
    .fil6 {fill:#F8ED13}
    .fil7 {fill:#F8EC14}
    .fil8 {fill:#F8EB16}
    .fil9 {fill:#F8EA18}
    .fil10 {fill:#F8E819}
    .fil11 {fill:#F8E811}
    .fil12 {fill:#F7E613}
    .fil2 {fill:#8DC356}
    .fil5 {fill:#656360}
    .fil0 {fill:#585653}
    .fil1 {fill:#5AB244}
    .fil3 {fill:#449E45}
    .fil70 {fill:#2BA943}
   ]]>
  </style>
    <clipPath id="id0">
     <path d="M5 174l0 0 0 0 9 0 35 0 -44 0z"/>
    </clipPath>
    <clipPath id="id1">
     <path d="M143 33l0 0zm-143 10l0 0 0 67 0 12 0 4 0 -4 0 -12 0 -67zm143 -10c0,0 0,0 0,0 0,0 0,0 0,0l0 0zm2 0c0,0 0,0 0,0 -1,0 -1,0 -2,0 1,0 1,0 2,0 0,0 0,0 0,0l0 0zm-112 1c-3,-1 -7,-1 -10,-1 -5,0 -9,0 -13,1 4,-1 8,-1 13,-1 3,0 7,0 10,1l0 0zm87 0l0 0zm0 0l0 0zm-1 0c0,0 0,0 0,0 0,0 0,0 0,0l0 0zm-1 0c0,0 0,0 0,0 0,0 0,0 0,0l0 0zm-23 3c0,0 0,0 0,0 0,0 0,0 0,0l0 0zm0 0l0 0zm0 0c0,0 0,0 0,0 0,0 0,0 0,0l0 0zm0 0c0,0 0,0 0,0 0,0 0,0 0,0l0 0zm0 0c0,0 0,0 0,0 0,0 0,0 0,0l0 0zm0 0l0 0zm0 0l0 0 0 0zm0 0c0,0 0,0 0,0 0,0 0,0 0,0l0 0zm0 0c0,0 0,0 0,0 0,0 0,0 0,0l0 0zm0 0c0,0 0,0 0,0 0,0 0,0 0,0l0 0zm0 0c0,0 0,0 0,0 0,0 0,0 0,0l0 0zm0 0c0,0 0,0 0,0 0,0 0,0 0,0l0 0zm0 0c0,0 0,0 0,0 0,0 0,0 0,0l0 0zm0 0l0 0 0 0zm-1 0c0,0 0,0 1,0 -1,0 -1,0 -1,0l0 0zm0 0c0,0 0,0 0,0 0,0 0,0 0,0l0 0zm-33 0l0 0zm1 0l0 0zm0 0l0 0zm0 0l0 0zm0 0l0 0 0 0zm0 0l0 0 0 0zm0 0l0 0zm0 0l0 0zm0 0l0 0zm0 0c0,0 0,0 0,0 0,0 0,0 0,0l0 0zm0 0l0 0 0 0zm0 0c0,0 0,0 0,0 0,0 0,0 0,0l0 0zm0 0l0 0zm0 0c0,0 0,0 0,0 0,0 0,0 0,0l0 0zm0 0l0 0 0 0zm0 0c0,0 0,0 0,0 0,0 0,0 0,0l0 0zm0 0c0,0 0,0 0,0 0,0 0,0 0,0l0 0zm0 0c0,0 0,0 0,0 0,0 0,0 0,0l0 0zm0 0c0,0 0,0 0,0 0,0 0,0 0,0l0 0zm1 0l-1 0 1 0zm0 0c0,0 0,0 0,0 0,0 0,0 0,0l0 0zm0 0c0,0 0,0 0,0 0,0 0,0 0,0l0 0zm0 0c0,0 0,0 0,0 0,0 0,0 0,0l0 0zm23 3c2,-1 5,-2 8,-3 -3,1 -6,2 -8,3l0 0zm0 0l0 0 0 0zm-1 0c0,0 0,0 1,0 -1,0 -1,0 -1,0l0 0zm0 0c0,0 0,0 0,0 0,0 0,0 0,0l0 0zm0 0l0 0 0 0zm0 0c0,0 0,0 0,0 0,0 0,0 0,0l0 0zm0 0c0,0 0,0 0,0 0,0 0,0 0,0l0 0zm0 0c0,0 0,0 0,0 0,0 0,0 0,0l0 0zm0 0c0,0 0,0 0,0 0,0 0,0 0,0l0 0zm0 0l0 0zm0 0l0 0 0 0zm0 0c0,0 0,0 0,0 0,0 0,0 0,0l0 0zm0 0l0 0 0 0zm0 0l0 0zm0 0l0 0zm0 0c0,0 0,0 0,0 0,0 0,0 0,0l0 0zm-8 3c-1,0 -2,0 -2,-1 -4,-2 -8,-3 -12,-5 4,2 8,3 12,5 0,1 1,1 2,1 1,0 2,0 2,-1l0 0c0,1 -1,1 -2,1l0 0zm77 79l0 -80c0,0 0,0 0,0 0,0 0,0 0,0l0 80z"/>
    </clipPath>
    <clipPath id="id2">
     <path d="M139 33l0 0c-7,0 -14,0 -21,1l-11 1 0 0 0 0 11 -1c0,0 0,0 0,0l1 0c0,0 0,0 0,0 0,0 1,0 1,0l0 0c0,0 0,0 0,0l0 0c6,-1 12,-1 19,-1zm0 0l4 0 -4 0zm15 89l0 3 0 -3zm-47 -87l0 0zm0 0c0,0 0,0 0,0 0,0 0,0 0,0l0 0zm0 0l0 0zm0 0l0 0zm-34 73c2,0 3,0 4,0 0,0 0,0 0,0l0 0 0 -14c0,0 0,-1 0,-2 0,6 -1,11 -4,16l0 0zm81 14l0 -80 0 80zm-18 41c0,0 1,0 1,0l0 0c0,0 -1,0 -1,0l0 0zm-30 11l0 0zm0 0l0 0zm-1 0l0 0zm0 0l0 0 0 0zm-31 -129l0 0c-9,-5 -18,-7 -28,-8l-11 -1c-4,0 -8,0 -12,0 -6,0 -11,0 -17,0 -2,0 -4,2 -4,5 7,-2 14,-2 22,-2 26,0 50,6 50,6l0 0zm-69 130c-3,-1 -5,-3 -5,-5l0 -44 0 -4 0 -12 0 -67c0,-5 4,-9 10,-9l0 0c4,-1 8,-1 13,-1 3,0 7,0 10,1 1,0 2,0 3,0l11 0c5,1 10,2 14,3l0 0c0,0 0,0 1,0l0 0c0,0 0,0 0,0l0 0c0,0 0,0 0,0l0 0 0 0c0,0 0,0 0,0l0 0c0,0 0,0 0,0l0 0c0,0 0,0 0,0l0 0c0,0 0,0 0,0l0 0c0,0 0,0 0,0 0,0 0,0 0,0l0 0 0 0 0 0c0,0 0,0 0,0 0,0 0,0 0,0l0 0 0 0c0,0 0,0 0,0l0 0c0,0 0,0 0,0l0 0c0,0 0,0 0,0l0 0c0,0 0,0 0,0l0 0c0,0 0,0 0,0l0 0 1 0c0,0 0,0 0,0l0 0c0,0 0,0 0,0l0 0c0,0 0,0 0,0l0 0c4,2 8,3 12,5 0,1 1,1 2,1 1,0 2,0 2,-1l0 0c-1,1 -1,1 -2,1l0 0 0 46c0,1 0,2 0,3 0,-20 -16,-35 -35,-35l0 0c-20,0 -35,16 -35,35 0,19 16,35 35,35 0,0 0,0 0,0 6,0 12,-2 17,-4 0,0 0,1 0,2l0 0c0,0 0,0 2,1 -24,6 -42,25 -47,48l-9 1z"/>
    </clipPath>
    <clipPath id="id3">
     <path d="M14 174c5,-23 23,-42 47,-48 0,0 0,0 0,0 2,6 12,17 16,17l0 31 29 0c0,0 -1,0 -1,0l-48 0 -8 0 -35 0z"/>
    </clipPath>
    <clipPath id="id4">
     <path d="M81 108l0 0c-2,-4 -4,-9 -4,-14l0 14c0,0 0,0 0,0l0 0c0,0 1,0 1,0 1,0 2,0 3,0zm58 -75l2 0c3,0 6,0 9,0 2,0 4,2 4,4l0 85 0 3c0,16 -7,29 -17,38l0 0c-8,-18 -24,-32 -43,-37 1,-1 1,-1 2,-1 0,-1 0,-2 0,-2 5,2 10,4 16,4 0,0 0,0 0,0 19,0 35,-16 35,-35 0,-20 -16,-35 -35,-35 0,0 0,0 0,0 -18,0 -34,14 -35,32l0 -46c8,-4 19,-7 30,-8l11 -1c7,-1 14,-1 21,-1zm-9 3c-4,0 -8,0 -12,0l-10 1c-11,1 -20,3 -28,8 0,0 24,-6 50,-6 7,0 14,0 21,2 0,-3 -2,-5 -4,-5 -6,0 -11,0 -17,0l0 0zm-53 138l0 -31 0 31z"/>
    </clipPath>
    <clipPath id="id5">
     <path d="M77 92l0 0 0 0 0 0 0 0 0 0c0,-1 0,-2 0,-3l0 5c0,0 0,-1 0,-2z"/>
    </clipPath>
    <clipPath id="id6">
     <path d="M112 57l0 0c19,0 35,15 35,35 0,19 -15,35 -35,35l0 0c-6,0 -11,-2 -16,-4 0,0 0,-1 0,-1 0,0 0,-1 0,-1 -1,-2 -1,-3 -2,-4 5,4 11,6 18,6 0,0 0,0 0,0 17,0 31,-14 31,-31 0,-3 -1,-6 -1,-9 -1,1 -1,1 -1,1 -3,-13 -15,-23 -29,-23 0,0 0,0 0,0 -14,0 -26,10 -29,23 0,0 0,0 0,0 -1,2 -2,5 -2,8 0,7 3,13 6,18 -2,-1 -4,-2 -6,-2 -2,-4 -4,-9 -4,-14l0 -5c1,-18 17,-32 35,-32z"/>
    </clipPath>
    <clipPath id="id7">
     <path d="M112 123l0 0c-7,0 -13,-2 -18,-6 0,0 0,-1 0,-1 5,4 11,6 18,6 0,0 0,0 0,0 17,0 31,-13 31,-30 0,-3 -1,-6 -2,-8 0,0 0,0 0,-1 1,3 2,6 2,9 0,17 -14,31 -31,31zm-24 -12c0,0 0,-1 -1,-1 -3,-5 -6,-11 -6,-18 0,-3 1,-6 2,-8 0,0 0,0 0,0 -1,2 -1,5 -1,8 0,7 2,14 6,19l0 0z"/>
    </clipPath>
    <clipPath id="id8">
     <path d="M112 122l0 0c-7,0 -13,-2 -18,-6 -2,-2 -4,-4 -6,-5 -4,-5 -6,-12 -6,-19 0,-3 0,-6 1,-8 3,12 15,22 29,22 0,0 0,0 0,0 14,0 26,-10 29,-22 1,2 2,5 2,8 0,17 -14,30 -31,30z"/>
    </clipPath>
    <clipPath id="id9">
     <path d="M77 174l0 -31c0,0 0,0 0,0 0,0 0,0 1,0l0 0c3,0 12,-10 15,-16 0,-1 0,-1 1,-1 19,5 35,19 43,37 -9,7 -20,11 -31,11l-29 0z"/>
    </clipPath>
    <clipPath id="id10">
     <path d="M61 126c-2,-1 -2,-1 -2,-1l0 0c0,-1 0,-2 0,-2 0,0 0,0 0,0 0,0 1,0 2,1 0,1 1,1 1,2 -1,0 -1,0 -1,0z"/>
    </clipPath>
    <clipPath id="id11">
     <path d="M77 143c-4,0 -14,-11 -16,-17 0,0 0,0 0,0 0,0 0,0 1,0 3,5 11,14 15,14l0 3z"/>
    </clipPath>
    <clipPath id="id12">
     <path d="M94 126c-1,0 -1,0 -2,0 0,-1 0,-1 1,-1 1,-1 2,-2 2,-2 1,0 1,0 1,0 0,0 0,1 0,2 -1,0 -1,0 -2,1l0 0zm-17 17l0 -3 0 3z"/>
    </clipPath>
    <clipPath id="id13">
     <path d="M96 123l0 0c0,0 0,0 0,0 0,0 0,0 0,0 0,-1 0,-1 0,-1 0,0 0,1 0,1z"/>
    </clipPath>
    <clipPath id="id14">
     <path d="M77 140l0 0 0 0c0,0 0,0 0,0 0,0 0,0 0,0 0,0 1,0 1,0 0,0 0,0 0,0l0 0c3,0 11,-8 14,-14 1,0 1,0 2,0 -1,0 -1,0 -1,1 -3,6 -12,16 -15,16l0 0c-1,0 -1,0 -1,0l0 0 0 -3z"/>
    </clipPath>
    <clipPath id="id15">
     <path d="M42 57l0 0c19,0 35,15 35,35 0,0 0,0 0,0l0 0c0,6 -1,11 -4,16 -2,1 -5,2 -7,3 4,-5 7,-12 7,-19 0,-3 -1,-6 -2,-9 0,1 0,1 0,1 -3,-13 -15,-23 -29,-23 0,0 0,0 0,0 -14,0 -26,10 -29,23 0,0 0,0 -1,0 0,2 -1,5 -1,8 0,17 14,31 31,31 0,0 0,0 0,0 7,0 14,-3 19,-7 -1,2 -2,3 -2,5 0,1 0,1 0,2l0 0 0 0c0,0 0,0 0,0 -5,2 -11,4 -17,4l0 0c-19,0 -35,-16 -35,-35 0,-19 15,-35 35,-35z"/>
    </clipPath>
    <clipPath id="id16">
     <path d="M59 123c0,0 0,0 0,0 0,0 0,0 0,0 0,0 0,0 0,0z"/>
    </clipPath>
    <clipPath id="id17">
     <path d="M42 123l0 0c-17,0 -31,-14 -31,-31 0,-3 1,-6 1,-8 0,0 1,0 1,0 -1,2 -2,5 -2,8 1,17 14,30 31,30 0,0 0,0 0,0 8,0 14,-2 20,-7 0,0 -1,1 -1,1 -5,4 -12,7 -19,7zm23 -11c5,-5 7,-12 7,-20 0,-3 0,-6 -1,-8 0,0 0,0 0,-1 1,3 2,6 2,9 0,7 -3,14 -7,19 0,0 -1,1 -1,1l0 0z"/>
    </clipPath>
    <clipPath id="id18">
     <path d="M42 122l0 0c-17,0 -30,-13 -31,-30 0,-3 1,-6 2,-8 3,12 15,22 29,22 0,0 0,0 0,0 14,0 26,-10 29,-22 1,2 1,5 1,8 0,8 -2,15 -7,20 -1,1 -2,2 -3,3 -6,5 -12,7 -20,7z"/>
    </clipPath>
    <clipPath id="id19">
     <path d="M77 134l0 0c3,0 9,-3 14,-6 1,-1 1,-2 2,-3 -5,2 -13,7 -16,7 -3,0 -11,-5 -16,-8 1,1 1,2 2,3 5,3 12,7 14,7z"/>
    </clipPath>
    <clipPath id="id20">
     <path d="M23 36l1 0c3,0 7,0 11,0l11 1c10,1 19,3 28,8l0 0c0,0 -24,-6 -50,-6 -8,0 -15,0 -22,1 0,-2 2,-4 4,-4 6,0 11,0 17,0z"/>
    </clipPath>
    <clipPath id="id21">
     <path d="M130 36l0 0c6,0 12,0 17,0 2,0 4,2 4,4 -7,-1 -14,-1 -21,-1 -26,0 -50,6 -50,6 8,-5 17,-7 28,-8l10 -1c4,0 8,0 12,0z"/>
    </clipPath>
    <clipPath id="id22">
     <path d="M77 132l0 0c0,-6 0,-11 0,-14 0,-9 0,-10 0,-10 -4,0 -15,2 -18,13 0,1 0,1 0,2l0 0 0 0c0,0 14,9 18,9z"/>
    </clipPath>
    <clipPath id="id23">
     <path d="M78 108l0 0c0,0 -1,0 -1,0 0,0 1,0 1,0z"/>
    </clipPath>
    <clipPath id="id24">
     <path d="M77 107l0 0c0,0 0,1 0,1l0 0c0,0 1,0 1,0 1,0 2,0 3,0 -1,7 -2,19 -4,24l0 0c0,-6 0,-11 0,-14 0,-9 0,-10 0,-10 0,0 0,-1 0,-1z"/>
    </clipPath>
 </defs>
 <g id="Layer_x0020_1">
  <metadata id="CorelCorpID_0Corel-Layer"/>
  <g id="_1972234775360">
   <path class="fil0" d="M117 35c-3,-20 -19,-35 -40,-35 -20,0 -37,15 -40,35l0 5 12 1 1 -5c1,-14 12,-24 27,-24 15,0 26,10 28,24l0 7 12 -1 0 -7z"/>
   <path class="fil1" d="M5 34c-3,0 -5,2 -5,4l0 72 0 12 0 4 0 44c0,2 2,4 5,4l44 0 8 0 48 0c27,0 49,-22 49,-49l0 -3 0 -80c0,-5 -4,-9 -9,-9 -9,0 -18,0 -27,1l-11 1c-10,1 -20,3 -28,7 -1,1 -3,1 -4,0 -9,-4 -18,-6 -28,-8l-11 0c-11,-1 -21,-1 -31,0z"/>
   <g style="clip-path:url(#id0)">
    <image x="5" y="174" width="43.9082" height="0.0810117" xlink:href="Tokopedia_Images\Tokopedia_ImgID1.png"/>
   </g>
   <g style="clip-path:url(#id1)">
    <image x="0" y="33" width="154.165" height="92.4343" xlink:href="Tokopedia_Images\Tokopedia_ImgID2.png"/>
   </g>
   <g style="clip-path:url(#id2)">
    <image x="0" y="33" width="154" height="141" xlink:href="Tokopedia_Images\Tokopedia_ImgID3.png"/>
   </g>
   <path class="fil2" d="M14 174l35 0 8 0 48 0c12,0 23,-4 32,-11 -10,-23 -33,-39 -60,-39 -31,0 -57,22 -63,50z"/>
   <g style="clip-path:url(#id3)">
    <image x="14" y="126" width="91.543" height="48.607" xlink:href="Tokopedia_Images\Tokopedia_ImgID4.png"/>
   </g>
   <path class="fil3" d="M77 174l29 0c12,0 22,-4 31,-11 10,-9 17,-22 17,-38l0 -3 0 -85c0,-2 -2,-4 -4,-4 -10,0 -21,0 -32,1l-11 1c-11,1 -22,4 -30,8l0 131z"/>
   <g style="clip-path:url(#id4)">
    <image x="77" y="33" width="77.1229" height="141.041" xlink:href="Tokopedia_Images\Tokopedia_ImgID5.png"/>
   </g>
   <g style="clip-path:url(#id5)">
    <image x="77" y="89" width="0.0810115" height="5.10374" xlink:href="Tokopedia_Images\Tokopedia_ImgID6.png"/>
   </g>
   <g style="clip-path:url(#id6)">
    <image x="77" y="57" width="70.0749" height="70.1561" xlink:href="Tokopedia_Images\Tokopedia_ImgID7.png"/>
   </g>
   <path class="fil4" d="M112 61c17,0 30,14 31,31 0,17 -14,30 -31,30 -17,0 -30,-13 -30,-30 0,-17 13,-31 30,-31z"/>
   <g style="clip-path:url(#id7)">
    <image x="81" y="84" width="61.3257" height="39.2097" xlink:href="Tokopedia_Images\Tokopedia_ImgID8.png"/>
   </g>
   <g style="clip-path:url(#id8)">
    <image x="82" y="84" width="61.0016" height="38.6426" xlink:href="Tokopedia_Images\Tokopedia_ImgID9.png"/>
   </g>
   <path class="fil5" d="M109 72c11,-1 21,7 22,18 1,11 -7,21 -18,22 -11,1 -21,-7 -22,-18 -1,-3 0,-7 1,-10 2,3 6,5 10,5 5,-1 9,-5 9,-11 -1,-2 -2,-4 -3,-6 0,0 0,0 1,0z"/>
   <path class="fil1" d="M77 174l29 0c11,0 22,-4 31,-11 -10,-23 -34,-39 -60,-39l0 50z"/>
   <g style="clip-path:url(#id9)">
    <image x="77" y="126" width="59.5434" height="48.283" xlink:href="Tokopedia_Images\Tokopedia_ImgID10.png"/>
   </g>
   <g style="clip-path:url(#id10)">
    <image x="59" y="123" width="3.24046" height="3.24047" xlink:href="Tokopedia_Images\Tokopedia_ImgID11.png"/>
   </g>
   <g style="clip-path:url(#id11)">
    <image x="61" y="126" width="16.5263" height="17.1745" xlink:href="Tokopedia_Images\Tokopedia_ImgID12.png"/>
   </g>
   <g style="clip-path:url(#id12)">
    <image x="77" y="123" width="18.5516" height="20.0099" xlink:href="Tokopedia_Images\Tokopedia_ImgID13.png"/>
   </g>
   <g style="clip-path:url(#id13)">
    <image x="96" y="122" width="0.243034" height="0.810117" xlink:href="Tokopedia_Images\Tokopedia_ImgID14.png"/>
   </g>
   <g style="clip-path:url(#id14)">
    <image x="77" y="126" width="16.4453" height="17.1745" xlink:href="Tokopedia_Images\Tokopedia_ImgID15.png"/>
   </g>
   <g style="clip-path:url(#id15)">
    <image x="7" y="57" width="70.1559" height="70.1561" xlink:href="Tokopedia_Images\Tokopedia_ImgID16.png"/>
   </g>
   <g style="clip-path:url(#id16)">
    <image x="59" y="123" width="0.0810115" height="0.0810117" xlink:href="Tokopedia_Images\Tokopedia_ImgID17.png"/>
   </g>
   <path class="fil4" d="M42 61c17,0 30,14 30,31 0,17 -13,30 -30,30 -17,0 -30,-13 -31,-30 0,-17 14,-31 31,-31z"/>
   <g style="clip-path:url(#id17)">
    <image x="11" y="84" width="61.3257" height="39.2097" xlink:href="Tokopedia_Images\Tokopedia_ImgID18.png"/>
   </g>
   <g style="clip-path:url(#id18)">
    <image x="11" y="84" width="60.9206" height="38.6426" xlink:href="Tokopedia_Images\Tokopedia_ImgID19.png"/>
   </g>
   <path class="fil5" d="M45 72c11,0 20,9 20,20 0,11 -9,20 -20,20 -11,0 -20,-9 -20,-20 0,-4 1,-7 3,-10 1,4 5,6 9,6 5,0 10,-4 10,-10 0,-2 -1,-4 -3,-6 1,0 1,0 1,0z"/>
   <path class="fil6" d="M61 125l0 0c0,-1 0,-1 0,-1 0,0 0,0 0,0 0,0 0,0 0,1z"/>
   <polygon class="fil6" points="61,125 61,125 61,125 61,125 "/>
   <path class="fil6" d="M61 125l0 0 0 0 0 0 0 0zm32 0l0 0 0 0 0 0 0 0 0 0 0 0 0 0 0 0c0,0 0,0 0,0l0 0 0 0 0 0 0 0 0 0 0 0 0 0 0 0z"/>
   <path class="fil7" d="M61 125l0 0 1 0 0 0 -1 0zm32 0l0 0 0 0 0 0 0 0 0 0 0 0 0 0 0 0 0 0 0 0 0 0 0 0 0 0 0 0 0 0 0 0 0 0 0 0 0 0 0 0 0 0 0 0z"/>
   <path class="fil7" d="M62 125l0 0 0 0 0 0 0 0zm30 0l0 0 1 0 0 0 0 0 0 0 0 0 -1 0z"/>
   <path class="fil8" d="M62 125l0 0 0 0 0 0 0 0zm30 0l0 0 0 0 0 0 0 0z"/>
   <path class="fil8" d="M62 125l0 0 0 0 0 0 0 0zm30 0l0 0 0 0 0 0 0 0z"/>
   <path class="fil8" d="M62 125l0 0 0 0 0 0 0 0zm30 0l0 0 0 0 0 0 0 0z"/>
   <path class="fil9" d="M62 125l0 0 0 0 0 0 0 0zm30 0l0 0 0 0 0 0 0 0z"/>
   <path class="fil9" d="M62 126l0 0zm0 -1l0 0 0 1 0 0 0 0 0 -1zm30 0l0 0 0 1 0 0 0 -1z"/>
   <path class="fil10" d="M62 126l0 0 0 0 0 0 0 0zm30 0l0 0 0 0 0 0 0 0 0 0z"/>
   <path class="fil10" d="M62 126l0 0 0 0 0 0 0 0zm30 0l0 0 0 0 0 0 0 0 0 0 0 0z"/>
   <path class="fil11" d="M62 126l0 0 0 0 0 0 0 0zm30 0l0 0 0 0 0 0 0 0 0 0z"/>
   <path class="fil12" d="M62 126l0 0 0 0 0 0 0 0zm30 0l0 0 0 0 0 0 0 0z"/>
   <path class="fil13" d="M62 126l0 0 0 0 0 0 0 0zm30 0l0 0 0 0 0 0 0 0z"/>
   <path class="fil13" d="M62 126l0 0 0 0 0 0 0 0zm30 0l0 0 0 0 0 0 0 0z"/>
   <path class="fil14" d="M62 126l0 0 0 0 0 0 0 0zm30 0l0 0 0 0 0 0 0 0z"/>
   <path class="fil14" d="M62 126l0 0 0 1 0 0 0 -1zm30 1l0 -1 0 0 0 0 0 1z"/>
   <path class="fil15" d="M62 127l0 0 0 0 0 0 0 0zm30 0l0 0 0 0 0 0 0 0z"/>
   <path class="fil15" d="M62 127l0 0 1 0 0 0 -1 0zm30 0l0 0 0 0 0 0 0 0z"/>
   <path class="fil15" d="M63 127l0 0 0 0 0 0 0 0zm28 0l0 0 1 0 0 0 0 0 -1 0 0 0z"/>
   <path class="fil16" d="M63 127l0 0 0 0 0 0 0 0zm28 0l0 0 0 0z"/>
   <path class="fil17" d="M63 127l0 0 0 0 0 0 0 0zm28 0l0 0 0 0 0 0 0 0z"/>
   <path class="fil17" d="M63 127l0 0 0 0 0 0 0 0zm28 0l0 0 0 0 0 0 0 0 0 0 0 0z"/>
   <path class="fil17" d="M63 127l0 0 0 0 0 0 0 0zm28 0l0 0 0 0 0 0 0 0z"/>
   <path class="fil18" d="M63 127l0 0 0 0 0 0 0 0 0 0zm28 0l0 0 0 0 0 0 0 0z"/>
   <path class="fil19" d="M63 127l0 0 0 1 0 0 0 -1zm28 1l0 -1 0 0 0 0 0 1z"/>
   <path class="fil20" d="M63 128l0 0 0 0 0 0 0 0zm28 0l0 0 0 0 0 0 0 0 0 0 0 0 0 0 0 0z"/>
   <path class="fil20" d="M63 128l0 0 1 0 -1 0 0 0zm28 0l0 0 0 0 0 0 0 0z"/>
   <path class="fil20" d="M63 128l1 0 0 0 -1 0 0 0zm28 0l0 0 0 0 0 0 0 0 0 0 0 0z"/>
   <path class="fil21" d="M63 128l1 0 0 0 -1 0 0 0zm28 0l0 0 0 0 0 0 0 0z"/>
   <path class="fil21" d="M63 128l1 0 0 0 -1 0 0 0zm28 0l0 0 0 0 -1 0 1 0z"/>
   <path class="fil22" d="M63 128l1 0 1 0 -1 0 -1 0zm27 0l1 0 0 0 -1 0 0 0z"/>
   <path class="fil22" d="M64 128l1 0 0 0 -1 0 0 0zm26 0l1 0 -1 0 0 0 0 0z"/>
   <path class="fil22" d="M64 128l1 0 0 1 -1 0 0 -1zm26 0l0 0 0 1 0 0 0 -1z"/>
   <path class="fil23" d="M64 129l1 0 0 0 -1 0 0 0zm26 0l0 0 0 0 0 0 0 0z"/>
   <path class="fil23" d="M64 129l1 0 0 0 -1 0 0 0zm26 0l0 0 0 0 -1 0 1 0z"/>
   <path class="fil24" d="M64 129l1 0 1 0 -2 0 0 0zm25 0l1 0 0 0 -1 0 0 0z"/>
   <path class="fil24" d="M64 129l2 0 0 0 -2 0 0 0zm25 0l1 0 0 0 -1 0 0 0z"/>
   <path class="fil24" d="M64 129l2 0 0 0 -2 0 0 0zm25 0l1 0 0 0 -1 0 0 0z"/>
   <path class="fil25" d="M64 129l2 0 0 0 -2 0 0 0zm25 0l1 0 0 0 -2 0 1 0z"/>
   <path class="fil25" d="M64 129l2 0 0 0 -2 0 0 0zm24 0l2 0 0 0 -2 0 0 0z"/>
   <path class="fil25" d="M64 129l2 0 1 1 -3 0 0 -1zm24 0l2 0 0 0 -2 0 0 0z"/>
   <path class="fil26" d="M64 130l3 0 0 0 -2 0 -1 0zm24 -1l2 0 0 1 -2 0 0 -1z"/>
   <path class="fil27" d="M65 130l2 0 0 0 -2 0 0 0zm23 0l2 0 0 0 -2 0 0 0z"/>
   <path class="fil28" d="M65 130l2 0 0 0 -2 0 0 0zm23 0l2 0 -1 0 -2 0 1 0z"/>
   <path class="fil28" d="M65 130l2 0 0 0 -2 0 0 0zm22 0l2 0 0 0 -2 0 0 0z"/>
   <path class="fil29" d="M65 130l2 0 1 0 -3 0 0 0zm22 0l2 0 0 0 -2 0 0 0z"/>
   <path class="fil30" d="M65 130l3 0 0 0 -3 0 0 0zm22 0l2 0 0 0 -2 0 0 0z"/>
   <path class="fil30" d="M65 130l3 0 0 0 -3 0 0 0zm22 0l2 0 0 0 -2 0 0 0z"/>
   <path class="fil31" d="M65 130l3 0 0 0 -3 0 0 0zm22 0l2 0 0 0 -3 0 1 0z"/>
   <path class="fil31" d="M65 130l3 0 1 1 -4 0 0 -1zm21 0l3 0 0 1 -3 0 0 -1z"/>
   <path class="fil31" d="M65 131l4 0 0 0 -4 0 0 0zm21 0l3 0 0 0 -3 0 0 0z"/>
   <path class="fil32" d="M65 131l4 0 0 0 -4 0 0 0zm21 0l3 0 0 0 -3 0 0 0z"/>
   <path class="fil32" d="M65 131l4 0 0 0 -3 0 -1 0zm21 0l3 0 0 0 -4 0 1 0z"/>
   <path class="fil33" d="M66 131l3 0 0 0 -3 0 0 0zm19 0l4 0 0 0 -4 0 0 0z"/>
   <path class="fil33" d="M66 131l3 0 1 0 -4 0 0 0zm19 0l4 0 -1 0 -3 0 0 0z"/>
   <path class="fil33" d="M66 131l4 0 0 0 -4 0 0 0zm19 0l3 0 0 0 -3 0 0 0z"/>
   <path class="fil34" d="M66 131l4 0 0 0 -4 0 0 0zm19 0l3 0 0 0 -3 0 0 0z"/>
   <path class="fil34" d="M66 131l4 0 0 1 -4 0 0 -1zm19 0l3 0 0 1 -4 0 1 -1z"/>
   <path class="fil35" d="M66 132l4 0 1 0 -5 0 0 0zm18 0l4 0 0 0 -4 0 0 0z"/>
   <path class="fil35" d="M66 132l5 0 0 0 -5 0 0 0zm18 0l4 0 0 0 -4 0 0 0z"/>
   <path class="fil36" d="M66 132l5 0 0 0 -5 0 0 0zm18 0l4 0 0 0 -4 0 0 0z"/>
   <path class="fil37" d="M66 132l5 0 0 0 -5 0 0 0zm18 0l4 0 0 0 -5 0 1 0z"/>
   <path class="fil38" d="M66 132l5 0 1 0 -5 0 -1 0zm17 0l5 0 0 0 -5 0 0 0z"/>
   <path class="fil39" d="M67 132l5 0 0 0 -5 0 0 0zm16 0l5 0 0 0 -5 0 0 0z"/>
   <path class="fil39" d="M67 132l5 0 0 0 -5 0 0 0zm16 0l5 0 -1 0 -4 0 0 0z"/>
   <path class="fil40" d="M67 132l5 0 0 0 -5 0 0 0zm16 0l4 0 0 0 -5 0 1 0z"/>
   <path class="fil40" d="M67 132l5 0 1 1 -6 0 0 -1zm15 0l5 0 0 1 -5 0 0 -1z"/>
   <path class="fil40" d="M67 133l6 0 0 0 -6 0 0 0zm15 0l5 0 0 0 -5 0 0 0z"/>
   <path class="fil41" d="M67 133l6 0 0 0 -6 0 0 0zm15 0l5 0 0 0 -5 0 0 0z"/>
   <path class="fil41" d="M67 133l6 0 0 0 -6 0 0 0zm15 0l5 0 0 0 -6 0 1 0z"/>
   <path class="fil42" d="M67 133l6 0 1 0 -7 0 0 0zm14 0l6 0 0 0 -6 0 0 0z"/>
   <path class="fil42" d="M67 133l7 0 0 0 -6 0 -1 0zm14 0l6 0 0 0 -6 0 0 0z"/>
   <path class="fil42" d="M68 133l6 0 0 0 -6 0 0 0zm13 0l6 0 0 0 -7 0 1 0z"/>
   <path class="fil43" d="M68 133l6 0 0 0 -6 0 0 0zm12 0l7 0 0 0 -7 0 0 0z"/>
   <path class="fil43" d="M68 133l6 0c1,0 1,1 1,1l-7 0 0 -1zm12 0l7 0 -1 1 -6 0 0 -1z"/>
   <path class="fil44" d="M68 134l7 0c0,0 0,0 0,0l-7 0 0 0zm12 0l6 0 0 0 -7 0c1,0 1,0 1,0z"/>
   <path class="fil44" d="M68 134l7 0c0,0 0,0 0,0l-7 0 0 0zm11 0l7 0 0 0 -7 0c0,0 0,0 0,0z"/>
   <path class="fil44" d="M68 134l7 0c1,0 1,0 1,0l-8 0 0 0zm11 0l7 0 0 0 -7 0c0,0 0,0 0,0z"/>
   <path class="fil45" d="M68 134l8 0c0,0 0,0 0,0l-8 0 0 0zm11 0l7 0 0 0 -8 0c0,0 0,0 1,0z"/>
   <path class="fil45" d="M68 134l8 0c1,0 1,0 1,0 0,0 1,0 1,0l8 0 0 0 -18 0 0 0z"/>
   <polygon class="fil46" points="68,134 86,134 86,134 69,134 "/>
   <polygon class="fil47" points="69,134 86,134 86,134 69,134 "/>
   <polygon class="fil47" points="69,134 86,134 85,134 69,135 "/>
   <polygon class="fil48" points="69,135 85,134 85,135 69,135 "/>
   <polygon class="fil48" points="69,135 85,135 85,135 69,135 "/>
   <polygon class="fil49" points="69,135 85,135 85,135 69,135 "/>
   <polygon class="fil49" points="69,135 85,135 85,135 69,135 "/>
   <polygon class="fil49" points="69,135 85,135 85,135 69,135 "/>
   <polygon class="fil50" points="69,135 85,135 85,135 70,135 "/>
   <polygon class="fil50" points="70,135 85,135 85,135 70,135 "/>
   <polygon class="fil50" points="70,135 85,135 85,135 70,135 "/>
   <polygon class="fil51" points="70,135 85,135 84,136 70,136 "/>
   <polygon class="fil52" points="70,136 84,136 84,136 70,136 "/>
   <polygon class="fil53" points="70,136 84,136 84,136 70,136 "/>
   <polygon class="fil53" points="70,136 84,136 84,136 70,136 "/>
   <polygon class="fil53" points="70,136 84,136 84,136 70,136 "/>
   <polygon class="fil54" points="70,136 84,136 84,136 71,136 "/>
   <polygon class="fil54" points="71,136 84,136 84,136 71,136 "/>
   <polygon class="fil55" points="71,136 84,136 84,136 71,136 "/>
   <polygon class="fil55" points="71,136 84,136 83,137 71,137 "/>
   <polygon class="fil55" points="71,137 83,137 83,137 71,137 "/>
   <polygon class="fil56" points="71,137 83,137 83,137 71,137 "/>
   <polygon class="fil57" points="71,137 83,137 83,137 71,137 "/>
   <polygon class="fil58" points="71,137 83,137 83,137 72,137 "/>
   <polygon class="fil58" points="72,137 83,137 83,137 72,137 "/>
   <polygon class="fil59" points="72,137 83,137 83,137 72,137 "/>
   <polygon class="fil59" points="72,137 83,137 82,137 72,137 "/>
   <polygon class="fil60" points="72,137 82,137 82,137 72,137 "/>
   <polygon class="fil60" points="72,137 82,137 82,138 72,138 "/>
   <polygon class="fil60" points="72,138 82,138 82,138 72,138 "/>
   <polygon class="fil61" points="72,138 82,138 82,138 73,138 "/>
   <polygon class="fil61" points="73,138 82,138 82,138 73,138 "/>
   <polygon class="fil62" points="73,138 82,138 82,138 73,138 "/>
   <polygon class="fil63" points="73,138 82,138 81,138 73,138 "/>
   <polygon class="fil63" points="73,138 81,138 81,138 73,138 "/>
   <polygon class="fil64" points="73,138 81,138 81,138 73,138 "/>
   <polygon class="fil64" points="73,138 81,138 81,139 74,139 "/>
   <polygon class="fil65" points="74,139 81,139 81,139 74,139 "/>
   <polygon class="fil66" points="74,139 81,139 81,139 74,139 "/>
   <polygon class="fil66" points="74,139 81,139 80,139 74,139 "/>
   <polygon class="fil67" points="74,139 80,139 80,139 74,139 "/>
   <polygon class="fil67" points="74,139 80,139 80,139 75,139 "/>
   <path class="fil67" d="M75 139l5 0 0 0 -5 0c0,0 0,0 0,0z"/>
   <path class="fil68" d="M75 139l5 0 0 0 -5 0c0,0 0,0 0,0z"/>
   <path class="fil68" d="M75 139l5 0c0,0 -1,0 -1,0l-4 0c0,0 0,0 0,0z"/>
   <path class="fil69" d="M75 139l4 0c0,1 0,1 0,1l-3 0c-1,0 -1,0 -1,-1z"/>
   <path class="fil69" d="M76 140l3 0c0,0 0,0 0,0l-3 0c0,0 0,0 0,0z"/>
   <path class="fil69" d="M76 140l3 0c-1,0 -1,0 -1,0 0,0 0,0 0,0 0,0 0,0 0,0 0,0 -1,0 -1,0 0,0 0,0 0,0l0 0c0,0 0,0 0,0 0,0 0,0 0,0 0,0 -1,0 -1,0zm1 0l0 0z"/>
   <g style="clip-path:url(#id19)">
    <image x="61" y="124" width="31.4325" height="9.96444" xlink:href="Tokopedia_Images\Tokopedia_ImgID20.png"/>
   </g>
   <g style="clip-path:url(#id20)">
    <image x="2" y="36" width="71.7762" height="9.39736" xlink:href="Tokopedia_Images\Tokopedia_ImgID21.png"/>
   </g>
   <g style="clip-path:url(#id21)">
    <image x="80" y="36" width="71.7762" height="9.39736" xlink:href="Tokopedia_Images\Tokopedia_ImgID22.png"/>
   </g>
   <path class="fil6" d="M87 110l-6 0c0,-1 0,-1 0,-2 -1,0 -1,0 -2,0l0 0 0 0 0 0 0 0 0 0 0 0 0 0 0 0 0 0 0 0 0 0 0 0 0 0 0 0 0 0 0 0 0 0 0 0 0 0 0 0 0 0 0 0 -1 0 0 0 0 0 0 0 0 0 0 0 0 0 0 0 0 0 0 0 0 0 0 0 0 0 0 0 0 0 0 0 0 0 0 0 0 0 0 0 0 0 0 0 0 0 0 0 0 0 0 0 0 0 0 0 0 0 0 0 0 0 0 0 0 0 0 0 0 0 0 0 0 0 0 0 0 0 0 0 0 0 0 0 0 0 0 0 0 0 0 0 0 0 0 0 0 0 0 0 0 0 0 0 0 0 0 0 0 0 0 0 0 0 0 0 0 0 0 0 0 0 0 0 0 0 1 0 0 0 0 0 0 0 0 0 0 0 0 0 0 0 0 0 0 0 0 0 0 0 0 0 0 0 0 0 0 0 0 0 0 0 0 0 0 0 0 0 0 0 0 0c1,0 1,0 2,0 2,0 4,1 6,2z"/>
   <path class="fil6" d="M81 110l6 0c0,0 0,0 0,0l-6 0 0 0z"/>
   <path class="fil6" d="M81 110l6 0c0,0 0,0 0,0l-6 0 0 0z"/>
   <polygon class="fil7" points="81,110 87,110 87,110 88,110 81,110 "/>
   <polygon class="fil7" points="81,110 88,110 88,111 81,110 "/>
   <polygon class="fil8" points="81,110 88,111 88,111 81,111 "/>
   <polygon class="fil8" points="81,111 88,111 88,111 88,111 81,111 "/>
   <path class="fil8" d="M81 111l7 0c0,0 1,0 1,0l-8 0 0 0z"/>
   <polygon class="fil9" points="81,111 89,111 89,111 81,111 "/>
   <polygon class="fil9" points="81,111 89,111 89,111 81,111 "/>
   <polygon class="fil10" points="81,111 89,111 89,111 81,111 "/>
   <polygon class="fil10" points="81,111 89,111 90,112 81,111 "/>
   <polygon class="fil11" points="81,111 90,112 90,112 81,112 "/>
   <polygon class="fil12" points="81,112 90,112 90,112 81,112 "/>
   <polygon class="fil13" points="81,112 90,112 90,112 81,112 "/>
   <polygon class="fil13" points="81,112 90,112 90,112 81,112 "/>
   <polygon class="fil14" points="81,112 90,112 91,112 81,112 "/>
   <polygon class="fil14" points="81,112 91,112 91,113 81,112 "/>
   <polygon class="fil15" points="81,112 91,113 91,113 81,113 "/>
   <polygon class="fil15" points="81,113 91,113 91,113 81,113 "/>
   <polygon class="fil15" points="81,113 91,113 91,113 80,113 "/>
   <polygon class="fil16" points="80,113 91,113 91,113 80,113 "/>
   <polygon class="fil17" points="80,113 91,113 92,113 80,113 "/>
   <polygon class="fil17" points="80,113 92,113 92,114 80,113 "/>
   <polygon class="fil17" points="80,113 92,114 92,114 80,114 "/>
   <polygon class="fil18" points="80,114 92,114 92,114 80,114 "/>
   <polygon class="fil19" points="80,114 92,114 92,114 80,114 "/>
   <polygon class="fil20" points="80,114 92,114 92,114 80,114 "/>
   <polygon class="fil20" points="80,114 92,114 92,114 80,114 "/>
   <polygon class="fil20" points="80,114 92,114 93,115 80,114 "/>
   <polygon class="fil21" points="80,114 93,115 93,115 80,114 "/>
   <polygon class="fil21" points="80,114 93,115 93,115 80,115 "/>
   <polygon class="fil22" points="80,115 93,115 93,115 80,115 "/>
   <polygon class="fil22" points="80,115 93,115 93,115 80,115 "/>
   <polygon class="fil22" points="80,115 93,115 93,115 80,115 "/>
   <polygon class="fil23" points="80,115 93,115 93,116 80,115 "/>
   <polygon class="fil23" points="80,115 93,116 93,116 80,115 "/>
   <polygon class="fil24" points="80,115 93,116 93,116 80,116 "/>
   <polygon class="fil24" points="80,116 93,116 94,116 80,116 "/>
   <polygon class="fil24" points="80,116 94,116 94,116 94,116 80,116 "/>
   <polygon class="fil25" points="80,116 94,116 94,116 80,116 "/>
   <polygon class="fil25" points="80,116 94,116 94,116 80,116 "/>
   <polygon class="fil25" points="80,116 94,116 94,117 80,116 "/>
   <polygon class="fil26" points="80,116 94,117 94,117 80,117 "/>
   <polygon class="fil27" points="80,117 94,117 94,117 94,117 80,117 "/>
   <polygon class="fil28" points="80,117 94,117 94,117 80,117 "/>
   <polygon class="fil28" points="80,117 94,117 94,117 80,117 "/>
   <polygon class="fil29" points="80,117 94,117 94,117 80,117 "/>
   <polygon class="fil30" points="80,117 94,117 94,118 80,117 "/>
   <polygon class="fil30" points="80,117 94,118 94,118 80,117 "/>
   <polygon class="fil31" points="80,117 94,118 95,118 80,118 "/>
   <polygon class="fil31" points="80,118 95,118 95,118 80,118 "/>
   <path class="fil31" d="M80 118l15 0 0 0 -15 0 0 0zm-3 0l0 0 0 0z"/>
   <path class="fil32" d="M80 118l15 0 0 0 -15 0 0 0zm-3 0l0 0 0 0z"/>
   <path class="fil32" d="M80 118l15 0 0 1 -15 -1 0 0zm-3 0l0 0 0 0z"/>
   <path class="fil33" d="M80 118l15 1 0 0 -15 -1 0 0zm-3 0l0 0 0 0z"/>
   <path class="fil33" d="M80 118l15 1 0 0 -15 0 0 -1zm-3 0l0 0 0 0z"/>
   <path class="fil33" d="M80 119l15 0 0 0 -15 0 0 0zm-3 0l0 -1 0 1z"/>
   <path class="fil34" d="M80 119l15 0 0 0 -15 0 0 0zm-3 0l0 0 0 0z"/>
   <path class="fil34" d="M80 119l15 0 0 0 -15 0 0 0zm-3 0l0 0 0 0 0 0z"/>
   <path class="fil35" d="M77 119l0 0 0 0 0 0 0 0zm3 0l15 0 0 0 -15 0 0 0z"/>
   <path class="fil35" d="M77 119l0 0 0 0 0 0zm3 0l15 0 0 1 -15 -1 0 0z"/>
   <path class="fil36" d="M80 119l15 1 0 0 -15 -1 0 0zm-3 0l0 0 0 0z"/>
   <path class="fil37" d="M80 119l15 1 0 0 -15 0 0 -1zm-3 1l0 -1 0 1z"/>
   <path class="fil38" d="M80 120l15 0 0 0 -15 0 0 0zm-3 0l0 0 0 0 0 0z"/>
   <path class="fil39" d="M77 120l0 0 0 0 0 0 0 0zm3 0l15 0 0 0 -15 0 0 0z"/>
   <path class="fil39" d="M77 120l0 0 0 0 0 0zm3 0l15 0 1 0 -16 0 0 0z"/>
   <path class="fil40" d="M80 120l16 0 0 1 -16 -1 0 0zm-3 0l0 0 0 0 0 0z"/>
   <path class="fil40" d="M77 120l0 0 0 0 0 0 0 0zm3 0l16 1 0 0c0,0 0,0 0,0l-17 -1 1 0z"/>
   <path class="fil40" d="M77 120l0 0 0 1 0 0 0 -1zm2 0l17 1 0 0 -17 0 0 -1z"/>
   <path class="fil41" d="M77 121l0 0 0 0 0 0zm2 0l17 0 0 0 -17 0 0 0z"/>
   <path class="fil41" d="M79 121l17 0 0 0 -17 0 0 0zm-2 0l0 0 0 0z"/>
   <path class="fil42" d="M79 121l17 0 0 0 -17 0 0 0zm-2 0l0 0 0 0 0 0z"/>
   <path class="fil42" d="M77 121l0 0 0 0 0 0zm2 0l17 0 0 1 -17 -1 0 0z"/>
   <path class="fil42" d="M79 121l17 1 0 0 -17 -1 0 0zm-2 0l0 0 0 0z"/>
   <path class="fil43" d="M79 121l17 1 0 0 -17 0 0 -1zm-2 0l0 0 0 0z"/>
   <path class="fil43" d="M79 122l17 0 0 0 -17 0 0 0zm-2 0l0 -1 0 1z"/>
   <path class="fil44" d="M79 122l17 0 0 0 0 0 -17 0 0 0zm-2 0l0 0 0 0 0 0z"/>
   <path class="fil44" d="M77 122l0 0 0 0 0 0 0 0zm2 0l17 0 0 0 -17 0 0 0z"/>
   <path class="fil44" d="M77 122l0 0 0 0 0 0 0 0zm2 0l17 0 0 0 -17 0 0 0z"/>
   <path class="fil45" d="M77 122l0 0 0 0 0 0 0 0zm2 0l17 0 0 1 -17 -1 0 0z"/>
   <path class="fil45" d="M77 122l0 0 0 0 0 0 0 0zm2 0l17 1 0 0c0,0 0,0 0,0l-1 0 -16 -1 0 0z"/>
   <path class="fil46" d="M77 122l0 0 0 1 0 -1zm2 0l16 1c0,0 0,0 0,0l-16 0 0 -1z"/>
   <path class="fil47" d="M79 123l16 0 0 0 -16 0 0 0zm-2 0l0 0 0 0 0 0z"/>
   <path class="fil47" d="M77 123l0 0 0 0 0 0 0 0zm2 0l16 0 0 0 -16 0 0 0z"/>
   <path class="fil48" d="M77 123l0 0 0 0 0 0 0 0zm2 0l16 0 0 0 -16 0 0 0zm-20 0l0 0 0 0 0 0 0 0 0 0 0 0 0 0 0 0 0 0 0 0 0 0 0 0 0 0 0 0 0 0 0 0 0 0 0 0 0 0 0 0 0 0 0 0 0 0 0 0 0 0 0 0 0 0 0 0 0 0 0 0 0 0 0 0 0 0 0 0 0 0 0 0 0 0 0 0 0 0 0 0 0 0 0 0 0 0 0 0 0 0 0 0 0 0 0 0 0 0 0 0z"/>
   <path class="fil48" d="M59 123l0 0 0 0 0 0 0 0 0 0 0 0 0 0 0 0 0 0 0 0 0 0 0 0 0 0 0 0 0 0 0 0 0 0 0 0 0 0 0 0 0 0zm18 0l0 0 0 0 0 0zm2 0l16 0 -1 1 -15 -1 0 0z"/>
   <path class="fil49" d="M79 123l15 1 0 0 -15 -1 0 0zm-2 0l0 0 0 0 0 0zm-18 0l0 0 0 0 0 0 0 0 0 0 0 0 0 0 0 0 0 0 0 0 0 0 0 0 0 0 0 0 0 0 0 0 0 0 0 0 0 0 0 0z"/>
   <path class="fil49" d="M77 123l0 0 0 1 0 0 0 -1zm2 0l15 1 0 0 -15 0 0 -1zm-19 0l0 0 -1 0 0 0 0 0 0 0 0 0 0 0 0 0 0 0 0 0 0 0 0 0 0 0 0 0 0 0 0 0 0 0 0 0 1 0 0 0z"/>
   <path class="fil49" d="M77 124l0 0 0 0 0 0 0 0zm2 0l15 0 0 0 -15 0 0 0zm-19 -1l0 0 0 0 0 0 0 0 0 0 0 0 0 0 0 0 0 0 0 0 0 0 0 0 0 0 0 0z"/>
   <path class="fil50" d="M77 124l0 0 0 0 0 0zm2 0l15 0 -1 0 -14 0 0 0zm-19 -1l0 0 0 0 0 0 0 0 0 0 0 0 0 0 0 0 0 0 0 0 0 0 0 0 0 0 0 0 0 0 0 0z"/>
   <path class="fil50" d="M79 124l14 0 0 0 -14 0 0 0zm-2 0l0 0 0 0zm-17 0l0 0 0 0 0 0 0 0 0 0 0 0 0 -1 0 1 0 0 0 0 0 0 0 0 0 0 0 0z"/>
   <path class="fil50" d="M79 124l14 0 0 0 -14 0 0 0zm-2 0l0 0 0 0zm-16 0l-1 0 0 0 0 0 1 0z"/>
   <path class="fil51" d="M93 125l0 0zm-14 -1l14 0 0 1c0,0 0,0 0,0l0 0 -14 -1 0 0zm-18 0l0 0 0 0 0 0zm16 0l0 0 0 0z"/>
   <path class="fil52" d="M61 124l0 0 0 0 0 0 0 0zm18 0l14 1 -1 0 -13 0 0 -1zm-2 0l0 0 0 0 0 0z"/>
   <path class="fil53" d="M61 124l0 0 0 0 0 0 0 0c0,0 0,0 0,0l0 0zm16 0l0 0 0 1 0 -1zm2 1l13 0 0 0 -13 0 0 0zm-18 -1l0 0z"/>
   <path class="fil53" d="M61 124l0 0 1 0 0 0 -1 0zm18 1l13 0 0 0 -13 0 0 0zm-2 0l0 0 0 0z"/>
   <path class="fil53" d="M62 124l0 0 0 1 0 -1zm17 1l13 0 0 0 -13 0 0 0zm-2 0l0 0 0 0z"/>
   <path class="fil54" d="M79 125l13 0 -1 0 -12 0 0 0zm-2 0l0 0 0 0zm-15 0l0 0 0 0z"/>
   <path class="fil54" d="M79 125l12 0 0 1 -12 -1 0 0zm-17 0l0 0 0 0 0 0zm15 0l0 0 0 0z"/>
   <path class="fil55" d="M62 125l0 0 1 0 0 0 -1 0zm17 0l12 1 0 0 -12 -1 0 0zm-2 0l0 0 0 0z"/>
   <path class="fil55" d="M63 125l0 0 0 0 0 0 0 0zm16 0l12 1 0 0 -12 0 0 -1zm-2 1l0 -1 0 1z"/>
   <path class="fil55" d="M63 125l0 0 0 0 0 0 0 0zm16 1l12 0 -1 0 -11 0 0 0zm-2 0l0 0 0 0z"/>
   <path class="fil56" d="M63 125l0 0 1 1 0 0 -1 -1zm16 1l11 0 0 0 -11 0 0 0zm-2 0l0 0 0 0z"/>
   <path class="fil57" d="M64 126l0 0 0 0 0 0 0 0zm15 0l11 0 0 0 -11 0 0 0zm-2 0l0 0 0 0z"/>
   <path class="fil58" d="M64 126l0 0 0 0 0 0 0 0zm15 0l11 0 0 0 -12 0 1 0zm-2 0l0 0 0 0z"/>
   <path class="fil58" d="M64 126l0 0 0 0 0 0 0 0zm14 0l12 0 -1 1 -11 -1 0 0zm-1 0l0 0 0 0 0 0z"/>
   <path class="fil59" d="M64 126l0 0 1 0 0 0 -1 0zm13 0l0 0 0 1 0 -1zm1 0l11 1 0 0 -11 0 0 -1z"/>
   <path class="fil59" d="M65 126l0 0 0 0 0 0 0 0zm13 1l11 0 0 0 -11 0 0 0zm-1 0l0 0 0 0z"/>
   <path class="fil60" d="M65 126l0 0 0 1 0 0 0 -1zm13 1l11 0 0 0 -11 0 0 0zm-1 0l0 0 0 0z"/>
   <path class="fil60" d="M65 127l0 0 1 0 0 0 -1 0zm13 0l11 0 -1 0 -10 0 0 0zm-1 0l0 0 0 0z"/>
   <path class="fil60" d="M66 127l0 0 0 0 0 0 0 0zm12 0l10 0 0 0 -10 0 0 0zm-1 0l0 0 0 0z"/>
   <path class="fil61" d="M66 127l0 0 0 0 0 0 0 0zm12 0l10 0 0 1 -10 -1 0 0zm-1 0l0 0 0 0 0 0z"/>
   <path class="fil61" d="M66 127l0 0 0 0 0 0 0 0zm11 0l0 0 0 0 0 0 0 0zm1 0l10 1 -1 0 -9 -1 0 0z"/>
   <path class="fil62" d="M66 127l0 0 1 0 0 0 -1 0zm11 0l0 0 0 1 0 0 0 -1zm1 0l9 1 0 0 -9 0 0 -1z"/>
   <path class="fil63" d="M67 127l0 0 0 1 0 0 0 -1zm10 1l0 0 0 0 0 0zm1 0l9 0 0 0 -9 0 0 0z"/>
   <path class="fil63" d="M67 128l0 0 0 0 0 0 0 0zm11 0l9 0 0 0 -9 0 0 0zm-1 0l0 0 0 0z"/>
   <path class="fil64" d="M67 128l0 0 1 0 0 0 -1 0zm11 0l9 0 -1 0 -8 0 0 0zm-1 0l0 0 0 0z"/>
   <path class="fil64" d="M68 128l0 0 0 0 0 0 0 0zm10 0l8 0 0 0 -8 0 0 0zm-1 0l0 0 0 0z"/>
   <path class="fil65" d="M68 128l0 0 0 0 0 0 0 0zm10 0l8 0 0 1 -8 -1 0 0zm-1 0l0 0 0 0z"/>
   <path class="fil66" d="M68 128l0 0 0 0 0 0 0 0zm10 0l8 1 -1 0 -7 0 0 -1zm-1 1l0 0 0 -1 0 1z"/>
   <path class="fil66" d="M68 128l0 0 1 1 0 0 -1 -1zm9 1l0 0 0 0 0 0 0 0zm1 0l7 0 0 0 -7 0 0 0z"/>
   <path class="fil67" d="M69 129l0 0 0 0 0 0 0 0zm8 0l0 0 0 0 0 0 0 0zm1 0l7 0 0 0 -7 0 0 0z"/>
   <path class="fil67" d="M69 129l0 0 0 0 0 0 0 0zm8 0l0 0 0 0 0 0 0 0zm1 0l7 0 0 0 -7 0 0 0z"/>
   <path class="fil67" d="M69 129l0 0 1 0 0 0 -1 0zm8 0l0 0 0 0 0 0zm1 0l7 0 -1 0 -6 0 0 0z"/>
   <path class="fil68" d="M70 129l0 0 0 0 0 0 0 0zm8 0l6 0 0 0 -6 0 0 0zm-1 0l0 0 0 0z"/>
   <path class="fil68" d="M70 129l0 0 0 0 0 0 0 0zm8 0l6 0 0 1 -6 0 0 -1zm-1 1l0 0 0 -1 0 1z"/>
   <path class="fil69" d="M70 129l0 0 1 1 0 0 -1 -1zm7 1l0 0 0 0 0 0zm1 0l6 0 -1 0 -5 0 0 0z"/>
   <path class="fil69" d="M71 130l0 0 0 0 0 0 0 0zm7 0l5 0 0 0 -5 0 0 0zm-1 0l0 0 0 0 0 0z"/>
   <path class="fil69" d="M71 130l0 0c2,1 5,2 6,2 0,-1 0,-1 1,-2l5 0c-2,1 -5,2 -6,2l0 0c-1,0 -3,-1 -6,-2zm6 0l0 0c0,1 0,1 0,2l0 0c0,-1 0,-1 0,-2z"/>
   <g style="clip-path:url(#id22)">
    <image x="59" y="107" width="18.7947" height="24.4655" xlink:href="Tokopedia_Images\Tokopedia_ImgID23.png"/>
   </g>
   <g style="clip-path:url(#id23)">
    <image x="77" y="108" width="0.486069" height="0" xlink:href="Tokopedia_Images\Tokopedia_ImgID24.png"/>
   </g>
   <g style="clip-path:url(#id24)">
    <image x="77" y="107" width="4.45563" height="24.4655" xlink:href="Tokopedia_Images\Tokopedia_ImgID25.png"/>
   </g>
   <polygon class="fil4" points="76,108 76,108 "/>
   <path class="fil70" d="M581 78l11 0 0 55 -1 0c-5,0 -10,-4 -10,-10l0 -45zm-96 56c-7,2 -14,1 -21,-3 -7,-4 -11,-10 -14,-17 -4,-15 5,-32 20,-36 8,-2 15,-1 22,3 11,6 15,16 15,29l-46 0c1,5 4,9 8,11 5,3 9,3 13,2 4,-1 8,-5 11,-8l9 7c-4,7 -9,11 -17,12l0 0zm9 -35c-1,-4 -3,-6 -7,-9 -10,-5 -20,0 -24,9l31 0zm155 4c0,-5 -2,-8 -5,-11 -3,-3 -7,-4 -11,-4 -11,0 -17,8 -17,18 0,10 7,18 16,18 7,0 11,-4 15,-9l0 14c-2,1 -5,3 -7,4 -2,1 -5,1 -9,1 -16,0 -27,-13 -27,-29 0,-8 3,-14 8,-20 5,-5 12,-8 21,-8 16,0 27,10 27,26l0 30 0 0c-6,0 -11,-4 -11,-10l0 -20zm-57 -31c-2,1 -3,2 -5,2 -4,0 -7,-3 -7,-7 0,-4 3,-6 7,-6 3,0 6,2 6,6 0,2 0,4 -1,5l0 0zm-32 54c-6,6 -12,8 -20,8 -9,0 -16,-3 -21,-8 -5,-6 -8,-13 -8,-21 0,-15 12,-28 27,-28 5,0 11,2 16,4l0 13c-4,-3 -10,-6 -15,-6 -10,0 -16,7 -16,18 0,10 6,18 17,18 4,0 8,-2 11,-6 3,-3 5,-9 5,-15l0 -39c0,-5 5,-10 11,-10l0 0 0 50c0,9 -2,16 -7,22l0 0zm-123 0c-5,6 -12,8 -19,8 -6,0 -11,-1 -16,-4l0 -12c4,3 9,6 14,6 11,0 17,-8 17,-18 0,-10 -6,-18 -17,-18 -4,0 -8,2 -11,5 -3,4 -5,9 -5,16l0 48 -1 0c-6,0 -10,-5 -10,-10l0 -40c0,-16 10,-30 27,-30 9,0 16,3 21,9 5,6 8,13 8,21 0,8 -3,14 -8,19l0 0z"/>
   <path class="fil70" d="M254 93c-3,-3 -7,-5 -12,-5 -10,0 -17,8 -17,18 0,10 7,18 17,18 10,0 17,-8 17,-18 0,-5 -2,-10 -5,-13zm112 0c-4,-3 -7,-5 -12,-5 -11,0 -17,8 -17,18 0,10 6,18 17,18 10,0 16,-8 16,-18 0,-5 -1,-10 -4,-13l0 0zm8 33c-6,6 -13,8 -20,8 -8,0 -15,-2 -20,-8 -6,-5 -9,-12 -9,-20 0,-16 12,-29 29,-29 7,0 14,3 20,8 5,6 8,13 8,21 0,8 -3,15 -8,20l0 0zm-59 -34c-1,2 -3,4 -4,6 -1,1 -2,2 -3,3 8,2 11,8 11,16l0 16 -1 0c-5,0 -10,-4 -10,-10l0 -5c0,-5 -2,-9 -8,-9l-10 0 0 24 -1 0c-6,0 -11,-4 -11,-10l0 -59c0,-5 5,-10 11,-10l1 0 0 44 3 0c4,0 6,-1 8,-4l9 -16 13 0 -8 14zm-53 34c-5,6 -12,8 -20,8 -8,0 -14,-2 -20,-8 -6,-5 -8,-12 -8,-20 0,-16 12,-29 28,-29 8,0 15,3 20,8 6,6 9,13 9,21 0,8 -3,15 -9,20l0 0zm-66 7c-11,0 -16,-7 -16,-18l0 -40c0,-6 5,-10 10,-10l1 0 0 13 19 0 0 11 -19 0 0 28c0,4 2,5 7,5l12 0 0 11 -14 0z"/>
  </g>
 </g>
</svg>
