<svg width="73" height="23" viewBox="0 0 73 23" fill="none" xmlns="http://www.w3.org/2000/svg">
<g clip-path="url(#clip0)">
<path d="M25.7368 22.1756L29.4424 0.809937H35.3376L31.6321 22.1756H25.7368Z" fill="#004686"/>
<path d="M53.0908 1.34473C51.9117 0.910734 50.0926 0.443359 47.8019 0.443359C41.974 0.443359 37.8305 3.34776 37.7968 7.48737C37.7631 10.5587 40.7276 12.2613 42.9846 13.2962C45.2753 14.3311 46.0501 14.9987 46.0501 15.9335C46.0501 17.369 44.1974 18.0033 42.513 18.0033C40.1549 18.0033 38.8748 17.6695 36.9546 16.8682L36.1798 16.5344L35.3376 21.3083C36.7188 21.9092 39.279 22.41 41.9403 22.4434C48.1724 22.4434 52.1812 19.5723 52.2486 15.1657C52.2823 12.7286 50.699 10.8925 47.2966 9.35686C45.2417 8.35535 43.9615 7.72105 43.9615 6.71953C43.9615 5.81817 45.0395 4.88342 47.3639 4.88342C49.2841 4.85004 50.699 5.28403 51.777 5.68463L52.316 5.91832L53.0908 1.34473Z" fill="#004686"/>
<path d="M68.2501 0.843262H63.6687C62.2538 0.843262 61.2095 1.21048 60.5694 2.61261L51.7771 22.1756H57.9755C57.9755 22.1756 58.9861 19.5383 59.222 18.9707C59.8957 18.9707 65.9257 18.9707 66.8016 18.9707C66.97 19.7052 67.509 22.1756 67.509 22.1756H73L68.2501 0.843262ZM60.9737 14.5974C61.479 13.3622 63.3318 8.62171 63.3318 8.62171C63.2981 8.68848 63.8034 7.38651 64.1066 6.58529L64.5108 8.42141C64.5108 8.42141 65.6562 13.5292 65.892 14.5974H60.9737Z" fill="#004686"/>
<path d="M20.785 0.843262L14.9908 15.3986L14.3845 12.4275C13.2728 9.02232 9.93775 5.31671 6.16479 3.48059L11.4537 22.1422H17.7195L27.0508 0.843262H20.785Z" fill="#004686"/>
<path d="M9.60083 0.810059H0.0673743L0 1.24405C7.41117 3.0134 12.3295 7.28654 14.3507 12.4277L12.2958 2.61279C11.9252 1.27743 10.8809 0.876826 9.60083 0.810059Z" fill="#EF9B11"/>
</g>
<defs>
<clipPath id="clip0">
<rect width="73" height="22" fill="white" transform="translate(0 0.443359)"/>
</clipPath>
</defs>
</svg>
